<mxfile host="app.diagrams.net" modified="2023-06-29T14:37:58.075Z" agent="Mozilla/5.0 (X11; Linux x86_64; rv:109.0) Gecko/20100101 Firefox/114.0" etag="lMzkTVf1HWM6wJNUWKv4" compressed="false" version="21.5.2" type="device">
  <diagram id="6v_UKsHeDzqBDUNiW_st" name="RISC-V">
    <mxGraphModel dx="864" dy="511" grid="1" gridSize="1" guides="1" tooltips="1" connect="1" arrows="1" fold="1" page="1" pageScale="1" pageWidth="700" pageHeight="540" background="#ffffff" math="0" shadow="0">
      <root>
        <mxCell id="0jYIva3T7vnUbckOAgtF-0" />
        <mxCell id="0jYIva3T7vnUbckOAgtF-1" style="locked=1;" parent="0jYIva3T7vnUbckOAgtF-0" />
        <UserObject label="" tags="simple forwarding pipeline" id="Haz_8EwUBin59iLyk_8Q-227">
          <mxCell style="rounded=1;gradientColor=none;perimeterSpacing=0;arcSize=1;strokeColor=none;movable=1;resizable=1;rotatable=1;deletable=1;editable=1;connectable=1;" parent="0jYIva3T7vnUbckOAgtF-1" vertex="1">
            <mxGeometry width="824" height="463" as="geometry" />
          </mxCell>
        </UserObject>
        <mxCell id="Haz_8EwUBin59iLyk_8Q-26" value="CPU" parent="0jYIva3T7vnUbckOAgtF-0" />
        <UserObject label="" tags="simple pipeline" id="1xC1WIjRaXcGuhJV2cBO-2">
          <mxCell style="edgeStyle=orthogonalEdgeStyle;rounded=0;orthogonalLoop=1;jettySize=auto;html=1;exitX=0;exitY=0.35;exitDx=0;exitDy=0;exitPerimeter=0;labelBackgroundColor=none;endArrow=none;fontSize=6;fontFamily=sans-serif;strokeColor=#000000;fontColor=#000000;endFill=0;shadow=0;strokeWidth=2;sketch=0;" parent="Haz_8EwUBin59iLyk_8Q-26" source="i2To6XwWsyNyerFe5G8K-12" edge="1">
            <mxGeometry relative="1" as="geometry">
              <mxPoint x="232" y="258" as="targetPoint" />
              <Array as="points">
                <mxPoint x="301" y="266" />
                <mxPoint x="301" y="258" />
              </Array>
            </mxGeometry>
          </mxCell>
        </UserObject>
        <UserObject label="" tags="simple" id="1xC1WIjRaXcGuhJV2cBO-5">
          <mxCell style="edgeStyle=orthogonalEdgeStyle;rounded=0;orthogonalLoop=1;jettySize=auto;html=1;exitX=0.75;exitY=1;exitDx=0;exitDy=0;entryX=0.83;entryY=0.009;entryDx=0;entryDy=0;entryPerimeter=0;labelBackgroundColor=none;endArrow=none;fontSize=6;fontFamily=sans-serif;strokeColor=#3333FF;fontColor=default;endFill=0;shadow=0;strokeWidth=1;sketch=0;" parent="Haz_8EwUBin59iLyk_8Q-26" source="Haz_8EwUBin59iLyk_8Q-85" target="Haz_8EwUBin59iLyk_8Q-40" edge="1">
            <mxGeometry relative="1" as="geometry">
              <Array as="points">
                <mxPoint x="214" y="203" />
                <mxPoint x="232" y="203" />
                <mxPoint x="232" y="248" />
              </Array>
            </mxGeometry>
          </mxCell>
        </UserObject>
        <UserObject label="" tags="simple pipeline" id="1xC1WIjRaXcGuhJV2cBO-3">
          <mxCell style="edgeStyle=orthogonalEdgeStyle;rounded=0;orthogonalLoop=1;jettySize=auto;html=1;entryX=0.998;entryY=0.84;entryDx=0;entryDy=0;entryPerimeter=0;labelBackgroundColor=none;endArrow=none;fontSize=6;fontFamily=sans-serif;strokeColor=#000000;fontColor=#000000;endFill=0;shadow=0;strokeWidth=2;sketch=0;" parent="Haz_8EwUBin59iLyk_8Q-26" source="hCaf9_x39W0CY-DPdxUN-13" target="Haz_8EwUBin59iLyk_8Q-40" edge="1">
            <mxGeometry relative="1" as="geometry">
              <Array as="points">
                <mxPoint x="301" y="321" />
                <mxPoint x="301" y="313" />
              </Array>
            </mxGeometry>
          </mxCell>
        </UserObject>
        <UserObject label="" tags="forwarding simple pipeline" id="q-6THzIC0rTZull3DPy9-49">
          <mxCell style="edgeStyle=orthogonalEdgeStyle;rounded=0;jumpStyle=none;orthogonalLoop=1;jettySize=auto;html=1;fontColor=default;entryX=0.836;entryY=0.024;entryDx=0;entryDy=0;entryPerimeter=0;labelBackgroundColor=none;endArrow=none;fontSize=6;fontFamily=sans-serif;strokeColor=#3333FF;sketch=0;shadow=0;endFill=0;strokeWidth=1;" parent="Haz_8EwUBin59iLyk_8Q-26" source="Haz_8EwUBin59iLyk_8Q-85" target="uWEq7-W_z53UrtFael4O-37" edge="1">
            <mxGeometry relative="1" as="geometry">
              <mxPoint x="599" y="274" as="targetPoint" />
              <Array as="points">
                <mxPoint x="579" y="128" />
              </Array>
            </mxGeometry>
          </mxCell>
        </UserObject>
        <UserObject label="" tags="forwarding simple pipeline" id="q-6THzIC0rTZull3DPy9-39">
          <mxCell style="edgeStyle=orthogonalEdgeStyle;rounded=0;jumpStyle=none;orthogonalLoop=1;jettySize=auto;html=1;exitX=1.017;exitY=0.942;exitDx=0;exitDy=0;entryX=0.693;entryY=0.246;entryDx=0;entryDy=0;entryPerimeter=0;fontColor=default;labelBackgroundColor=none;endArrow=none;fontSize=6;fontFamily=sans-serif;strokeColor=#3333FF;sketch=0;shadow=0;endFill=0;strokeWidth=1;exitPerimeter=0;" parent="Haz_8EwUBin59iLyk_8Q-26" source="Haz_8EwUBin59iLyk_8Q-85" target="Haz_8EwUBin59iLyk_8Q-180" edge="1">
            <mxGeometry relative="1" as="geometry">
              <Array as="points">
                <mxPoint x="206" y="191" />
                <mxPoint x="206" y="176" />
                <mxPoint x="425" y="176" />
                <mxPoint x="425" y="273" />
              </Array>
            </mxGeometry>
          </mxCell>
        </UserObject>
        <UserObject label="" tags="simple pipeline forwarding" id="Haz_8EwUBin59iLyk_8Q-60">
          <mxCell style="edgeStyle=orthogonalEdgeStyle;rounded=0;sketch=0;jumpStyle=none;jumpSize=4;orthogonalLoop=1;jettySize=auto;shadow=0;endArrow=none;endFill=0;strokeColor=#000000;strokeWidth=1;fontSize=6;fontFamily=sans-serif;verticalAlign=middle;align=center;labelPosition=center;verticalLabelPosition=middle;labelBackgroundColor=none;html=1;exitX=0.5;exitY=1;exitDx=0;exitDy=0;entryX=0;entryY=0.75;entryDx=0;entryDy=0;" parent="Haz_8EwUBin59iLyk_8Q-26" source="hCaf9_x39W0CY-DPdxUN-3" target="Haz_8EwUBin59iLyk_8Q-40" edge="1">
            <mxGeometry relative="1" as="geometry">
              <Array as="points">
                <mxPoint x="165" y="397" />
                <mxPoint x="164" y="397" />
                <mxPoint x="164" y="398" />
                <mxPoint x="623" y="398" />
                <mxPoint x="623" y="421" />
                <mxPoint x="173" y="421" />
                <mxPoint x="173" y="306" />
              </Array>
              <mxPoint x="141" y="406" as="sourcePoint" />
              <mxPoint x="149" y="512" as="targetPoint" />
            </mxGeometry>
          </mxCell>
        </UserObject>
        <UserObject label="" tags="forwarding" id="hCaf9_x39W0CY-DPdxUN-24">
          <mxCell style="edgeStyle=orthogonalEdgeStyle;rounded=0;jumpStyle=none;orthogonalLoop=1;jettySize=auto;html=1;exitX=0;exitY=0.35;exitDx=0;exitDy=0;exitPerimeter=0;entryX=0.993;entryY=0.136;entryDx=0;entryDy=0;entryPerimeter=0;strokeWidth=2;labelBackgroundColor=none;endArrow=none;fontSize=6;fontFamily=sans-serif;strokeColor=#000000;shadow=0;endFill=0;sketch=0;" parent="Haz_8EwUBin59iLyk_8Q-26" source="i2To6XwWsyNyerFe5G8K-12" target="Haz_8EwUBin59iLyk_8Q-40" edge="1">
            <mxGeometry relative="1" as="geometry">
              <Array as="points">
                <mxPoint x="343" y="266" />
                <mxPoint x="343" y="258" />
              </Array>
            </mxGeometry>
          </mxCell>
        </UserObject>
        <UserObject label="" tags="forwarding" id="hCaf9_x39W0CY-DPdxUN-17">
          <mxCell style="edgeStyle=orthogonalEdgeStyle;rounded=0;jumpStyle=none;orthogonalLoop=1;jettySize=auto;html=1;exitX=0;exitY=0.35;exitDx=0;exitDy=0;exitPerimeter=0;entryX=1;entryY=0.5;entryDx=0;entryDy=0;entryPerimeter=0;strokeWidth=2;labelBackgroundColor=none;endArrow=none;fontSize=6;fontFamily=sans-serif;strokeColor=#000000;sketch=0;shadow=0;endFill=0;" parent="Haz_8EwUBin59iLyk_8Q-26" source="i2To6XwWsyNyerFe5G8K-12" target="Haz_8EwUBin59iLyk_8Q-116" edge="1">
            <mxGeometry relative="1" as="geometry" />
          </mxCell>
        </UserObject>
        <UserObject label="" tags="simple forwarding pipeline" id="dX68U42Ih_FQ-UEPESkK-9">
          <mxCell style="edgeStyle=orthogonalEdgeStyle;rounded=0;jumpStyle=arc;orthogonalLoop=1;jettySize=auto;html=1;exitX=1;exitY=0.5;exitDx=0;exitDy=0;exitPerimeter=0;entryX=0;entryY=0.35;entryDx=0;entryDy=0;entryPerimeter=0;shadow=0;fontFamily=sans-serif;fontSize=6;strokeWidth=2;labelBackgroundColor=none;endFill=0;endArrow=none;sketch=0;startArrow=none;" parent="Haz_8EwUBin59iLyk_8Q-26" source="dX68U42Ih_FQ-UEPESkK-6" target="Haz_8EwUBin59iLyk_8Q-112" edge="1">
            <mxGeometry relative="1" as="geometry">
              <Array as="points">
                <mxPoint x="581" y="381" />
              </Array>
            </mxGeometry>
          </mxCell>
        </UserObject>
        <UserObject label="" tags="forwarding pipeline simple" id="dX68U42Ih_FQ-UEPESkK-3">
          <mxCell style="edgeStyle=orthogonalEdgeStyle;rounded=0;orthogonalLoop=1;jettySize=auto;html=1;shadow=0;fontFamily=sans-serif;fontSize=6;strokeWidth=2;labelBackgroundColor=none;endFill=0;endArrow=none;sketch=0;jumpStyle=none;exitX=1;exitY=0.5;exitDx=0;exitDy=0;entryX=0;entryY=0.5;entryDx=0;entryDy=0;" parent="Haz_8EwUBin59iLyk_8Q-26" source="dX68U42Ih_FQ-UEPESkK-11" target="hCaf9_x39W0CY-DPdxUN-22" edge="1">
            <mxGeometry relative="1" as="geometry">
              <mxPoint x="426" y="381" as="targetPoint" />
              <mxPoint x="112" y="386" as="sourcePoint" />
              <Array as="points">
                <mxPoint x="351" y="384" />
                <mxPoint x="351" y="384" />
              </Array>
            </mxGeometry>
          </mxCell>
        </UserObject>
        <UserObject label="" tags="forwarding simple pipeline" id="Zvq364hImIOJoiC3617Z-14">
          <mxCell style="edgeStyle=orthogonalEdgeStyle;rounded=0;sketch=0;jumpStyle=none;jumpSize=3;orthogonalLoop=1;jettySize=auto;shadow=0;endArrow=none;endFill=0;strokeColor=#000000;strokeWidth=2;fontSize=6;fontFamily=sans-serif;verticalAlign=middle;align=center;labelPosition=center;verticalLabelPosition=middle;labelBackgroundColor=none;html=1;exitX=1;exitY=0.5;exitDx=0;exitDy=0;exitPerimeter=0;jumpSize=4;entryX=0;entryY=0.35;entryDx=0;entryDy=0;entryPerimeter=0;" parent="Haz_8EwUBin59iLyk_8Q-26" source="Haz_8EwUBin59iLyk_8Q-222" target="nrxDrlzc4rpCp8ehld49-22" edge="1">
            <mxGeometry relative="1" as="geometry">
              <mxPoint x="466.66666666666663" y="365.5" as="sourcePoint" />
              <mxPoint x="506.1388888888889" y="368.25" as="targetPoint" />
              <Array as="points">
                <mxPoint x="448" y="368" />
                <mxPoint x="448" y="368" />
              </Array>
            </mxGeometry>
          </mxCell>
        </UserObject>
        <UserObject label="" tags="simple pipeline forwarding" id="HRoSpS79B9qHWH9jaoA8-7">
          <mxCell style="edgeStyle=orthogonalEdgeStyle;rounded=0;jumpStyle=none;jumpSize=4;orthogonalLoop=1;jettySize=auto;html=1;entryX=0;entryY=0.5;entryDx=0;entryDy=0;endArrow=none;endFill=0;shadow=0;fontFamily=sans-serif;fontSize=6;strokeWidth=2;labelBackgroundColor=none;sketch=0;exitX=0.5;exitY=1;exitDx=0;exitDy=0;" parent="Haz_8EwUBin59iLyk_8Q-26" source="hCaf9_x39W0CY-DPdxUN-13" target="Haz_8EwUBin59iLyk_8Q-211" edge="1">
            <mxGeometry relative="1" as="geometry">
              <mxPoint x="426" y="333" as="sourcePoint" />
              <Array as="points">
                <mxPoint x="366" y="343" />
                <mxPoint x="521" y="343" />
                <mxPoint x="521" y="316" />
              </Array>
            </mxGeometry>
          </mxCell>
        </UserObject>
        <object label="" tags="forwarding" id="Haz_8EwUBin59iLyk_8Q-31">
          <mxCell style="edgeStyle=orthogonalEdgeStyle;rounded=0;sketch=0;jumpStyle=none;jumpSize=4;orthogonalLoop=1;jettySize=auto;shadow=0;labelBackgroundColor=none;endArrow=none;endFill=0;strokeWidth=2;fontFamily=sans-serif;fontSize=6;exitX=0.5;exitY=1;exitDx=0;exitDy=0;entryX=1;entryY=0.5;entryDx=0;entryDy=0;" parent="Haz_8EwUBin59iLyk_8Q-26" source="hCaf9_x39W0CY-DPdxUN-12" target="q-6THzIC0rTZull3DPy9-3" edge="1">
            <mxGeometry relative="1" as="geometry">
              <mxPoint x="536" y="381" as="targetPoint" />
              <mxPoint x="383" y="335" as="sourcePoint" />
              <Array as="points">
                <mxPoint x="329" y="412" />
                <mxPoint x="525" y="412" />
                <mxPoint x="525" y="381" />
              </Array>
            </mxGeometry>
          </mxCell>
        </object>
        <object label="" tags="forwarding" id="Haz_8EwUBin59iLyk_8Q-32">
          <mxCell style="edgeStyle=orthogonalEdgeStyle;rounded=0;sketch=0;jumpStyle=none;jumpSize=4;orthogonalLoop=1;jettySize=auto;html=1;shadow=0;labelBackgroundColor=none;endArrow=none;endFill=0;strokeWidth=2;fontFamily=sans-serif;fontSize=6;entryX=0.5;entryY=1;entryDx=0;entryDy=0;exitX=0.5;exitY=0;exitDx=0;exitDy=0;" parent="Haz_8EwUBin59iLyk_8Q-26" source="q-6THzIC0rTZull3DPy9-4" target="hCaf9_x39W0CY-DPdxUN-10" edge="1">
            <mxGeometry relative="1" as="geometry">
              <mxPoint x="376" y="327" as="targetPoint" />
              <mxPoint x="322" y="531" as="sourcePoint" />
            </mxGeometry>
          </mxCell>
        </object>
        <UserObject label="" tags="pipeline simple forwarding" id="nrxDrlzc4rpCp8ehld49-7">
          <mxCell style="edgeStyle=orthogonalEdgeStyle;rounded=0;sketch=0;jumpStyle=none;jumpSize=4;orthogonalLoop=1;jettySize=auto;shadow=0;endArrow=none;endFill=0;strokeColor=#3333FF;strokeWidth=1;fontSize=6;fontFamily=sans-serif;verticalAlign=middle;align=center;labelPosition=center;verticalLabelPosition=middle;labelBackgroundColor=none;html=1;exitX=0.5;exitY=0.065;exitDx=0;exitDy=0;exitPerimeter=0;" parent="Haz_8EwUBin59iLyk_8Q-26" source="i2To6XwWsyNyerFe5G8K-12" target="Haz_8EwUBin59iLyk_8Q-85" edge="1">
            <mxGeometry relative="1" as="geometry">
              <mxPoint x="216.19999999999993" y="178.15000000000003" as="targetPoint" />
              <Array as="points">
                <mxPoint x="375" y="192" />
              </Array>
              <mxPoint x="367" y="244" as="sourcePoint" />
            </mxGeometry>
          </mxCell>
        </UserObject>
        <UserObject label="NONE" tags="pipeline forwarding" component="multi-text-value" source="memory-exception" id="kbNWJ5ZPAqXhiAnqFs6d-6">
          <mxCell style="text;strokeColor=none;align=center;verticalAlign=middle;rounded=1;fontSize=6;fontFamily=sans-serif;spacing=3;fontStyle=1;labelPosition=center;verticalLabelPosition=middle;labelBackgroundColor=none;spacingBottom=0;fillColor=#CCCCCC;spacingTop=7;" parent="Haz_8EwUBin59iLyk_8Q-26" vertex="1">
            <mxGeometry x="466" y="34" width="135" height="26" as="geometry" />
          </mxCell>
        </UserObject>
        <UserObject label="NONE" tags="pipeline forwarding" component="multi-text-value" source="execute-exception" id="dQApTKY7MUPNvbngPjsP-8">
          <mxCell style="text;strokeColor=none;align=center;verticalAlign=middle;rounded=1;fontSize=6;fontFamily=sans-serif;spacing=3;fontStyle=1;labelPosition=center;verticalLabelPosition=middle;labelBackgroundColor=none;spacingBottom=0;fillColor=#CCCCCC;spacingTop=7;" parent="Haz_8EwUBin59iLyk_8Q-26" vertex="1">
            <mxGeometry x="309" y="34" width="135" height="26" as="geometry" />
          </mxCell>
        </UserObject>
        <UserObject label="NONE" tags="pipeline forwarding" component="multi-text-value" source="decode-exception" id="kbNWJ5ZPAqXhiAnqFs6d-3">
          <mxCell style="text;strokeColor=none;align=center;verticalAlign=middle;rounded=1;fontSize=6;fontFamily=sans-serif;spacing=3;fontStyle=1;labelPosition=center;verticalLabelPosition=middle;labelBackgroundColor=none;spacingBottom=0;fillColor=#CCCCCC;spacingTop=7;" parent="Haz_8EwUBin59iLyk_8Q-26" vertex="1">
            <mxGeometry x="157" y="36" width="135" height="26" as="geometry" />
          </mxCell>
        </UserObject>
        <UserObject label="NONE" tags="simple pipeline forwarding" component="multi-text-value" source="fetch-exception" id="uWEq7-W_z53UrtFael4O-88">
          <mxCell style="text;strokeColor=none;align=center;verticalAlign=middle;rounded=1;fontSize=6;fontFamily=sans-serif;spacing=3;fontStyle=1;labelPosition=center;verticalLabelPosition=middle;labelBackgroundColor=none;spacingBottom=0;fillColor=#CCCCCC;spacingTop=7;" parent="Haz_8EwUBin59iLyk_8Q-26" vertex="1">
            <mxGeometry x="13" y="36" width="135" height="26" as="geometry" />
          </mxCell>
        </UserObject>
        <UserObject label="" tags="simple pipeline forwarding" id="Haz_8EwUBin59iLyk_8Q-30">
          <mxCell style="edgeStyle=orthogonalEdgeStyle;rounded=0;sketch=0;jumpStyle=arc;jumpSize=4;orthogonalLoop=1;jettySize=auto;shadow=0;endArrow=none;endFill=0;strokeColor=#3333FF;strokeWidth=1;fontSize=6;fontFamily=sans-serif;verticalAlign=middle;align=center;labelPosition=center;verticalLabelPosition=middle;labelBackgroundColor=none;html=1;exitX=0.5;exitY=0.17;exitDx=0;exitDy=0;exitPerimeter=0;entryX=1.002;entryY=0.733;entryDx=0;entryDy=0;entryPerimeter=0;" parent="Haz_8EwUBin59iLyk_8Q-26" source="Haz_8EwUBin59iLyk_8Q-180" target="Haz_8EwUBin59iLyk_8Q-85" edge="1">
            <mxGeometry x="451" y="255" as="geometry">
              <mxPoint x="216" y="145.5" as="targetPoint" />
              <Array as="points">
                <mxPoint x="424" y="277" />
                <mxPoint x="434" y="277" />
                <mxPoint x="434" y="168" />
                <mxPoint x="224" y="168" />
              </Array>
              <mxPoint x="463" y="269.62" as="sourcePoint" />
            </mxGeometry>
          </mxCell>
        </UserObject>
        <UserObject label="" tags="simple pipeline forwarding" id="Haz_8EwUBin59iLyk_8Q-36">
          <mxCell style="group;rounded=0;container=0;fontFamily=sans-serif;fontSize=6;verticalAlign=middle;align=center;labelPosition=center;verticalLabelPosition=middle;labelBackgroundColor=none;html=1;" parent="Haz_8EwUBin59iLyk_8Q-26" vertex="1" connectable="0">
            <mxGeometry x="1" width="752" height="540" as="geometry" />
          </mxCell>
        </UserObject>
        <UserObject label="" tags="simple pipeline forwarding" id="Haz_8EwUBin59iLyk_8Q-37">
          <mxCell style="edgeStyle=orthogonalEdgeStyle;jumpStyle=arc;jumpSize=4;orthogonalLoop=1;jettySize=auto;entryX=-0.003;entryY=0.503;entryDx=0;entryDy=0;endArrow=none;endFill=0;fontSize=6;strokeWidth=2;sketch=0;shadow=0;rounded=0;fontFamily=sans-serif;verticalAlign=middle;align=center;labelPosition=center;verticalLabelPosition=middle;labelBackgroundColor=none;html=1;exitX=1;exitY=0.5;exitDx=0;exitDy=0;entryPerimeter=0;" parent="Haz_8EwUBin59iLyk_8Q-26" source="dX68U42Ih_FQ-UEPESkK-13" target="uWEq7-W_z53UrtFael4O-36" edge="1">
            <mxGeometry relative="1" as="geometry">
              <mxPoint x="43" y="298" as="sourcePoint" />
            </mxGeometry>
          </mxCell>
        </UserObject>
        <UserObject label="" tags="simple pipeline forwarding" id="Haz_8EwUBin59iLyk_8Q-38">
          <mxCell style="edgeStyle=orthogonalEdgeStyle;rounded=0;sketch=0;jumpStyle=none;jumpSize=4;orthogonalLoop=1;jettySize=auto;shadow=0;endArrow=none;endFill=0;strokeColor=#000000;strokeWidth=2;fontSize=6;fontFamily=sans-serif;verticalAlign=middle;align=center;labelPosition=center;verticalLabelPosition=middle;labelBackgroundColor=none;html=1;entryX=0;entryY=0.5;entryDx=0;entryDy=0;exitX=1;exitY=0.5;exitDx=0;exitDy=0;exitPerimeter=0;" parent="Haz_8EwUBin59iLyk_8Q-26" source="dQApTKY7MUPNvbngPjsP-5" target="Haz_8EwUBin59iLyk_8Q-177" edge="1">
            <mxGeometry relative="1" as="geometry">
              <Array as="points" />
              <mxPoint x="47" y="276" as="targetPoint" />
              <mxPoint x="42" y="300" as="sourcePoint" />
            </mxGeometry>
          </mxCell>
        </UserObject>
        <UserObject label="" tags="pipeline forwarding" id="Haz_8EwUBin59iLyk_8Q-42">
          <mxCell style="edgeStyle=orthogonalEdgeStyle;rounded=0;sketch=0;jumpStyle=none;jumpSize=4;orthogonalLoop=1;jettySize=auto;shadow=0;endArrow=none;endFill=0;strokeWidth=1;fontSize=6;strokeColor=#3333FF;entryX=0.837;entryY=0.004;entryDx=0;entryDy=0;entryPerimeter=0;fontFamily=sans-serif;verticalAlign=middle;align=center;labelPosition=center;verticalLabelPosition=middle;labelBackgroundColor=none;html=1;exitX=0.999;exitY=0.086;exitDx=0;exitDy=0;exitPerimeter=0;" parent="Haz_8EwUBin59iLyk_8Q-26" source="Haz_8EwUBin59iLyk_8Q-85" target="Haz_8EwUBin59iLyk_8Q-40" edge="1">
            <mxGeometry relative="1" as="geometry">
              <mxPoint x="246" y="232" as="targetPoint" />
              <Array as="points">
                <mxPoint x="216" y="107" />
                <mxPoint x="216" y="104" />
                <mxPoint x="640" y="104" />
                <mxPoint x="640" y="68" />
                <mxPoint x="232" y="68" />
                <mxPoint x="232" y="247" />
              </Array>
              <mxPoint x="256" y="107" as="sourcePoint" />
            </mxGeometry>
          </mxCell>
        </UserObject>
        <UserObject label="" tags="simple pipeline forwarding" id="Haz_8EwUBin59iLyk_8Q-44">
          <mxCell style="edgeStyle=orthogonalEdgeStyle;rounded=0;sketch=0;jumpStyle=none;orthogonalLoop=1;jettySize=auto;shadow=0;endArrow=none;endFill=0;strokeColor=#000000;strokeWidth=2;fontSize=6;fontFamily=sans-serif;verticalAlign=middle;align=center;labelPosition=center;verticalLabelPosition=middle;labelBackgroundColor=none;html=1;exitX=1;exitY=0.5;exitDx=0;exitDy=0;entryX=0;entryY=0.2;entryDx=0;entryDy=0;entryPerimeter=0;" parent="Haz_8EwUBin59iLyk_8Q-26" source="Haz_8EwUBin59iLyk_8Q-45" target="Haz_8EwUBin59iLyk_8Q-222" edge="1">
            <mxGeometry relative="1" as="geometry">
              <mxPoint x="232" y="360" as="sourcePoint" />
              <mxPoint x="253.00000000000642" y="361.00000000000006" as="targetPoint" />
              <Array as="points">
                <mxPoint x="430" y="356" />
                <mxPoint x="430" y="359" />
              </Array>
            </mxGeometry>
          </mxCell>
        </UserObject>
        <UserObject label="Immediate&#xa;decode" tags="simple pipeline forwarding" id="Haz_8EwUBin59iLyk_8Q-45">
          <mxCell style="rounded=1;arcSize=8;fontSize=6;fontFamily=sans-serif;fontStyle=1;verticalAlign=middle;align=center;labelPosition=center;verticalLabelPosition=middle;labelBackgroundColor=none;fillColor=#d5e8d4;strokeColor=#000000;" parent="Haz_8EwUBin59iLyk_8Q-26" vertex="1">
            <mxGeometry x="204" y="344" width="47" height="24" as="geometry" />
          </mxCell>
        </UserObject>
        <UserObject label="" tags="simple pipeline forwarding" id="Haz_8EwUBin59iLyk_8Q-46">
          <mxCell style="edgeStyle=orthogonalEdgeStyle;rounded=0;sketch=0;jumpStyle=sharp;orthogonalLoop=1;jettySize=auto;exitX=1;exitY=0.25;exitDx=0;exitDy=0;entryX=0;entryY=0.65;entryDx=0;entryDy=0;entryPerimeter=0;shadow=0;endArrow=none;endFill=0;strokeColor=default;strokeWidth=2;fontSize=6;fontFamily=sans-serif;verticalAlign=middle;align=center;labelPosition=center;verticalLabelPosition=middle;labelBackgroundColor=none;html=1;" parent="Haz_8EwUBin59iLyk_8Q-26" source="Haz_8EwUBin59iLyk_8Q-211" target="Haz_8EwUBin59iLyk_8Q-112" edge="1">
            <mxGeometry relative="1" as="geometry">
              <Array as="points">
                <mxPoint x="622" y="296" />
                <mxPoint x="622" y="373" />
                <mxPoint x="636" y="373" />
              </Array>
              <mxPoint x="634.0958219216135" y="288.0596813421849" as="targetPoint" />
            </mxGeometry>
          </mxCell>
        </UserObject>
        <UserObject label="" tags="simple pipeline forwarding" id="Haz_8EwUBin59iLyk_8Q-47">
          <mxCell style="edgeStyle=orthogonalEdgeStyle;rounded=0;sketch=0;jumpStyle=none;jumpSize=4;orthogonalLoop=1;jettySize=auto;entryX=0.999;entryY=0.362;entryDx=0;entryDy=0;entryPerimeter=0;shadow=0;endArrow=none;endFill=0;strokeColor=#3333FF;strokeWidth=1;fontSize=6;fontFamily=sans-serif;verticalAlign=middle;align=center;labelPosition=center;verticalLabelPosition=middle;labelBackgroundColor=none;html=1;exitX=0;exitY=0.5;exitDx=0;exitDy=0;" parent="Haz_8EwUBin59iLyk_8Q-26" source="q-6THzIC0rTZull3DPy9-11" target="Haz_8EwUBin59iLyk_8Q-85" edge="1">
            <mxGeometry relative="1" as="geometry">
              <mxPoint x="527.25" y="136" as="sourcePoint" />
              <Array as="points">
                <mxPoint x="216" y="136" />
              </Array>
            </mxGeometry>
          </mxCell>
        </UserObject>
        <UserObject label="" tags="simple pipeline forwarding" id="Haz_8EwUBin59iLyk_8Q-48">
          <mxCell style="edgeStyle=orthogonalEdgeStyle;rounded=0;sketch=0;jumpStyle=none;jumpSize=4;orthogonalLoop=1;jettySize=auto;exitX=0.934;exitY=0.001;exitDx=0;exitDy=0;shadow=0;endArrow=none;endFill=0;strokeColor=#3333FF;strokeWidth=1;fontSize=6;exitPerimeter=0;fontFamily=sans-serif;verticalAlign=middle;align=center;labelPosition=center;verticalLabelPosition=middle;labelBackgroundColor=none;html=1;" parent="Haz_8EwUBin59iLyk_8Q-26" source="uWEq7-W_z53UrtFael4O-37" target="Haz_8EwUBin59iLyk_8Q-85" edge="1">
            <mxGeometry relative="1" as="geometry">
              <Array as="points">
                <mxPoint x="585" y="120" />
              </Array>
              <mxPoint x="607.04" y="276.08000000000004" as="sourcePoint" />
              <mxPoint x="223.20000000000005" y="125.46000000000004" as="targetPoint" />
            </mxGeometry>
          </mxCell>
        </UserObject>
        <UserObject label="" tags="simple pipeline forwarding" id="Haz_8EwUBin59iLyk_8Q-49">
          <mxCell style="edgeStyle=orthogonalEdgeStyle;rounded=0;sketch=0;jumpStyle=none;jumpSize=4;orthogonalLoop=1;jettySize=auto;exitX=0.5;exitY=0.065;exitDx=0;exitDy=0;entryX=0.999;entryY=0.175;entryDx=0;entryDy=0;entryPerimeter=0;shadow=0;endArrow=none;endFill=0;strokeColor=#3333FF;strokeWidth=1;fontSize=6;fontFamily=sans-serif;verticalAlign=middle;align=center;labelPosition=center;verticalLabelPosition=middle;labelBackgroundColor=none;html=1;exitPerimeter=0;" parent="Haz_8EwUBin59iLyk_8Q-26" source="Haz_8EwUBin59iLyk_8Q-112" target="Haz_8EwUBin59iLyk_8Q-85" edge="1">
            <mxGeometry relative="1" as="geometry">
              <Array as="points">
                <mxPoint x="640" y="131" />
                <mxPoint x="640" y="112" />
                <mxPoint x="216" y="112" />
                <mxPoint x="216" y="116" />
              </Array>
              <mxPoint x="660.1366906474822" y="273.28720035554574" as="sourcePoint" />
            </mxGeometry>
          </mxCell>
        </UserObject>
        <UserObject label="" tags="simple pipeline forwarding" id="Haz_8EwUBin59iLyk_8Q-51">
          <mxCell style="edgeStyle=orthogonalEdgeStyle;rounded=0;sketch=0;jumpStyle=none;orthogonalLoop=1;jettySize=auto;shadow=0;endArrow=none;endFill=0;strokeColor=#000000;strokeWidth=2;fontSize=6;fontFamily=sans-serif;verticalAlign=middle;align=center;labelPosition=center;verticalLabelPosition=middle;labelBackgroundColor=none;html=1;exitX=1;exitY=0.5;exitDx=0;exitDy=0;exitPerimeter=0;entryX=0;entryY=0.5;entryDx=0;entryDy=0;" parent="Haz_8EwUBin59iLyk_8Q-26" source="Haz_8EwUBin59iLyk_8Q-180" target="Haz_8EwUBin59iLyk_8Q-56" edge="1">
            <mxGeometry relative="1" as="geometry">
              <mxPoint x="474" y="296" as="sourcePoint" />
              <mxPoint x="480" y="307" as="targetPoint" />
            </mxGeometry>
          </mxCell>
        </UserObject>
        <UserObject label="" tags="simple pipeline forwarding" id="Haz_8EwUBin59iLyk_8Q-52">
          <mxCell style="edgeStyle=orthogonalEdgeStyle;rounded=0;sketch=0;jumpStyle=sharp;orthogonalLoop=1;jettySize=auto;shadow=0;endArrow=none;endFill=0;strokeColor=#3333FF;strokeWidth=1;fontFamily=sans-serif;fontSize=6;verticalAlign=middle;align=center;labelPosition=center;verticalLabelPosition=middle;labelBackgroundColor=none;html=1;exitX=1;exitY=0.4;exitDx=0;exitDy=0;exitPerimeter=0;entryX=0;entryY=0.75;entryDx=0;entryDy=0;entryPerimeter=0;" parent="Haz_8EwUBin59iLyk_8Q-26" source="Haz_8EwUBin59iLyk_8Q-180" target="nrxDrlzc4rpCp8ehld49-40" edge="1">
            <mxGeometry relative="1" as="geometry">
              <Array as="points">
                <mxPoint x="438" y="284" />
                <mxPoint x="468" y="284" />
                <mxPoint x="468" y="169" />
              </Array>
              <mxPoint x="474" y="284" as="sourcePoint" />
              <mxPoint x="507" y="209" as="targetPoint" />
            </mxGeometry>
          </mxCell>
        </UserObject>
        <UserObject label="" tags="simple pipeline forwarding" id="Haz_8EwUBin59iLyk_8Q-55">
          <mxCell style="edgeStyle=orthogonalEdgeStyle;rounded=0;sketch=0;jumpStyle=none;orthogonalLoop=1;jettySize=auto;exitX=1;exitY=0.5;exitDx=0;exitDy=0;entryX=0.009;entryY=0.371;entryDx=0;entryDy=0;shadow=0;endArrow=none;endFill=0;strokeColor=#000000;strokeWidth=2;fontSize=6;fontFamily=sans-serif;verticalAlign=middle;align=center;labelPosition=center;verticalLabelPosition=middle;labelBackgroundColor=none;html=1;entryPerimeter=0;startArrow=none;" parent="Haz_8EwUBin59iLyk_8Q-26" source="kLYEyaSkJVZjgnE96DWi-3" edge="1">
            <mxGeometry relative="1" as="geometry">
              <Array as="points">
                <mxPoint x="502" y="295" />
                <mxPoint x="502" y="295" />
              </Array>
              <mxPoint x="483.9999999999918" y="294.49999999999994" as="sourcePoint" />
              <mxPoint x="535.5400000000001" y="294.54999999999995" as="targetPoint" />
            </mxGeometry>
          </mxCell>
        </UserObject>
        <UserObject label="" tags="forwarding simple pipeline" id="MQ-_pNAwyqKnrvp0fqe7-3">
          <mxCell style="edgeStyle=orthogonalEdgeStyle;rounded=0;jumpStyle=none;orthogonalLoop=1;jettySize=auto;html=1;entryX=0;entryY=0.65;entryDx=0;entryDy=0;entryPerimeter=0;fontColor=#0000FF;endArrow=none;endFill=0;strokeWidth=2;exitX=0.5;exitY=1;exitDx=0;exitDy=0;" parent="Haz_8EwUBin59iLyk_8Q-26" source="Haz_8EwUBin59iLyk_8Q-56" target="nrxDrlzc4rpCp8ehld49-22" edge="1">
            <mxGeometry relative="1" as="geometry">
              <mxPoint x="495" y="291.9999999999999" as="sourcePoint" />
              <mxPoint x="499.1388888888889" y="356.75" as="targetPoint" />
              <Array as="points">
                <mxPoint x="469" y="360" />
                <mxPoint x="476" y="360" />
              </Array>
            </mxGeometry>
          </mxCell>
        </UserObject>
        <UserObject label="" tags="simple pipeline forwarding" id="Haz_8EwUBin59iLyk_8Q-56">
          <mxCell style="ellipse;whiteSpace=wrap;aspect=fixed;rounded=0;fontSize=12;align=center;fillColor=#0;fontFamily=Helvetica;verticalAlign=middle;labelPosition=center;verticalLabelPosition=middle;labelBackgroundColor=none;html=1;strokeWidth=2;" parent="Haz_8EwUBin59iLyk_8Q-26" vertex="1">
            <mxGeometry x="468" y="294" width="2" height="2" as="geometry" />
          </mxCell>
        </UserObject>
        <UserObject label="" tags="simple pipeline forwarding" id="Haz_8EwUBin59iLyk_8Q-57">
          <mxCell style="edgeStyle=orthogonalEdgeStyle;rounded=0;sketch=0;jumpStyle=none;orthogonalLoop=1;jettySize=auto;shadow=0;endArrow=none;endFill=0;strokeColor=#000000;strokeWidth=2;fontSize=6;fontFamily=sans-serif;verticalAlign=middle;align=center;labelPosition=center;verticalLabelPosition=middle;labelBackgroundColor=none;html=1;entryX=0;entryY=0.5;entryDx=0;entryDy=0;exitX=1;exitY=0.5;exitDx=0;exitDy=0;startArrow=none;" parent="Haz_8EwUBin59iLyk_8Q-26" edge="1">
            <mxGeometry relative="1" as="geometry">
              <mxPoint x="406" y="357" as="targetPoint" />
              <mxPoint x="415" y="355.5" as="sourcePoint" />
              <Array as="points">
                <mxPoint x="406" y="356" />
              </Array>
            </mxGeometry>
          </mxCell>
        </UserObject>
        <UserObject label="" tags="simple pipeline forwarding" id="Haz_8EwUBin59iLyk_8Q-62">
          <mxCell style="edgeStyle=orthogonalEdgeStyle;rounded=0;sketch=0;jumpStyle=none;jumpSize=4;orthogonalLoop=1;jettySize=auto;entryX=0;entryY=0.5;entryDx=0;entryDy=0;shadow=0;endArrow=none;endFill=0;strokeColor=#000000;strokeWidth=2;fontSize=6;fontFamily=sans-serif;verticalAlign=middle;align=center;labelPosition=center;verticalLabelPosition=middle;labelBackgroundColor=none;html=1;exitX=1;exitY=0.5;exitDx=0;exitDy=0;" parent="Haz_8EwUBin59iLyk_8Q-26" source="hCaf9_x39W0CY-DPdxUN-5" target="Haz_8EwUBin59iLyk_8Q-45" edge="1">
            <mxGeometry relative="1" as="geometry">
              <mxPoint x="161" y="361" as="sourcePoint" />
              <Array as="points">
                <mxPoint x="172" y="356" />
                <mxPoint x="172" y="356" />
              </Array>
              <mxPoint x="204" y="360" as="targetPoint" />
            </mxGeometry>
          </mxCell>
        </UserObject>
        <UserObject label="" tags="simple pipeline forwarding" id="Haz_8EwUBin59iLyk_8Q-65">
          <mxCell style="edgeStyle=orthogonalEdgeStyle;rounded=0;sketch=0;jumpStyle=none;orthogonalLoop=1;jettySize=auto;shadow=0;endArrow=none;endFill=0;strokeColor=#000000;strokeWidth=2;fontSize=6;fontFamily=sans-serif;verticalAlign=middle;align=center;labelPosition=center;verticalLabelPosition=middle;labelBackgroundColor=none;html=1;exitX=0.5;exitY=1;exitDx=0;exitDy=0;entryX=0.5;entryY=0;entryDx=0;entryDy=0;" parent="Haz_8EwUBin59iLyk_8Q-26" target="hCaf9_x39W0CY-DPdxUN-5" edge="1">
            <mxGeometry relative="1" as="geometry">
              <mxPoint x="165" y="292.00000000000006" as="sourcePoint" />
              <mxPoint x="165" y="372.8512396694215" as="targetPoint" />
              <Array as="points" />
            </mxGeometry>
          </mxCell>
        </UserObject>
        <UserObject label="" tags="simple pipeline forwarding" id="Haz_8EwUBin59iLyk_8Q-66">
          <mxCell style="edgeStyle=orthogonalEdgeStyle;rounded=0;sketch=0;jumpStyle=sharp;orthogonalLoop=1;jettySize=auto;shadow=0;endArrow=none;endFill=0;strokeColor=#000000;strokeWidth=1;fontSize=6;fontFamily=sans-serif;verticalAlign=middle;align=center;labelPosition=center;verticalLabelPosition=middle;labelBackgroundColor=none;html=1;exitX=1;exitY=0.5;exitDx=0;exitDy=0;entryX=0.012;entryY=0.414;entryDx=0;entryDy=0;entryPerimeter=0;" parent="Haz_8EwUBin59iLyk_8Q-26" source="hCaf9_x39W0CY-DPdxUN-1" target="Haz_8EwUBin59iLyk_8Q-40" edge="1">
            <mxGeometry relative="1" as="geometry">
              <mxPoint x="176" y="288" as="sourcePoint" />
              <mxPoint x="203" y="290" as="targetPoint" />
              <Array as="points">
                <mxPoint x="204" y="291" />
              </Array>
            </mxGeometry>
          </mxCell>
        </UserObject>
        <UserObject label="" tags="simple pipeline forwarding" id="Haz_8EwUBin59iLyk_8Q-70">
          <mxCell style="edgeStyle=orthogonalEdgeStyle;rounded=0;sketch=0;jumpStyle=none;orthogonalLoop=1;jettySize=auto;exitX=0;exitY=0.5;exitDx=0;exitDy=0;entryX=0.995;entryY=0.401;entryDx=0;entryDy=0;entryPerimeter=0;shadow=0;endArrow=none;endFill=0;strokeColor=#000000;strokeWidth=2;fontSize=6;fontFamily=sans-serif;verticalAlign=middle;align=center;labelPosition=center;verticalLabelPosition=middle;labelBackgroundColor=none;html=1;" parent="Haz_8EwUBin59iLyk_8Q-26" source="hCaf9_x39W0CY-DPdxUN-0" target="uWEq7-W_z53UrtFael4O-36" edge="1">
            <mxGeometry relative="1" as="geometry">
              <Array as="points">
                <mxPoint x="154" y="276" />
              </Array>
            </mxGeometry>
          </mxCell>
        </UserObject>
        <UserObject label="" tags="simple pipeline forwarding" id="Haz_8EwUBin59iLyk_8Q-72">
          <mxCell style="edgeStyle=orthogonalEdgeStyle;rounded=0;sketch=0;jumpStyle=sharp;orthogonalLoop=1;jettySize=auto;entryX=-0.002;entryY=0.202;entryDx=0;entryDy=0;entryPerimeter=0;shadow=0;endArrow=none;endFill=0;strokeColor=#000000;strokeWidth=1;fontSize=6;fontFamily=sans-serif;verticalAlign=middle;align=center;labelPosition=center;verticalLabelPosition=middle;labelBackgroundColor=none;html=1;exitX=1;exitY=0.5;exitDx=0;exitDy=0;" parent="Haz_8EwUBin59iLyk_8Q-26" source="hCaf9_x39W0CY-DPdxUN-0" target="Haz_8EwUBin59iLyk_8Q-40" edge="1">
            <mxGeometry relative="1" as="geometry">
              <mxPoint x="176" y="268" as="sourcePoint" />
              <Array as="points">
                <mxPoint x="204" y="276" />
              </Array>
            </mxGeometry>
          </mxCell>
        </UserObject>
        <UserObject label="" tags="simple pipeline forwarding" id="Haz_8EwUBin59iLyk_8Q-77">
          <mxCell style="edgeStyle=orthogonalEdgeStyle;rounded=0;sketch=0;jumpStyle=none;jumpSize=4;orthogonalLoop=1;jettySize=auto;entryX=0;entryY=0.35;entryDx=0;entryDy=0;entryPerimeter=0;shadow=0;endArrow=none;endFill=0;strokeColor=#000000;strokeWidth=2;fontSize=6;fontFamily=sans-serif;verticalAlign=middle;align=center;labelPosition=center;verticalLabelPosition=middle;labelBackgroundColor=none;html=1;exitX=0;exitY=0.5;exitDx=0;exitDy=0;" parent="Haz_8EwUBin59iLyk_8Q-26" source="dX68U42Ih_FQ-UEPESkK-11" target="dQApTKY7MUPNvbngPjsP-5" edge="1">
            <mxGeometry relative="1" as="geometry">
              <Array as="points">
                <mxPoint x="46" y="384" />
                <mxPoint x="46" y="284" />
              </Array>
              <mxPoint x="6.5488888888888965" y="426.75000000000006" as="targetPoint" />
              <mxPoint x="115.00000000000344" y="410" as="sourcePoint" />
            </mxGeometry>
          </mxCell>
        </UserObject>
        <UserObject label="" tags="simple pipeline forwarding" id="Haz_8EwUBin59iLyk_8Q-78">
          <mxCell style="edgeStyle=orthogonalEdgeStyle;rounded=0;sketch=0;jumpStyle=none;jumpSize=4;orthogonalLoop=1;jettySize=auto;html=1;shadow=0;labelBackgroundColor=none;endArrow=none;endFill=0;strokeWidth=2;fontFamily=sans-serif;fontSize=6;entryX=0;entryY=0.8;entryDx=0;entryDy=0;entryPerimeter=0;exitX=0.5;exitY=1;exitDx=0;exitDy=0;fontStyle=2" parent="Haz_8EwUBin59iLyk_8Q-26" source="dX68U42Ih_FQ-UEPESkK-10" target="Haz_8EwUBin59iLyk_8Q-222" edge="1">
            <mxGeometry relative="1" as="geometry">
              <mxPoint x="303" y="474" as="targetPoint" />
              <mxPoint x="36" y="371" as="sourcePoint" />
              <Array as="points">
                <mxPoint x="85" y="376" />
                <mxPoint x="87" y="376" />
              </Array>
            </mxGeometry>
          </mxCell>
        </UserObject>
        <UserObject label="" tags="forwarding simple pipeline" id="nrxDrlzc4rpCp8ehld49-4">
          <mxCell style="edgeStyle=orthogonalEdgeStyle;rounded=0;jumpStyle=none;jumpSize=4;orthogonalLoop=1;jettySize=auto;html=1;entryX=0;entryY=0.2;entryDx=0;entryDy=0;entryPerimeter=0;shadow=0;fontFamily=sans-serif;fontSize=6;strokeWidth=2;labelBackgroundColor=none;endFill=0;endArrow=none;sketch=0;exitX=1;exitY=0.5;exitDx=0;exitDy=0;" parent="Haz_8EwUBin59iLyk_8Q-26" source="dX68U42Ih_FQ-UEPESkK-10" target="Haz_8EwUBin59iLyk_8Q-219" edge="1">
            <mxGeometry relative="1" as="geometry">
              <mxPoint x="94" y="367" as="sourcePoint" />
            </mxGeometry>
          </mxCell>
        </UserObject>
        <UserObject label="00" tags="simple pipeline forwarding" component="reg-id-value" source="rs1" id="Haz_8EwUBin59iLyk_8Q-101">
          <mxCell style="rounded=1;fontFamily=sans-serif;fontSize=6;arcSize=1;spacing=0;" parent="Haz_8EwUBin59iLyk_8Q-26" vertex="1">
            <mxGeometry x="189" y="272" width="11" height="8" as="geometry" />
          </mxCell>
        </UserObject>
        <UserObject label="00" tags="simple pipeline forwarding" component="reg-id-value" source="rs2" id="Haz_8EwUBin59iLyk_8Q-102">
          <mxCell style="rounded=1;fontFamily=sans-serif;fontSize=6;arcSize=1;spacing=0;" parent="Haz_8EwUBin59iLyk_8Q-26" vertex="1">
            <mxGeometry x="189" y="287" width="11" height="8" as="geometry" />
          </mxCell>
        </UserObject>
        <UserObject label="rs1" tags="simple pipeline forwarding" id="Haz_8EwUBin59iLyk_8Q-103">
          <mxCell style="text;strokeColor=none;fillColor=default;align=center;verticalAlign=middle;rounded=0;fontSize=6;fontFamily=sans-serif;spacing=0;fontStyle=1;labelPosition=center;verticalLabelPosition=middle;labelBackgroundColor=none;spacingBottom=1;" parent="Haz_8EwUBin59iLyk_8Q-26" vertex="1">
            <mxGeometry x="174" y="272" width="12" height="8" as="geometry" />
          </mxCell>
        </UserObject>
        <UserObject label="00000000" tags="simple pipeline forwarding" component="reg-value" source="mem-write-addr" id="Haz_8EwUBin59iLyk_8Q-106">
          <mxCell style="rounded=1;fontFamily=sans-serif;fontSize=6;arcSize=1;align=center;direction=south;spacing=0;horizontal=0;" parent="Haz_8EwUBin59iLyk_8Q-26" vertex="1">
            <mxGeometry x="516" y="273" width="8" height="34" as="geometry" />
          </mxCell>
        </UserObject>
        <UserObject label="" tags="forwarding" id="Haz_8EwUBin59iLyk_8Q-107">
          <mxCell style="edgeStyle=none;rounded=0;sketch=0;jumpStyle=none;orthogonalLoop=1;jettySize=auto;html=1;exitX=1;exitY=0.5;exitDx=0;exitDy=0;exitPerimeter=0;shadow=0;labelBackgroundColor=none;endArrow=none;endFill=0;strokeWidth=2;fontFamily=sans-serif;fontSize=6;entryX=0;entryY=0.5;entryDx=0;entryDy=0;" parent="Haz_8EwUBin59iLyk_8Q-26" source="Haz_8EwUBin59iLyk_8Q-199" target="hCaf9_x39W0CY-DPdxUN-13" edge="1">
            <mxGeometry relative="1" as="geometry">
              <mxPoint x="424" y="321" as="targetPoint" />
            </mxGeometry>
          </mxCell>
        </UserObject>
        <UserObject label="" tags="simple pipeline forwarding" id="Haz_8EwUBin59iLyk_8Q-109">
          <mxCell style="rounded=0;orthogonalLoop=1;jettySize=auto;html=1;exitX=1;exitY=0.5;exitDx=0;exitDy=0;exitPerimeter=0;entryX=0.012;entryY=0.841;entryDx=0;entryDy=0;entryPerimeter=0;fontFamily=sans-serif;fontSize=6;fontColor=#000000;shadow=0;strokeWidth=3;labelBackgroundColor=none;endFill=0;endArrow=none;sketch=0;elbow=vertical;" parent="Haz_8EwUBin59iLyk_8Q-26" source="Haz_8EwUBin59iLyk_8Q-113" target="Haz_8EwUBin59iLyk_8Q-180" edge="1">
            <mxGeometry relative="1" as="geometry">
              <mxPoint x="417.3611111111111" y="323.5" as="sourcePoint" />
            </mxGeometry>
          </mxCell>
        </UserObject>
        <UserObject label="" tags="simple pipeline forwarding" component="mux2" source="wb-MemToReg" id="Haz_8EwUBin59iLyk_8Q-112">
          <mxCell style="shape=stencil(3VXBUoMwEP2aHHUgEVuODtpbj854TWErsTRhANv6924SaBuRtBM9OM4whH2bfdlsXhbCsrbkNRAaSb4Fwh4JpcvnF7QpfuFQWiyNrLm3Jkusydsa8s5ia3GAwsJt16gN7EXR9eFCltCITnvZE4kecI5+WJYrKZFBKNk6njM/knEhMTY6WLI+lY/euh2SIXQRzHEfwBF/4QhJYwg6kkQhmYxp0qmisAyRqaqzbMXzzWuj3mXx7eI11yc6cgzuSkh4U0KiZQaTzAp2UPn2NERv1Q4mT+gaAr38iYC5NYm9db2KYhZA4W4jDdiHy5D8OAf/dTnKrFItXJy1FlVlL7tHsYiPdGPQCbEhrWrAo8Lz9oIt6dRm5v6ro6uS8xoN/TYRdhFv1AXNu6q9oW6tY39XmJDdzCG5+wsH9hvVSOb/pRoGHanUoPZ/aoBP);rounded=1;fontSize=7;align=right;spacingRight=0;spacingBottom=0;fontStyle=1;spacing=0;arcSize=19;flipV=1;fillColor=#d5e8d4;strokeColor=#000000;" parent="Haz_8EwUBin59iLyk_8Q-26" vertex="1">
            <mxGeometry x="631" y="364.5" width="19" height="25" as="geometry" />
          </mxCell>
        </UserObject>
        <UserObject label="" tags="simple pipeline forwarding" source="exec-AluSrc" component="mux2" id="Haz_8EwUBin59iLyk_8Q-113">
          <mxCell style="shape=stencil(3VXBUoMwEP2aHHUgEVuODtpbj854TWErsTRhANv6924SaBuRtBM9OM4whH2bfdlsXhbCsrbkNRAaSb4Fwh4JpcvnF7QpfuFQWiyNrLm3Jkusydsa8s5ia3GAwsJt16gN7EXR9eFCltCITnvZE4kecI5+WJYrKZFBKNk6njM/knEhMTY6WLI+lY/euh2SIXQRzHEfwBF/4QhJYwg6kkQhmYxp0qmisAyRqaqzbMXzzWuj3mXx7eI11yc6cgzuSkh4U0KiZQaTzAp2UPn2NERv1Q4mT+gaAr38iYC5NYm9db2KYhZA4W4jDdiHy5D8OAf/dTnKrFItXJy1FlVlL7tHsYiPdGPQCbEhrWrAo8Lz9oIt6dRm5v6ro6uS8xoN/TYRdhFv1AXNu6q9oW6tY39XmJDdzCG5+wsH9hvVSOb/pRoGHanUoPZ/aoBP);rounded=1;fontSize=7;align=right;spacingRight=0;spacingBottom=0;fontStyle=1;spacing=0;arcSize=19;fillColor=#d5e8d4;strokeColor=#000000;" parent="Haz_8EwUBin59iLyk_8Q-26" vertex="1">
            <mxGeometry x="376" y="312" width="19" height="25" as="geometry" />
          </mxCell>
        </UserObject>
        <UserObject label="" tags="forwarding" id="Haz_8EwUBin59iLyk_8Q-144">
          <mxCell style="edgeStyle=orthogonalEdgeStyle;rounded=0;sketch=0;jumpStyle=none;jumpSize=4;orthogonalLoop=1;jettySize=auto;html=1;entryX=0;entryY=0.5;entryDx=0;entryDy=0;entryPerimeter=0;shadow=0;labelBackgroundColor=none;endArrow=none;endFill=0;strokeWidth=2;fontFamily=sans-serif;fontSize=6;exitX=0.5;exitY=0;exitDx=0;exitDy=0;" parent="Haz_8EwUBin59iLyk_8Q-26" source="hCaf9_x39W0CY-DPdxUN-10" target="Haz_8EwUBin59iLyk_8Q-116" edge="1">
            <mxGeometry relative="1" as="geometry">
              <mxPoint x="376" y="318" as="sourcePoint" />
              <Array as="points">
                <mxPoint x="322" y="266" />
              </Array>
            </mxGeometry>
          </mxCell>
        </UserObject>
        <UserObject label="" tags="forwarding" id="Haz_8EwUBin59iLyk_8Q-146">
          <mxCell style="edgeStyle=orthogonalEdgeStyle;rounded=0;sketch=0;jumpStyle=none;orthogonalLoop=1;jettySize=auto;html=1;entryX=0;entryY=0.75;entryDx=0;entryDy=0;entryPerimeter=0;shadow=0;labelBackgroundColor=none;endArrow=none;endFill=0;strokeWidth=2;fontFamily=sans-serif;fontSize=6;exitX=1;exitY=0.5;exitDx=0;exitDy=0;" parent="Haz_8EwUBin59iLyk_8Q-26" source="hCaf9_x39W0CY-DPdxUN-12" target="Haz_8EwUBin59iLyk_8Q-199" edge="1">
            <mxGeometry relative="1" as="geometry">
              <mxPoint x="390" y="329" as="sourcePoint" />
            </mxGeometry>
          </mxCell>
        </UserObject>
        <UserObject label="" tags="forwarding" id="Haz_8EwUBin59iLyk_8Q-147">
          <mxCell style="edgeStyle=orthogonalEdgeStyle;rounded=0;sketch=0;jumpStyle=none;jumpSize=4;orthogonalLoop=1;jettySize=auto;html=1;entryX=0;entryY=0.75;entryDx=0;entryDy=0;entryPerimeter=0;shadow=0;labelBackgroundColor=none;endArrow=none;endFill=0;strokeWidth=2;fontFamily=sans-serif;fontSize=6;exitX=0.5;exitY=0;exitDx=0;exitDy=0;" parent="Haz_8EwUBin59iLyk_8Q-26" source="hCaf9_x39W0CY-DPdxUN-12" target="Haz_8EwUBin59iLyk_8Q-116" edge="1">
            <mxGeometry relative="1" as="geometry">
              <Array as="points">
                <mxPoint x="329" y="275" />
              </Array>
              <mxPoint x="361" y="328" as="sourcePoint" />
              <mxPoint x="402.2777777777777" y="274.5" as="targetPoint" />
            </mxGeometry>
          </mxCell>
        </UserObject>
        <UserObject label="" tags="simple pipeline forwarding" id="Haz_8EwUBin59iLyk_8Q-149">
          <mxCell style="edgeStyle=orthogonalEdgeStyle;rounded=0;sketch=0;jumpStyle=none;orthogonalLoop=1;jettySize=auto;html=1;entryX=1;entryY=0.5;entryDx=0;entryDy=0;entryPerimeter=0;shadow=0;labelBackgroundColor=none;endArrow=none;endFill=0;strokeWidth=2;fontFamily=sans-serif;fontSize=6;exitX=0.002;exitY=0.891;exitDx=0;exitDy=0;exitPerimeter=0;" parent="Haz_8EwUBin59iLyk_8Q-26" source="Haz_8EwUBin59iLyk_8Q-40" target="Haz_8EwUBin59iLyk_8Q-112" edge="1">
            <mxGeometry relative="1" as="geometry">
              <mxPoint x="378" y="527" as="sourcePoint" />
              <mxPoint x="666.3611111111111" y="374" as="targetPoint" />
              <Array as="points">
                <mxPoint x="189" y="316" />
                <mxPoint x="189" y="430" />
                <mxPoint x="655" y="430" />
                <mxPoint x="655" y="377" />
              </Array>
            </mxGeometry>
          </mxCell>
        </UserObject>
        <UserObject label="" tags="forwarding" id="Haz_8EwUBin59iLyk_8Q-151">
          <mxCell style="edgeStyle=orthogonalEdgeStyle;rounded=0;sketch=0;jumpStyle=none;jumpSize=4;orthogonalLoop=1;jettySize=auto;html=1;exitX=1;exitY=0.5;exitDx=0;exitDy=0;exitPerimeter=0;shadow=0;labelBackgroundColor=none;endArrow=none;endFill=0;strokeWidth=2;fontFamily=sans-serif;fontSize=6;jumpSize=4;entryX=1.017;entryY=0.856;entryDx=0;entryDy=0;entryPerimeter=0;strokeColor=#000000;" parent="Haz_8EwUBin59iLyk_8Q-26" source="Haz_8EwUBin59iLyk_8Q-199" target="Haz_8EwUBin59iLyk_8Q-40" edge="1">
            <mxGeometry relative="1" as="geometry">
              <Array as="points">
                <mxPoint x="344" y="314" />
              </Array>
              <mxPoint x="234" y="315" as="targetPoint" />
            </mxGeometry>
          </mxCell>
        </UserObject>
        <UserObject label="" tags="forwarding" id="Haz_8EwUBin59iLyk_8Q-152">
          <mxCell style="edgeStyle=orthogonalEdgeStyle;rounded=0;sketch=0;jumpStyle=none;jumpSize=4;orthogonalLoop=1;jettySize=auto;html=1;entryX=0;entryY=0.5;entryDx=0;entryDy=0;entryPerimeter=0;shadow=0;labelBackgroundColor=none;endArrow=none;endFill=0;strokeWidth=2;fontFamily=sans-serif;fontSize=6;jumpSize=4;exitX=1;exitY=0.5;exitDx=0;exitDy=0;" parent="Haz_8EwUBin59iLyk_8Q-26" source="hCaf9_x39W0CY-DPdxUN-10" edge="1">
            <mxGeometry relative="1" as="geometry">
              <mxPoint x="324.9999999999943" y="321" as="sourcePoint" />
              <mxPoint x="369.2777777777778" y="321" as="targetPoint" />
              <Array as="points">
                <mxPoint x="334" y="321" />
                <mxPoint x="334" y="321" />
              </Array>
            </mxGeometry>
          </mxCell>
        </UserObject>
        <UserObject label="00000000" tags="simple pipeline forwarding" component="reg-value" source="wb" id="Haz_8EwUBin59iLyk_8Q-157">
          <mxCell style="rounded=1;fontFamily=sans-serif;fontSize=6;arcSize=1;align=center;direction=east;spacing=0;horizontal=1;" parent="Haz_8EwUBin59iLyk_8Q-26" vertex="1">
            <mxGeometry x="616" y="426" width="34.5" height="7.5" as="geometry" />
          </mxCell>
        </UserObject>
        <UserObject label="" tags="simple pipeline forwarding" id="Haz_8EwUBin59iLyk_8Q-176">
          <mxCell style="group" parent="Haz_8EwUBin59iLyk_8Q-26" vertex="1" connectable="0">
            <mxGeometry x="73" y="271" width="6" height="20" as="geometry" />
          </mxCell>
        </UserObject>
        <UserObject label="" tags="simple pipeline forwarding" id="Haz_8EwUBin59iLyk_8Q-177">
          <mxCell style="rounded=0;whiteSpace=wrap;html=1;fontFamily=sans-serif;fontSize=6;align=left;fillColor=#d5e8d4;strokeColor=#000000;" parent="Haz_8EwUBin59iLyk_8Q-176" vertex="1">
            <mxGeometry y="-1" width="6" height="20" as="geometry" />
          </mxCell>
        </UserObject>
        <UserObject label="" tags="simple pipeline forwarding" id="Haz_8EwUBin59iLyk_8Q-178">
          <mxCell style="triangle;whiteSpace=wrap;html=1;rounded=0;fontFamily=sans-serif;fontSize=6;align=left;direction=south;fillColor=#d5e8d4;strokeColor=#000000;" parent="Haz_8EwUBin59iLyk_8Q-176" vertex="1">
            <mxGeometry x="0.5" y="-0.736842105263158" width="5" height="4.736842105263156" as="geometry" />
          </mxCell>
        </UserObject>
        <UserObject label="" tags="simple pipeline forwarding" id="Haz_8EwUBin59iLyk_8Q-179">
          <mxCell style="group" parent="Haz_8EwUBin59iLyk_8Q-26" vertex="1" connectable="0">
            <mxGeometry x="410" y="252" width="34" height="86" as="geometry" />
          </mxCell>
        </UserObject>
        <UserObject label="" tags="simple pipeline forwarding" id="Haz_8EwUBin59iLyk_8Q-180">
          <mxCell style="shape=stencil(rZTdcoIwEIWfJrcOZLXVS4fqVW/7ABHWkhoThlC1b++SQFvkpxacYWDOOdkvCdkJg8imIkPGAy2OyOCFcb5+faM3WanXq8DLs5dQSWEzjAvv7eUFE2/bIjcHPMukqMqlTjGXRZnChgVrGlM+EMVGayJIo20j+ZUTTEhNtcHFw6q5vyo1414zvh2NWP4fEd4gFiNWURd9Q8LnR1CWMH07824EROT0HRpEOxEf3nPzqZPOiTNRNkQrqGMlNX4YqUm5j1vKDk+ohvZTVx/NCXtP+B5AOf0PAJoEmI54GoFoElaTCYvBNu0mhE3EfATi5l/eRYiVsfjnqL1Uyl83Aw1Pfqv1nNvTr4Q1OXYGVNTKnOvvUGdcAQ==);rounded=1;fontSize=7;align=right;spacingRight=0;spacingBottom=0;fontStyle=1;spacing=0;fillColor=#D5E8D4;strokeColor=#000000;" parent="Haz_8EwUBin59iLyk_8Q-179" vertex="1">
            <mxGeometry x="-3" width="34" height="86" as="geometry" />
          </mxCell>
        </UserObject>
        <UserObject label="ALU" tags="simple pipeline forwarding" id="Haz_8EwUBin59iLyk_8Q-181">
          <mxCell style="text;strokeColor=none;fillColor=none;align=center;verticalAlign=middle;rounded=0;fontSize=8;fontFamily=sans-serif;spacing=0;fontStyle=1;labelPosition=center;verticalLabelPosition=middle;labelBackgroundColor=none;spacingBottom=1;" parent="Haz_8EwUBin59iLyk_8Q-179" vertex="1">
            <mxGeometry x="10" y="39" width="18" height="8" as="geometry" />
          </mxCell>
        </UserObject>
        <UserObject label="zero" tags="simple pipeline forwarding" id="Haz_8EwUBin59iLyk_8Q-182">
          <mxCell style="text;strokeColor=none;fillColor=none;align=right;verticalAlign=middle;rounded=0;fontSize=6;fontFamily=sans-serif;spacing=0;fontStyle=1;labelPosition=center;verticalLabelPosition=middle;labelBackgroundColor=none;spacingBottom=1;fontColor=#0000CC;" parent="Haz_8EwUBin59iLyk_8Q-179" vertex="1">
            <mxGeometry x="10" y="31" width="16" height="5.56" as="geometry" />
          </mxCell>
        </UserObject>
        <UserObject label="Peripherals" tags="simple pipeline forwarding" link="#peripherals" id="Haz_8EwUBin59iLyk_8Q-183">
          <mxCell style="rounded=1;arcSize=17;fontSize=6;fontFamily=sans-serif;fontStyle=1;verticalAlign=middle;align=center;labelPosition=center;verticalLabelPosition=middle;labelBackgroundColor=none;fillColor=#DEDEDE;strokeColor=#000000;" parent="Haz_8EwUBin59iLyk_8Q-26" vertex="1">
            <mxGeometry x="529" y="238" width="45" height="16" as="geometry" />
          </mxCell>
        </UserObject>
        <UserObject label="MemToReg" tags="simple pipeline forwarding" id="Haz_8EwUBin59iLyk_8Q-191">
          <mxCell style="text;strokeColor=none;fillColor=default;align=left;verticalAlign=middle;rounded=0;fontFamily=sans-serif;fontSize=6;fontStyle=1;spacing=0;labelPosition=center;verticalLabelPosition=middle;labelBackgroundColor=default;fontColor=#0000FA;" parent="Haz_8EwUBin59iLyk_8Q-26" vertex="1">
            <mxGeometry x="235" y="108" width="31.5" height="8" as="geometry" />
          </mxCell>
        </UserObject>
        <UserObject label="MemWrite" tags="simple pipeline forwarding" id="Haz_8EwUBin59iLyk_8Q-192">
          <mxCell style="text;strokeColor=none;fillColor=default;align=left;verticalAlign=middle;rounded=0;fontFamily=sans-serif;fontSize=6;fontStyle=1;spacing=0;labelPosition=center;verticalLabelPosition=middle;labelBackgroundColor=default;fontColor=#0000FA;" parent="Haz_8EwUBin59iLyk_8Q-26" vertex="1">
            <mxGeometry x="235" y="116" width="32" height="8" as="geometry" />
          </mxCell>
        </UserObject>
        <UserObject label="BranchBxx" tags="simple pipeline forwarding" id="Haz_8EwUBin59iLyk_8Q-193">
          <mxCell style="text;strokeColor=none;fillColor=default;align=left;verticalAlign=middle;rounded=0;fontFamily=sans-serif;fontSize=6;fontStyle=1;spacing=0;labelPosition=center;verticalLabelPosition=middle;labelBackgroundColor=default;fontColor=#0000FA;" parent="Haz_8EwUBin59iLyk_8Q-26" vertex="1">
            <mxGeometry x="235" y="132" width="33" height="8" as="geometry" />
          </mxCell>
        </UserObject>
        <UserObject label="AluControl" tags="simple pipeline forwarding" id="Haz_8EwUBin59iLyk_8Q-194">
          <mxCell style="text;strokeColor=none;fillColor=default;align=left;verticalAlign=middle;rounded=0;fontFamily=sans-serif;fontSize=6;fontStyle=1;spacing=0;labelPosition=center;verticalLabelPosition=middle;labelBackgroundColor=default;fontColor=#0000FA;" parent="Haz_8EwUBin59iLyk_8Q-26" vertex="1">
            <mxGeometry x="235" y="166" width="32" height="4" as="geometry" />
          </mxCell>
        </UserObject>
        <UserObject label="" tags="simple pipeline forwarding" link="#data_memory" id="Haz_8EwUBin59iLyk_8Q-210">
          <mxCell style="group;fontSize=12;fillColor=#d5e8d4;strokeColor=#82b366;" parent="Haz_8EwUBin59iLyk_8Q-26" vertex="1" connectable="0">
            <mxGeometry x="529" y="276" width="60" height="80" as="geometry" />
          </mxCell>
        </UserObject>
        <UserObject label="" tags="simple pipeline forwarding" link="#data_memory" id="Haz_8EwUBin59iLyk_8Q-211">
          <mxCell style="rounded=1;arcSize=2;fontSize=6;fontStyle=1;fontFamily=sans-serif;verticalAlign=middle;align=center;labelPosition=center;verticalLabelPosition=middle;labelBackgroundColor=none;fillColor=#EAFFE9;strokeColor=#000000;" parent="Haz_8EwUBin59iLyk_8Q-210" vertex="1">
            <mxGeometry width="60" height="80" as="geometry" />
          </mxCell>
        </UserObject>
        <UserObject label="Data&#xa;Memory" tags="simple pipeline forwarding" link="#data_memory" id="Haz_8EwUBin59iLyk_8Q-212">
          <mxCell style="text;strokeColor=none;fillColor=none;align=center;verticalAlign=middle;rounded=0;fontSize=6;fontFamily=sans-serif;spacing=0;fontStyle=1;labelPosition=center;verticalLabelPosition=middle;labelBackgroundColor=none;spacingBottom=1;" parent="Haz_8EwUBin59iLyk_8Q-210" vertex="1">
            <mxGeometry x="6" y="53" width="48" height="17" as="geometry" />
          </mxCell>
        </UserObject>
        <UserObject label="" link="#cache_data" component="data-cache" tags="simple hazardunit pipeline forwarding" id="uWEq7-W_z53UrtFael4O-37">
          <mxCell style="shape=stencil(rVTRbsMgDPwaHidRWPteZZv20o9gxDSolFTA1GRfP4LJOliXqVqlSInPOd8ZWxDe+E6cgDBqxREIfyKMSSG7iLAIdoisKYZnDDc5FP4EMiCm9AAtwj64/gBn3YZM17YDp8OU5c+EbuM/08ObNyEPe9e/27ZIzOmUcZMEowOWyspjEVW2KtPCSa8/cm8MMcJeKisR+cUNb1TvYMGm0sZgz1cqX2rYkGzE8/lys7nupuCE0SRSeifW6m+WEkdtxhjnj8TzwvoHHyehlgsEGAKOEXnNZR/yFHg5htV80kbvbd4hsAHcbTqvcUX4thBaFzpz+E3HgAq3qey098sy/PEOMrQQqPb2Lo1UCv/oIW3/jyVPKN4OCfgE);fillColor=#d5e8d4;strokeColor=#000000;" parent="Haz_8EwUBin59iLyk_8Q-210" vertex="1">
            <mxGeometry width="60" height="50" as="geometry" />
          </mxCell>
        </UserObject>
        <UserObject label="" tags="forwarding simple pipeline" id="Haz_8EwUBin59iLyk_8Q-213">
          <mxCell style="group;direction=east;" parent="Haz_8EwUBin59iLyk_8Q-26" vertex="1" connectable="0">
            <mxGeometry x="92" y="331.5" width="29" height="39" as="geometry" />
          </mxCell>
        </UserObject>
        <UserObject label="4" tags="simple pipeline forwarding" id="Haz_8EwUBin59iLyk_8Q-214">
          <mxCell style="text;strokeColor=none;fillColor=none;align=center;verticalAlign=middle;rounded=0;fontSize=6;fontFamily=sans-serif;spacing=0;fontStyle=1;labelPosition=center;verticalLabelPosition=middle;labelBackgroundColor=none;spacingBottom=1;" parent="Haz_8EwUBin59iLyk_8Q-213" vertex="1">
            <mxGeometry x="1" y="4.5" width="8" height="8" as="geometry" />
          </mxCell>
        </UserObject>
        <UserObject label="" tags="forwarding simple pipeline" id="Haz_8EwUBin59iLyk_8Q-215">
          <mxCell style="group" parent="Haz_8EwUBin59iLyk_8Q-213" vertex="1" connectable="0">
            <mxGeometry x="9" width="20" height="39" as="geometry" />
          </mxCell>
        </UserObject>
        <UserObject label="" tags="simple pipeline forwarding" id="Haz_8EwUBin59iLyk_8Q-217">
          <mxCell style="group;fontFamily=sans-serif;fontSize=6;verticalAlign=middle;align=center;labelPosition=center;verticalLabelPosition=middle;labelBackgroundColor=none;html=1;" parent="Haz_8EwUBin59iLyk_8Q-215" vertex="1" connectable="0">
            <mxGeometry x="1" width="20" height="39" as="geometry" />
          </mxCell>
        </UserObject>
        <UserObject label="" tags="forwarding simple pipeline" id="Haz_8EwUBin59iLyk_8Q-218">
          <mxCell style="group" parent="Haz_8EwUBin59iLyk_8Q-217" vertex="1" connectable="0">
            <mxGeometry width="20" height="39" as="geometry" />
          </mxCell>
        </UserObject>
        <UserObject label="" tags="simple pipeline forwarding" id="Haz_8EwUBin59iLyk_8Q-219">
          <mxCell style="shape=stencil(rZTdcoIwEIWfJrcOJOropUPbq972ASKssjUmDKH+vL1LAlrkpxadYWDOOdkvIdkJE5FNZQaMB1rugYk3xvnq84veZKVeLwMvj16KSkqbQVx4b4MnSLxti9zs4IhJUZWjTiHHokzFOwtWNKZ8RBQbrYmARttG8isnmERNtcHJw6q5z5WacK8Z/xiNWPwfEd4hZiNWURddIeH0FZTFvJsiInL6dlxEaxnvtrn50Unn3JksT7MV1LFCDd8GNSn3cWtZwwHU0C/V1XtzgN7jeQRQTn8DiCZBPI+Yj0A0CcunCbPBHusmhE3EdATibi8fIsTKWPhz1AaV8nfFQM+T32o95/b0K2FNDp0BFbUy5/oL0BkX);rounded=1;fontSize=6;align=center;spacingRight=0;spacingBottom=0;fontStyle=1;spacing=0;fontFamily=sans-serif;verticalAlign=middle;labelPosition=center;verticalLabelPosition=middle;labelBackgroundColor=none;html=1;flipV=1;fillColor=#d5e8d4;strokeColor=#000000;" parent="Haz_8EwUBin59iLyk_8Q-218" vertex="1">
            <mxGeometry width="20" height="39" as="geometry" />
          </mxCell>
        </UserObject>
        <UserObject label="" tags="simple pipeline forwarding" id="Haz_8EwUBin59iLyk_8Q-220">
          <mxCell style="shape=stencil(xVPtDoIgFH0a/iPMB2hW78ESk0JggGlvHx9qqdM1q7Wx3d1z7j0c2L0AZ6YkigIEBakowHuAkOK1ccFhZQQSCGPeTHJiFD3ZCBaspXmEjdXyShuW206AiZJqZj2LDwDuXI0/OCukpmcta5GPiJ5WxCvMiJ7mTNCLZMJlIYS7olrwAdBxpfvVpXva022SvtNeyZv/tjb2pN2P3MfpuoT3vyjxucIWE19/xhaJYb7+a2MiMbj6uY2CcR6nc7EUZw6frUdAZzsV0LjmAXgA);rounded=1;fontSize=6;align=center;spacingRight=0;spacingBottom=0;fontStyle=1;spacing=0;fontFamily=sans-serif;verticalAlign=middle;labelPosition=center;verticalLabelPosition=middle;labelBackgroundColor=none;html=1;" parent="Haz_8EwUBin59iLyk_8Q-218" vertex="1">
            <mxGeometry x="10" y="10.75" width="4" height="17.5" as="geometry" />
          </mxCell>
        </UserObject>
        <UserObject label="" tags="simple pipeline forwarding" id="Haz_8EwUBin59iLyk_8Q-216">
          <mxCell style="edgeStyle=orthogonalEdgeStyle;rounded=0;jumpStyle=none;jumpSize=4;orthogonalLoop=1;jettySize=auto;exitX=0;exitY=0.8;exitDx=0;exitDy=0;exitPerimeter=0;entryX=1;entryY=0.5;entryDx=0;entryDy=0;endArrow=none;endFill=0;fontSize=6;fontFamily=sans-serif;verticalAlign=middle;align=center;labelPosition=center;verticalLabelPosition=middle;labelBackgroundColor=none;html=1;strokeWidth=2;" parent="Haz_8EwUBin59iLyk_8Q-213" source="Haz_8EwUBin59iLyk_8Q-219" target="Haz_8EwUBin59iLyk_8Q-214" edge="1">
            <mxGeometry x="97" y="330" as="geometry">
              <mxPoint x="9" y="32" as="targetPoint" />
              <mxPoint x="13.944444444444457" y="32" as="sourcePoint" />
            </mxGeometry>
          </mxCell>
        </UserObject>
        <UserObject label="RegWrite" tags="pipeline forwarding" id="4UeL6ZtvB5kMY3OpyeXH-3">
          <mxCell style="text;strokeColor=none;fillColor=default;align=left;verticalAlign=middle;rounded=0;fontFamily=sans-serif;fontSize=6;fontStyle=1;spacing=0;labelPosition=center;verticalLabelPosition=middle;labelBackgroundColor=default;fontColor=#0000FA;" parent="Haz_8EwUBin59iLyk_8Q-26" vertex="1">
            <mxGeometry x="235" y="99.5" width="30" height="8" as="geometry" />
          </mxCell>
        </UserObject>
        <UserObject label="" tags="pipeline simple forwarding" id="Haz_8EwUBin59iLyk_8Q-50">
          <mxCell style="edgeStyle=orthogonalEdgeStyle;rounded=0;sketch=0;jumpStyle=none;jumpSize=4;orthogonalLoop=1;jettySize=auto;exitX=0.5;exitY=0.065;exitDx=0;exitDy=0;shadow=0;endArrow=none;endFill=0;strokeColor=#3333FF;strokeWidth=1;fontSize=6;fontFamily=sans-serif;verticalAlign=middle;align=center;labelPosition=center;verticalLabelPosition=middle;labelBackgroundColor=none;html=1;exitPerimeter=0;entryX=1.002;entryY=0.829;entryDx=0;entryDy=0;entryPerimeter=0;" parent="Haz_8EwUBin59iLyk_8Q-26" source="Haz_8EwUBin59iLyk_8Q-113" target="Haz_8EwUBin59iLyk_8Q-85" edge="1">
            <mxGeometry relative="1" as="geometry">
              <mxPoint x="227" y="169" as="targetPoint" />
              <Array as="points">
                <mxPoint x="386" y="184" />
                <mxPoint x="216" y="184" />
              </Array>
              <mxPoint x="441.30500000000006" y="313.1659983142981" as="sourcePoint" />
            </mxGeometry>
          </mxCell>
        </UserObject>
        <UserObject label="" tags="simple forwarding pipeline" id="Haz_8EwUBin59iLyk_8Q-83">
          <mxCell style="edgeStyle=orthogonalEdgeStyle;rounded=0;sketch=0;jumpStyle=none;jumpSize=4;orthogonalLoop=1;jettySize=auto;shadow=0;endArrow=none;endFill=0;strokeColor=#3333FF;strokeWidth=1;fontFamily=sans-serif;fontSize=6;verticalAlign=middle;align=center;labelPosition=center;verticalLabelPosition=middle;labelBackgroundColor=none;html=1;exitX=0;exitY=0.75;exitDx=0;exitDy=0;exitPerimeter=0;" parent="Haz_8EwUBin59iLyk_8Q-26" source="8Br1XOdIxK8N6TFEatcO-5" target="Haz_8EwUBin59iLyk_8Q-85" edge="1">
            <mxGeometry relative="1" as="geometry">
              <Array as="points">
                <mxPoint x="223" y="152" />
                <mxPoint x="223" y="152" />
              </Array>
              <mxPoint x="485" y="152" as="sourcePoint" />
            </mxGeometry>
          </mxCell>
        </UserObject>
        <UserObject label="BranchJalr" tags="simple pipeline forwarding" id="Haz_8EwUBin59iLyk_8Q-196">
          <mxCell style="text;strokeColor=none;fillColor=default;align=left;verticalAlign=middle;rounded=0;fontFamily=sans-serif;fontSize=6;fontStyle=1;spacing=0;labelPosition=center;verticalLabelPosition=middle;labelBackgroundColor=default;fontColor=#0000FA;" parent="Haz_8EwUBin59iLyk_8Q-26" vertex="1">
            <mxGeometry x="235" y="150" width="33" height="4" as="geometry" />
          </mxCell>
        </UserObject>
        <UserObject label="RegWrite" tags="simple forwarding pipeline" id="5soJhyaSc5fLxI4RMxeW-4">
          <mxCell style="text;strokeColor=none;fillColor=none;align=left;verticalAlign=middle;rounded=0;fontFamily=sans-serif;fontSize=6;fontStyle=1;spacing=0;labelPosition=center;verticalLabelPosition=middle;labelBackgroundColor=default;horizontal=1;fontColor=#0000FF;" parent="Haz_8EwUBin59iLyk_8Q-26" vertex="1">
            <mxGeometry x="220.5" y="220" width="24.5" height="8" as="geometry" />
          </mxCell>
        </UserObject>
        <UserObject label="" tags="forwarding simple pipeline" id="uWEq7-W_z53UrtFael4O-39">
          <mxCell style="edgeStyle=orthogonalEdgeStyle;rounded=0;sketch=0;jumpStyle=none;jumpSize=4;orthogonalLoop=1;jettySize=auto;shadow=0;endArrow=none;endFill=0;strokeColor=#000000;strokeWidth=2;fontSize=6;fontFamily=sans-serif;verticalAlign=middle;align=center;labelPosition=center;verticalLabelPosition=middle;labelBackgroundColor=none;html=1;exitX=0.5;exitY=0;exitDx=0;exitDy=0;entryX=0;entryY=0.65;entryDx=0;entryDy=0;entryPerimeter=0;" parent="Haz_8EwUBin59iLyk_8Q-26" source="hCaf9_x39W0CY-DPdxUN-8" target="Haz_8EwUBin59iLyk_8Q-113" edge="1">
            <mxGeometry relative="1" as="geometry">
              <mxPoint x="231" y="361" as="sourcePoint" />
              <mxPoint x="235.5" y="434" as="targetPoint" />
              <Array as="points">
                <mxPoint x="374" y="355" />
                <mxPoint x="374" y="328" />
              </Array>
            </mxGeometry>
          </mxCell>
        </UserObject>
        <UserObject label="" tags="forwarding simple pipeline" id="uWEq7-W_z53UrtFael4O-44">
          <mxCell style="edgeStyle=orthogonalEdgeStyle;rounded=0;sketch=0;jumpStyle=none;orthogonalLoop=1;jettySize=auto;entryX=0;entryY=0.5;entryDx=0;entryDy=0;shadow=0;endArrow=none;endFill=0;strokeColor=#000000;strokeWidth=2;fontSize=6;fontFamily=sans-serif;verticalAlign=middle;align=center;labelPosition=center;verticalLabelPosition=middle;labelBackgroundColor=none;html=1;jumpSize=4;exitX=0.5;exitY=0;exitDx=0;exitDy=0;" parent="Haz_8EwUBin59iLyk_8Q-26" source="hCaf9_x39W0CY-DPdxUN-0" target="Haz_8EwUBin59iLyk_8Q-85" edge="1">
            <mxGeometry relative="1" as="geometry">
              <mxPoint x="141" y="276" as="sourcePoint" />
              <mxPoint x="155" y="143" as="targetPoint" />
              <Array as="points">
                <mxPoint x="165" y="148" />
              </Array>
            </mxGeometry>
          </mxCell>
        </UserObject>
        <UserObject label="rd" tags="simple pipeline forwarding" id="uWEq7-W_z53UrtFael4O-45">
          <mxCell style="text;strokeColor=none;fillColor=default;align=center;verticalAlign=middle;rounded=0;fontSize=6;fontFamily=sans-serif;spacing=0;fontStyle=1;labelPosition=center;verticalLabelPosition=middle;labelBackgroundColor=none;spacingBottom=1;" parent="Haz_8EwUBin59iLyk_8Q-26" vertex="1">
            <mxGeometry x="177" y="302" width="8" height="8" as="geometry" />
          </mxCell>
        </UserObject>
        <UserObject label="00000000" tags="simple pipeline forwarding" component="reg-value" source="decode-inst-bus" id="uWEq7-W_z53UrtFael4O-42">
          <mxCell style="rounded=1;fontFamily=sans-serif;fontSize=6;arcSize=1;align=center;spacing=0;fontStyle=0" parent="Haz_8EwUBin59iLyk_8Q-26" vertex="1">
            <mxGeometry x="160" y="230" width="34" height="8" as="geometry" />
          </mxCell>
        </UserObject>
        <UserObject label="" tags="forwarding" component="mux3" source="exec-ForwardA" id="Haz_8EwUBin59iLyk_8Q-116">
          <mxCell style="shape=stencil(3ZbBboMwDIafJsdNIWnLOE5su+04adcU0pEVEgS0ZW8/k8AKo6QIOHSTENS/8RfHMVYR9fOIpRwRLFnCEX1ChLy+vYNN4Rc8IqN52JgnY5K1MVme8qAw2k6UPDRyXmRqz08iLOpwISOeiaLy0meEH+Gd6qJ+oKQEglAy73hafoAxISEWlwZWp/JVW/dNMoi8TGYsgHAnMJwF0miCfiB4swTFW12mUB+UoWOj/pYF+49MHWR4ce2UVS3RczTuWEj+qYQESz90Llt+5LFtS010oo588HzGAKrlzwDSLYkzH/EwAdHdhjebsLb22BgCHUUIYpXzq2/tRBybaWFpWNB7faPVgWYDrMq4pQvb8wlm2nlOXflyqqoELAWjuusIs4g1SufeHrDJocS/R6Gtk+9Ip/6E2OfEQCu6HcjqFg7RViFnRoXGbe5v14fMqM/G/S8dpNXe165V88dGC98=);rounded=1;fontSize=7;align=right;spacingRight=0;spacingBottom=0;fontStyle=1;spacing=0;arcSize=19;fillColor=#d5e8d4;strokeColor=#000000;" parent="Haz_8EwUBin59iLyk_8Q-26" vertex="1">
            <mxGeometry x="333" y="249" width="20" height="34" as="geometry" />
          </mxCell>
        </UserObject>
        <UserObject label="0" tags="pipeline forwarding simple" component="bool-value" source="exec-AluZero" id="uWEq7-W_z53UrtFael4O-55">
          <mxCell style="rounded=1;fontFamily=sans-serif;fontSize=6;arcSize=1;align=center;spacing=0;comic=0;allowArrows=0;connectable=0;recursiveResize=0;editable=0;expand=0;resizable=0;rotatable=0;" parent="Haz_8EwUBin59iLyk_8Q-26" vertex="1">
            <mxGeometry x="444" y="279" width="7" height="8" as="geometry" />
          </mxCell>
        </UserObject>
        <UserObject label="0" tags="pipeline forwarding simple" component="bool-value" source="exec-AluSrc" id="uWEq7-W_z53UrtFael4O-56">
          <mxCell style="rounded=1;fontFamily=sans-serif;fontSize=6;arcSize=1;align=center;spacing=0;comic=0;allowArrows=0;connectable=0;recursiveResize=0;editable=0;expand=0;resizable=0;rotatable=0;" parent="Haz_8EwUBin59iLyk_8Q-26" vertex="1">
            <mxGeometry x="382" y="300" width="7" height="8" as="geometry" />
          </mxCell>
        </UserObject>
        <UserObject label="0" tags="pipeline forwarding" component="bool-value" source="exec-MemToReg" id="uWEq7-W_z53UrtFael4O-57">
          <mxCell style="rounded=1;fontFamily=sans-serif;fontSize=6;arcSize=1;align=center;spacing=0;comic=0;allowArrows=0;connectable=1;recursiveResize=0;editable=1;expand=0;resizable=1;rotatable=1;movable=1;deletable=1;spacingLeft=1;" parent="Haz_8EwUBin59iLyk_8Q-26" vertex="1">
            <mxGeometry x="321.5" y="108" width="7" height="8" as="geometry" />
          </mxCell>
        </UserObject>
        <UserObject label="0" tags="pipeline forwarding" component="bool-value" source="wb-MemToReg" id="uWEq7-W_z53UrtFael4O-58">
          <mxCell style="rounded=1;fontFamily=sans-serif;fontSize=6;arcSize=1;align=center;spacing=0;comic=0;allowArrows=0;connectable=1;recursiveResize=0;editable=1;expand=0;resizable=1;rotatable=1;movable=1;deletable=1;spacingLeft=1;" parent="Haz_8EwUBin59iLyk_8Q-26" vertex="1">
            <mxGeometry x="637" y="255" width="7" height="8" as="geometry" />
          </mxCell>
        </UserObject>
        <UserObject label="0" tags="simple pipeline forwarding" component="bool-value" source="decode-AluSrc" id="uWEq7-W_z53UrtFael4O-60">
          <mxCell style="rounded=1;fontFamily=sans-serif;fontSize=6;arcSize=1;align=center;spacing=0;comic=0;allowArrows=0;connectable=1;recursiveResize=0;editable=1;expand=0;resizable=1;rotatable=1;movable=1;deletable=1;spacingLeft=1;" parent="Haz_8EwUBin59iLyk_8Q-26" vertex="1">
            <mxGeometry x="274" y="180" width="7" height="8" as="geometry" />
          </mxCell>
        </UserObject>
        <UserObject label="0" tags="pipeline forwarding" component="bool-value" source="exec-BranchJalr" id="uWEq7-W_z53UrtFael4O-61">
          <mxCell style="rounded=1;fontFamily=sans-serif;fontSize=6;arcSize=1;align=center;spacing=0;comic=0;allowArrows=0;connectable=1;recursiveResize=0;editable=1;expand=0;resizable=1;rotatable=1;movable=1;deletable=1;spacingLeft=1;" parent="Haz_8EwUBin59iLyk_8Q-26" vertex="1">
            <mxGeometry x="312" y="148" width="7" height="8" as="geometry" />
          </mxCell>
        </UserObject>
        <UserObject label="0" tags="pipeline forwarding" component="bool-value" source="exec-MemWrite" id="uWEq7-W_z53UrtFael4O-62">
          <mxCell style="rounded=1;fontFamily=sans-serif;fontSize=6;arcSize=1;align=center;spacing=0;comic=0;allowArrows=0;connectable=1;recursiveResize=0;editable=1;expand=0;resizable=1;rotatable=1;movable=1;deletable=1;spacingLeft=1;" parent="Haz_8EwUBin59iLyk_8Q-26" vertex="1">
            <mxGeometry x="312" y="116" width="7" height="8" as="geometry" />
          </mxCell>
        </UserObject>
        <UserObject label="0" tags="pipeline forwarding" component="bool-value" source="exec-RegWrite" id="uWEq7-W_z53UrtFael4O-63">
          <mxCell style="rounded=1;fontFamily=sans-serif;fontSize=6;arcSize=1;align=center;spacing=0;comic=0;allowArrows=0;connectable=1;recursiveResize=0;editable=1;expand=0;resizable=1;rotatable=1;movable=1;deletable=1;spacingLeft=1;" parent="Haz_8EwUBin59iLyk_8Q-26" vertex="1">
            <mxGeometry x="312" y="100" width="7" height="8" as="geometry" />
          </mxCell>
        </UserObject>
        <UserObject label="0" tags="simple forwarding pipeline" component="bool-value" source="wb-RegWrite" id="uWEq7-W_z53UrtFael4O-67">
          <mxCell style="rounded=1;fontFamily=sans-serif;fontSize=6;arcSize=1;align=center;spacing=0;comic=0;allowArrows=0;connectable=0;recursiveResize=0;editable=0;expand=0;resizable=0;rotatable=0;" parent="Haz_8EwUBin59iLyk_8Q-26" vertex="1">
            <mxGeometry x="228" y="233" width="7" height="8" as="geometry" />
          </mxCell>
        </UserObject>
        <UserObject label="0" tags="simple pipeline forwarding" component="bool-value" source="decode-MemToReg" id="uWEq7-W_z53UrtFael4O-68">
          <mxCell style="rounded=1;fontFamily=sans-serif;fontSize=6;arcSize=1;align=center;spacing=0;comic=0;allowArrows=0;connectable=0;recursiveResize=0;editable=0;expand=0;resizable=0;rotatable=0;" parent="Haz_8EwUBin59iLyk_8Q-26" vertex="1">
            <mxGeometry x="287" y="108" width="7" height="8" as="geometry" />
          </mxCell>
        </UserObject>
        <UserObject label="0" tags="simple pipeline forwarding" component="bool-value" source="decode-MemWrite" id="uWEq7-W_z53UrtFael4O-69">
          <mxCell style="rounded=1;fontFamily=sans-serif;fontSize=6;arcSize=1;align=center;spacing=0;comic=0;allowArrows=0;connectable=0;recursiveResize=0;editable=0;expand=0;resizable=0;rotatable=0;" parent="Haz_8EwUBin59iLyk_8Q-26" vertex="1">
            <mxGeometry x="274.25" y="116" width="7" height="8" as="geometry" />
          </mxCell>
        </UserObject>
        <UserObject label="0" tags="simple pipeline forwarding" component="bool-value" source="decode-BranchJalr" id="uWEq7-W_z53UrtFael4O-70">
          <mxCell style="rounded=1;fontFamily=sans-serif;fontSize=6;arcSize=1;align=center;spacing=0;comic=0;allowArrows=0;connectable=1;recursiveResize=0;editable=1;expand=0;resizable=1;rotatable=1;movable=1;deletable=1;spacingLeft=1;" parent="Haz_8EwUBin59iLyk_8Q-26" vertex="1">
            <mxGeometry x="274" y="148" width="7" height="8" as="geometry" />
          </mxCell>
        </UserObject>
        <UserObject label="0" tags="pipeline forwarding" component="bool-value" source="wb-RegWrite" id="uWEq7-W_z53UrtFael4O-71">
          <mxCell style="rounded=1;fontFamily=sans-serif;fontSize=6;arcSize=1;align=center;spacing=0;comic=0;allowArrows=0;connectable=1;recursiveResize=0;editable=1;expand=0;resizable=1;rotatable=1;movable=1;deletable=1;spacingLeft=1;" parent="Haz_8EwUBin59iLyk_8Q-26" vertex="1">
            <mxGeometry x="442" y="64" width="7" height="8" as="geometry" />
          </mxCell>
        </UserObject>
        <UserObject label="0" tags="pipeline forwarding" component="bool-value" source="decode-RegWrite" id="uWEq7-W_z53UrtFael4O-72">
          <mxCell style="rounded=1;fontFamily=sans-serif;fontSize=6;arcSize=1;align=center;spacing=0;comic=0;allowArrows=0;connectable=1;recursiveResize=0;editable=1;expand=0;resizable=1;rotatable=1;movable=1;deletable=1;spacingLeft=1;" parent="Haz_8EwUBin59iLyk_8Q-26" vertex="1">
            <mxGeometry x="274.25" y="100.5" width="7" height="8" as="geometry" />
          </mxCell>
        </UserObject>
        <UserObject label="0" tags="pipeline forwarding" component="bool-value" source="mem-MemToReg" id="uWEq7-W_z53UrtFael4O-73">
          <mxCell style="rounded=1;fontFamily=sans-serif;fontSize=6;arcSize=1;align=center;spacing=0;comic=0;allowArrows=0;connectable=1;recursiveResize=0;editable=1;expand=0;resizable=1;rotatable=1;movable=1;deletable=1;spacingLeft=1;" parent="Haz_8EwUBin59iLyk_8Q-26" vertex="1">
            <mxGeometry x="480" y="107.5" width="7" height="8" as="geometry" />
          </mxCell>
        </UserObject>
        <UserObject label="0" tags="pipeline forwarding simple" component="bool-value" source="mem-MemWrite" id="uWEq7-W_z53UrtFael4O-75">
          <mxCell style="rounded=1;fontFamily=sans-serif;fontSize=6;arcSize=1;align=center;spacing=0;comic=0;allowArrows=0;connectable=1;recursiveResize=0;editable=1;expand=0;resizable=1;rotatable=1;movable=1;deletable=1;spacingLeft=1;" parent="Haz_8EwUBin59iLyk_8Q-26" vertex="1">
            <mxGeometry x="583" y="216" width="7" height="8" as="geometry" />
          </mxCell>
        </UserObject>
        <UserObject label="0" tags="pipeline forwarding" component="bool-value" source="mem-RegWrite" id="uWEq7-W_z53UrtFael4O-76">
          <mxCell style="rounded=1;fontFamily=sans-serif;fontSize=6;arcSize=1;align=center;spacing=0;comic=0;allowArrows=0;connectable=1;recursiveResize=0;editable=1;expand=0;resizable=1;rotatable=1;movable=1;deletable=1;spacingLeft=1;" parent="Haz_8EwUBin59iLyk_8Q-26" vertex="1">
            <mxGeometry x="469.5" y="100.5" width="7" height="8" as="geometry" />
          </mxCell>
        </UserObject>
        <UserObject label="0" tags="simple pipeline forwarding" component="bool-value" source="exec-AuiPC" id="uWEq7-W_z53UrtFael4O-80">
          <mxCell style="rounded=1;fontFamily=sans-serif;fontSize=6;arcSize=1;align=center;spacing=0;comic=0;allowArrows=0;connectable=1;recursiveResize=0;editable=1;expand=0;resizable=1;rotatable=1;resizeWidth=1;movable=1;deletable=1;" parent="Haz_8EwUBin59iLyk_8Q-26" vertex="1">
            <mxGeometry x="371" y="244" width="7" height="8" as="geometry" />
          </mxCell>
        </UserObject>
        <UserObject label="0" tags="forwarding" component="debug-value" source="exec-ForwardB" id="uWEq7-W_z53UrtFael4O-82">
          <mxCell style="rounded=1;fontFamily=sans-serif;fontSize=6;arcSize=1;align=center;spacing=0;comic=0;allowArrows=0;connectable=0;recursiveResize=0;editable=0;expand=0;resizable=1;rotatable=0;resizeWidth=1;" parent="Haz_8EwUBin59iLyk_8Q-26" vertex="1">
            <mxGeometry x="334.25" y="292" width="15.5" height="8" as="geometry" />
          </mxCell>
        </UserObject>
        <UserObject label="0" tags="simple pipeline forwarding" component="debug-value" source="decode-AluControl" id="uWEq7-W_z53UrtFael4O-83">
          <mxCell style="rounded=1;fontFamily=sans-serif;fontSize=6;arcSize=1;align=center;spacing=0;comic=0;allowArrows=0;connectable=0;recursiveResize=0;editable=0;expand=0;resizable=1;rotatable=0;resizeWidth=1;" parent="Haz_8EwUBin59iLyk_8Q-26" vertex="1">
            <mxGeometry x="274" y="164" width="11.25" height="8" as="geometry" />
          </mxCell>
        </UserObject>
        <UserObject label="Hazard Unit:" tags="hazardunit" id="uWEq7-W_z53UrtFael4O-84">
          <mxCell style="text;strokeColor=none;fillColor=none;align=right;verticalAlign=middle;rounded=0;fontSize=6;fontFamily=sans-serif;spacing=0;fontStyle=1;labelPosition=center;verticalLabelPosition=middle;labelBackgroundColor=none;spacingBottom=0;" parent="Haz_8EwUBin59iLyk_8Q-26" vertex="1">
            <mxGeometry x="648" y="105" width="41" height="15" as="geometry" />
          </mxCell>
        </UserObject>
        <UserObject label="NORMAL" tags="hazardunit" component="multi-text-value" source="hazard" id="uWEq7-W_z53UrtFael4O-89">
          <mxCell style="text;strokeColor=none;align=center;verticalAlign=middle;rounded=1;fontSize=6;fontFamily=sans-serif;spacing=3;fontStyle=1;labelPosition=center;verticalLabelPosition=middle;labelBackgroundColor=none;spacingBottom=0;fillColor=#CCCCCC;spacingTop=0;" parent="Haz_8EwUBin59iLyk_8Q-26" vertex="1">
            <mxGeometry x="651" y="120" width="102" height="15" as="geometry" />
          </mxCell>
        </UserObject>
        <UserObject label="ADD $0, $1, $3" tags="simple pipeline forwarding" component="instruction-value" source="fetch" id="uWEq7-W_z53UrtFael4O-90">
          <mxCell style="rounded=1;comic=0;fontFamily=sans-serif;fontSize=9;fontColor=#000000;align=center;spacing=4;horizontal=1;fontStyle=0;fillColor=#FFADAD;strokeColor=none;" parent="Haz_8EwUBin59iLyk_8Q-26" vertex="1">
            <mxGeometry x="13" y="14.5" width="135" height="26.5" as="geometry" />
          </mxCell>
        </UserObject>
        <UserObject label="ADD $0, $1, $3" tags="pipeline forwarding" component="instruction-value" source="decode" id="uWEq7-W_z53UrtFael4O-91">
          <mxCell style="rounded=1;comic=0;fontFamily=sans-serif;fontSize=9;fontColor=#000000;align=center;spacing=4;horizontal=1;fontStyle=0;strokeColor=none;fillColor=#FFD4AD;" parent="Haz_8EwUBin59iLyk_8Q-26" vertex="1">
            <mxGeometry x="157" y="14.5" width="135" height="26.5" as="geometry" />
          </mxCell>
        </UserObject>
        <UserObject label="ADD $0, $1, $3" tags="pipeline forwarding" component="instruction-value" source="exec" id="uWEq7-W_z53UrtFael4O-92">
          <mxCell style="rounded=1;comic=0;fontFamily=sans-serif;fontSize=10;fontColor=#000000;align=center;spacing=4;horizontal=1;fontStyle=0;strokeColor=none;fillColor=#C1FFAD;" parent="Haz_8EwUBin59iLyk_8Q-26" vertex="1">
            <mxGeometry x="309" y="14.5" width="135" height="26.5" as="geometry" />
          </mxCell>
        </UserObject>
        <UserObject label="ADD $0, $1, $3" tags="pipeline forwarding" component="instruction-value" source="mem" id="uWEq7-W_z53UrtFael4O-93">
          <mxCell style="rounded=1;comic=0;fontFamily=sans-serif;fontSize=9;fontColor=#000000;align=center;spacing=4;horizontal=1;fontStyle=0;strokeColor=none;fillColor=#ADFFE5;" parent="Haz_8EwUBin59iLyk_8Q-26" vertex="1">
            <mxGeometry x="466" y="14.5" width="135" height="26.5" as="geometry" />
          </mxCell>
        </UserObject>
        <UserObject label="ADD $0, $1, $3" tags="pipeline forwarding" component="instruction-value" source="wb" id="uWEq7-W_z53UrtFael4O-94">
          <mxCell style="rounded=1;comic=0;fontFamily=sans-serif;fontSize=9;fontColor=#000000;align=center;spacing=4;horizontal=1;fontStyle=0;strokeColor=none;fillColor=#FFADE6;" parent="Haz_8EwUBin59iLyk_8Q-26" vertex="1">
            <mxGeometry x="614" y="14.5" width="135" height="26.5" as="geometry" />
          </mxCell>
        </UserObject>
        <UserObject label="" tags="simple pipeline forwarding" id="uWEq7-W_z53UrtFael4O-40">
          <mxCell style="edgeStyle=orthogonalEdgeStyle;rounded=0;orthogonalLoop=1;jettySize=auto;html=0;exitX=1;exitY=0.5;exitDx=0;exitDy=0;exitPerimeter=0;shadow=0;fontFamily=sans-serif;fontSize=6;strokeWidth=2;labelBackgroundColor=none;endFill=0;endArrow=none;sketch=0;jumpStyle=none;jumpSize=4;strokeColor=#000000;entryX=1.005;entryY=0.856;entryDx=0;entryDy=0;entryPerimeter=0;" parent="Haz_8EwUBin59iLyk_8Q-26" source="Haz_8EwUBin59iLyk_8Q-199" target="Haz_8EwUBin59iLyk_8Q-40" edge="1">
            <mxGeometry relative="1" as="geometry">
              <Array as="points">
                <mxPoint x="344" y="314" />
              </Array>
              <mxPoint x="435.6388888888888" y="301.75" as="sourcePoint" />
              <mxPoint x="242" y="305" as="targetPoint" />
            </mxGeometry>
          </mxCell>
        </UserObject>
        <UserObject label="00" tags="pipeline forwarding" component="reg-id-value" source="mem-rd" id="Haz_8EwUBin59iLyk_8Q-98">
          <mxCell style="rounded=1;fontFamily=sans-serif;fontSize=6;arcSize=1;spacing=0;labelBackgroundColor=none;" parent="Haz_8EwUBin59iLyk_8Q-26" vertex="1">
            <mxGeometry x="558" y="393" width="14" height="8" as="geometry" />
          </mxCell>
        </UserObject>
        <UserObject label="Registers" tags="simple pipeline forwarding" link="#registers" id="Haz_8EwUBin59iLyk_8Q-40">
          <mxCell style="rounded=1;arcSize=2;fontSize=6;fontStyle=1;fontFamily=sans-serif;verticalAlign=middle;align=center;labelPosition=center;verticalLabelPosition=middle;labelBackgroundColor=none;fillColor=#d5e8d4;strokeColor=#000000;" parent="Haz_8EwUBin59iLyk_8Q-26" vertex="1">
            <mxGeometry x="204" y="247" width="47" height="78" as="geometry" />
          </mxCell>
        </UserObject>
        <UserObject label="00000000" tags="simple pipeline forwarding" component="reg-value" source="decode-rs2" id="Haz_8EwUBin59iLyk_8Q-153">
          <mxCell style="rounded=1;fontFamily=sans-serif;fontSize=6;arcSize=1;align=center;spacing=0;" parent="Haz_8EwUBin59iLyk_8Q-26" vertex="1">
            <mxGeometry x="256" y="309" width="34" height="8" as="geometry" />
          </mxCell>
        </UserObject>
        <UserObject label="00" tags="simple pipeline forwarding" component="reg-id-value" source="wb-rd" id="Haz_8EwUBin59iLyk_8Q-154">
          <mxCell style="rounded=1;fontFamily=sans-serif;fontSize=6;arcSize=1;align=center;spacing=0;" parent="Haz_8EwUBin59iLyk_8Q-26" vertex="1">
            <mxGeometry x="189" y="301" width="11" height="8" as="geometry" />
          </mxCell>
        </UserObject>
        <UserObject label="00000000" tags="forwarding simple pipeline" component="reg-value" source="alu-src2" id="Haz_8EwUBin59iLyk_8Q-200">
          <mxCell style="rounded=1;fontFamily=sans-serif;fontSize=6;arcSize=1;align=center;direction=south;spacing=0;horizontal=0;" parent="Haz_8EwUBin59iLyk_8Q-26" vertex="1">
            <mxGeometry x="397" y="304" width="8" height="34" as="geometry" />
          </mxCell>
        </UserObject>
        <UserObject label="" tags="forwarding" component="mux3" source="exec-ForwardB" id="Haz_8EwUBin59iLyk_8Q-199">
          <mxCell style="shape=stencil(3ZbBboMwDIafJsdNIWnLOE5su+04adcU0pEVEgS0ZW8/k8AKo6QIOHSTENS/8RfHMVYR9fOIpRwRLFnCEX1ChLy+vYNN4Rc8IqN52JgnY5K1MVme8qAw2k6UPDRyXmRqz08iLOpwISOeiaLy0meEH+Gd6qJ+oKQEglAy73hafoAxISEWlwZWp/JVW/dNMoi8TGYsgHAnMJwF0miCfiB4swTFW12mUB+UoWOj/pYF+49MHWR4ce2UVS3RczTuWEj+qYQESz90Llt+5LFtS010oo588HzGAKrlzwDSLYkzH/EwAdHdhjebsLb22BgCHUUIYpXzq2/tRBybaWFpWNB7faPVgWYDrMq4pQvb8wlm2nlOXflyqqoELAWjuusIs4g1SufeHrDJocS/R6Gtk+9Ip/6E2OfEQCu6HcjqFg7RViFnRoXGbe5v14fMqM/G/S8dpNXe165V88dGC98=);rounded=1;fontSize=7;align=right;spacingRight=0;spacingBottom=0;fontStyle=1;spacing=0;arcSize=19;fillColor=#d5e8d4;strokeColor=#000000;" parent="Haz_8EwUBin59iLyk_8Q-26" vertex="1">
            <mxGeometry x="332" y="304" width="20" height="34" as="geometry" />
          </mxCell>
        </UserObject>
        <UserObject label="Terminal" link="#terminal" tags="simple pipeline forwarding" id="HRoSpS79B9qHWH9jaoA8-25">
          <mxCell style="rounded=1;arcSize=17;fontSize=6;fontFamily=sans-serif;fontStyle=1;verticalAlign=middle;align=center;labelPosition=center;verticalLabelPosition=middle;labelBackgroundColor=none;fillColor=#DEDEDE;strokeColor=#000000;fontColor=#333333;" parent="Haz_8EwUBin59iLyk_8Q-26" vertex="1">
            <mxGeometry x="529" y="257" width="45" height="16" as="geometry" />
          </mxCell>
        </UserObject>
        <UserObject label="" tags="simple pipeline forwarding" component="mux2" source="mem-BranchOutcome" id="dQApTKY7MUPNvbngPjsP-5">
          <mxCell style="shape=stencil(3VXBUoMwEP2aHHUgEVuODtpbj854TWErsTRhANv6924SaBuRtBM9OM4whH2bfdlsXhbCsrbkNRAaSb4Fwh4JpcvnF7QpfuFQWiyNrLm3Jkusydsa8s5ia3GAwsJt16gN7EXR9eFCltCITnvZE4kecI5+WJYrKZFBKNk6njM/knEhMTY6WLI+lY/euh2SIXQRzHEfwBF/4QhJYwg6kkQhmYxp0qmisAyRqaqzbMXzzWuj3mXx7eI11yc6cgzuSkh4U0KiZQaTzAp2UPn2NERv1Q4mT+gaAr38iYC5NYm9db2KYhZA4W4jDdiHy5D8OAf/dTnKrFItXJy1FlVlL7tHsYiPdGPQCbEhrWrAo8Lz9oIt6dRm5v6ro6uS8xoN/TYRdhFv1AXNu6q9oW6tY39XmJDdzCG5+wsH9hvVSOb/pRoGHanUoPZ/aoBP);rounded=1;fontSize=7;align=right;spacingRight=0;spacingBottom=0;fontStyle=1;spacing=0;arcSize=19;flipV=1;fillColor=#d5e8d4;strokeColor=#000000;" parent="Haz_8EwUBin59iLyk_8Q-26" vertex="1">
            <mxGeometry x="52" y="266.50000000000006" width="20" height="27" as="geometry" />
          </mxCell>
        </UserObject>
        <UserObject label="" tags="forwarding simple pipeline" id="i2To6XwWsyNyerFe5G8K-6">
          <mxCell style="group" parent="Haz_8EwUBin59iLyk_8Q-26" vertex="1" connectable="0">
            <mxGeometry x="642" y="69" width="77" height="28" as="geometry" />
          </mxCell>
        </UserObject>
        <UserObject label="Cycles:" tags="simple pipeline forwarding" id="Haz_8EwUBin59iLyk_8Q-187">
          <mxCell style="text;strokeColor=none;fillColor=none;align=center;verticalAlign=middle;rounded=0;fontSize=6;fontFamily=sans-serif;spacing=0;fontStyle=1;labelPosition=center;verticalLabelPosition=middle;labelBackgroundColor=none;spacingBottom=1;" parent="i2To6XwWsyNyerFe5G8K-6" vertex="1">
            <mxGeometry x="2" y="1" width="41" height="8" as="geometry" />
          </mxCell>
        </UserObject>
        <UserObject label="Stalls:" tags="simple pipeline forwarding" id="Haz_8EwUBin59iLyk_8Q-188">
          <mxCell style="text;strokeColor=none;fillColor=none;align=center;verticalAlign=middle;rounded=0;fontSize=6;fontFamily=sans-serif;spacing=0;fontStyle=1;labelPosition=center;verticalLabelPosition=middle;labelBackgroundColor=none;spacingBottom=1;" parent="i2To6XwWsyNyerFe5G8K-6" vertex="1">
            <mxGeometry y="16" width="41" height="8" as="geometry" />
          </mxCell>
        </UserObject>
        <object label="0" component="debug-value" source="CycleCount" tags="simple hazardunit pipeline forwarding" id="uWEq7-W_z53UrtFael4O-78">
          <mxCell style="text;strokeColor=none;fillColor=none;align=left;verticalAlign=middle;rounded=0;fontFamily=sans-serif;fontSize=9;fontColor=#000000;fontStyle=1;spacing=0;spacingBottom=1;" parent="i2To6XwWsyNyerFe5G8K-6" vertex="1">
            <mxGeometry x="37" width="40" height="10" as="geometry" />
          </mxCell>
        </object>
        <UserObject label="Privilege:" tags="simple pipeline forwarding" id="Haz_PrivilegeLabel">
          <mxCell style="text;strokeColor=none;fillColor=none;align=center;verticalAlign=middle;rounded=0;fontSize=6;fontFamily=sans-serif;fontStyle=1;spacing=0;labelPosition=center;verticalLabelPosition=middle;labelBackgroundColor=none;spacingBottom=1;" parent="i2To6XwWsyNyerFe5G8K-6" vertex="1">
            <mxGeometry x="2" y="30" width="41" height="8" as="geometry" />
          </mxCell>
        </UserObject>
        <object label="MACHINE" component="multi-text-value" source="Privilege" tags="simple hazardunit pipeline forwarding" id="uWEq7-PrivilegeValue">
          <mxCell style="text;strokeColor=none;fillColor=none;align=left;verticalAlign=middle;rounded=0;fontFamily=sans-serif;fontSize=9;fontColor=#000000;fontStyle=1;spacing=0;spacingBottom=1;" parent="i2To6XwWsyNyerFe5G8K-6" vertex="1">
            <mxGeometry x="37" y="27" width="40" height="10" as="geometry" />
          </mxCell>
        </object>
        <object label="0" component="debug-value" source="StallCount" tags="simple hazardunit pipeline forwarding" id="uWEq7-W_z53UrtFael4O-79">
          <mxCell style="text;strokeColor=none;fillColor=none;align=left;verticalAlign=middle;rounded=0;fontFamily=sans-serif;fontSize=9;fontColor=#000000;fontStyle=1;spacing=0;spacingBottom=1;" parent="i2To6XwWsyNyerFe5G8K-6" vertex="1">
            <mxGeometry x="37" y="14" width="40" height="10" as="geometry" />
          </mxCell>
        </object>
        <UserObject label="00000000" tags="simple pipeline forwarding" component="reg-value" source="decode-rs1" id="Haz_8EwUBin59iLyk_8Q-118">
          <mxCell style="rounded=1;fontFamily=sans-serif;fontSize=6;arcSize=1;align=center;spacing=0;" parent="Haz_8EwUBin59iLyk_8Q-26" vertex="1">
            <mxGeometry x="256" y="254" width="34" height="8" as="geometry" />
          </mxCell>
        </UserObject>
        <UserObject label="AuiPC" tags="simple pipeline forwarding" id="nrxDrlzc4rpCp8ehld49-5">
          <mxCell style="text;strokeColor=none;fillColor=default;align=left;verticalAlign=middle;rounded=0;fontFamily=sans-serif;fontSize=6;fontStyle=1;spacing=0;labelPosition=center;verticalLabelPosition=middle;labelBackgroundColor=default;fontColor=#0000FA;" parent="Haz_8EwUBin59iLyk_8Q-26" vertex="1">
            <mxGeometry x="235" y="190.5" width="20" height="4" as="geometry" />
          </mxCell>
        </UserObject>
        <UserObject label="" tags="forwarding hazardunit pipeline simple" id="hCaf9_x39W0CY-DPdxUN-16">
          <mxCell style="edgeStyle=orthogonalEdgeStyle;rounded=0;jumpStyle=none;orthogonalLoop=1;jettySize=auto;html=1;exitX=1;exitY=0.5;exitDx=0;exitDy=0;exitPerimeter=0;entryX=0;entryY=0.2;entryDx=0;entryDy=0;entryPerimeter=0;strokeWidth=2;labelBackgroundColor=none;endArrow=none;fontSize=6;fontFamily=sans-serif;strokeColor=#000000;sketch=0;shadow=0;endFill=0;" parent="Haz_8EwUBin59iLyk_8Q-26" source="i2To6XwWsyNyerFe5G8K-12" target="Haz_8EwUBin59iLyk_8Q-180" edge="1">
            <mxGeometry relative="1" as="geometry" />
          </mxCell>
        </UserObject>
        <UserObject label="" tags="simple pipeline forwarding" source="exec-AuiPC" component="mux2" id="i2To6XwWsyNyerFe5G8K-12">
          <mxCell style="shape=stencil(3VXBUoMwEP2aHHUgEVuODtpbj854TWErsTRhANv6924SaBuRtBM9OM4whH2bfdlsXhbCsrbkNRAaSb4Fwh4JpcvnF7QpfuFQWiyNrLm3Jkusydsa8s5ia3GAwsJt16gN7EXR9eFCltCITnvZE4kecI5+WJYrKZFBKNk6njM/knEhMTY6WLI+lY/euh2SIXQRzHEfwBF/4QhJYwg6kkQhmYxp0qmisAyRqaqzbMXzzWuj3mXx7eI11yc6cgzuSkh4U0KiZQaTzAp2UPn2NERv1Q4mT+gaAr38iYC5NYm9db2KYhZA4W4jDdiHy5D8OAf/dTnKrFItXJy1FlVlL7tHsYiPdGPQCbEhrWrAo8Lz9oIt6dRm5v6ro6uS8xoN/TYRdhFv1AXNu6q9oW6tY39XmJDdzCG5+wsH9hvVSOb/pRoGHanUoPZ/aoBP);rounded=1;fontSize=7;align=right;spacingRight=0;spacingBottom=0;fontStyle=1;spacing=0;arcSize=19;fillColor=#d5e8d4;strokeColor=#000000;" parent="Haz_8EwUBin59iLyk_8Q-26" vertex="1">
            <mxGeometry x="365" y="257" width="19" height="25" as="geometry" />
          </mxCell>
        </UserObject>
        <UserObject label="0" tags="forwarding" component="debug-value" source="exec-ForwardA" id="i2To6XwWsyNyerFe5G8K-16">
          <mxCell style="rounded=1;fontFamily=sans-serif;fontSize=6;arcSize=1;align=center;spacing=0;comic=0;allowArrows=0;connectable=0;recursiveResize=0;editable=0;expand=0;resizable=1;rotatable=0;resizeWidth=1;" parent="Haz_8EwUBin59iLyk_8Q-26" vertex="1">
            <mxGeometry x="335.25" y="236" width="15.5" height="8" as="geometry" />
          </mxCell>
        </UserObject>
        <UserObject label="" tags="simple pipeline forwarding" id="nrxDrlzc4rpCp8ehld49-12">
          <mxCell style="edgeStyle=orthogonalEdgeStyle;rounded=0;sketch=0;jumpStyle=none;jumpSize=4;orthogonalLoop=1;jettySize=auto;shadow=0;endArrow=none;endFill=0;strokeWidth=1;fontFamily=sans-serif;fontSize=6;verticalAlign=middle;align=center;labelPosition=center;verticalLabelPosition=middle;labelBackgroundColor=none;html=1;strokeColor=#3333FF;entryX=1.005;entryY=0.644;entryDx=0;entryDy=0;entryPerimeter=0;exitX=0;exitY=0.25;exitDx=0;exitDy=0;exitPerimeter=0;" parent="Haz_8EwUBin59iLyk_8Q-26" source="nrxDrlzc4rpCp8ehld49-40" target="Haz_8EwUBin59iLyk_8Q-85" edge="1">
            <mxGeometry relative="1" as="geometry">
              <Array as="points">
                <mxPoint x="442" y="165" />
                <mxPoint x="442" y="160" />
                <mxPoint x="216" y="160" />
                <mxPoint x="216" y="162" />
              </Array>
              <mxPoint x="444" y="165" as="sourcePoint" />
              <mxPoint x="224" y="159" as="targetPoint" />
            </mxGeometry>
          </mxCell>
        </UserObject>
        <UserObject label="0" tags="pipeline forwarding" component="bool-value" source="exec-BranchVal" id="nrxDrlzc4rpCp8ehld49-20">
          <mxCell style="rounded=1;fontFamily=sans-serif;fontSize=6;arcSize=1;align=center;spacing=0;comic=0;allowArrows=0;connectable=1;recursiveResize=0;editable=1;expand=0;resizable=1;rotatable=1;movable=1;deletable=1;spacingLeft=1;" parent="Haz_8EwUBin59iLyk_8Q-26" vertex="1">
            <mxGeometry x="322" y="156" width="7" height="8" as="geometry" />
          </mxCell>
        </UserObject>
        <UserObject label="BranchVal" tags="simple pipeline forwarding" id="nrxDrlzc4rpCp8ehld49-11">
          <mxCell style="text;strokeColor=none;fillColor=default;align=left;verticalAlign=middle;rounded=0;fontFamily=sans-serif;fontSize=6;fontStyle=1;spacing=0;labelPosition=center;verticalLabelPosition=middle;labelBackgroundColor=default;fontColor=#0000FA;" parent="Haz_8EwUBin59iLyk_8Q-26" vertex="1">
            <mxGeometry x="235" y="158" width="31" height="4.5" as="geometry" />
          </mxCell>
        </UserObject>
        <UserObject label="0" tags="simple pipeline forwarding" component="bool-value" source="decode-BranchBxx" id="uWEq7-W_z53UrtFael4O-77">
          <mxCell style="rounded=1;fontFamily=sans-serif;fontSize=6;arcSize=1;align=center;spacing=0;comic=0;allowArrows=0;connectable=1;recursiveResize=0;editable=1;expand=0;resizable=1;rotatable=1;movable=1;deletable=1;spacingLeft=1;" parent="Haz_8EwUBin59iLyk_8Q-26" vertex="1">
            <mxGeometry x="274" y="132" width="7" height="8" as="geometry" />
          </mxCell>
        </UserObject>
        <UserObject label="0" tags="simple pipeline forwarding" component="bool-value" source="decode-AuiPC" id="nrxDrlzc4rpCp8ehld49-31">
          <mxCell style="rounded=1;fontFamily=sans-serif;fontSize=6;arcSize=1;align=center;spacing=0;comic=0;allowArrows=0;connectable=1;recursiveResize=0;editable=1;expand=0;resizable=1;rotatable=1;movable=1;deletable=1;spacingLeft=1;" parent="Haz_8EwUBin59iLyk_8Q-26" vertex="1">
            <mxGeometry x="287.25" y="188" width="7" height="8" as="geometry" />
          </mxCell>
        </UserObject>
        <UserObject label="" tags="simple pipeline forwarding" id="nrxDrlzc4rpCp8ehld49-25">
          <mxCell style="edgeStyle=orthogonalEdgeStyle;rounded=0;sketch=0;jumpStyle=none;jumpSize=4;orthogonalLoop=1;jettySize=auto;shadow=0;endArrow=none;endFill=0;strokeColor=#3333FF;strokeWidth=1;fontFamily=sans-serif;fontSize=6;verticalAlign=middle;align=center;labelPosition=center;verticalLabelPosition=middle;labelBackgroundColor=none;html=1;exitX=0;exitY=0.25;exitDx=0;exitDy=0;exitPerimeter=0;" parent="Haz_8EwUBin59iLyk_8Q-26" source="8Br1XOdIxK8N6TFEatcO-5" target="Haz_8EwUBin59iLyk_8Q-85" edge="1">
            <mxGeometry relative="1" as="geometry">
              <Array as="points">
                <mxPoint x="229" y="144" />
                <mxPoint x="229" y="144" />
              </Array>
              <mxPoint x="563" y="427" as="sourcePoint" />
              <mxPoint x="211" y="147" as="targetPoint" />
            </mxGeometry>
          </mxCell>
        </UserObject>
        <UserObject label="0" tags="pipeline forwarding" component="bool-value" source="exec-BranchJal" id="nrxDrlzc4rpCp8ehld49-33">
          <mxCell style="rounded=1;fontFamily=sans-serif;fontSize=6;arcSize=1;align=center;spacing=0;comic=0;allowArrows=0;connectable=1;recursiveResize=0;editable=1;expand=0;resizable=1;rotatable=1;movable=1;deletable=1;spacingLeft=1;" parent="Haz_8EwUBin59iLyk_8Q-26" vertex="1">
            <mxGeometry x="322" y="140" width="7" height="8" as="geometry" />
          </mxCell>
        </UserObject>
        <UserObject label="0" tags="simple pipeline forwarding" component="bool-value" source="decode-BranchJal" id="nrxDrlzc4rpCp8ehld49-29">
          <mxCell style="rounded=1;fontFamily=sans-serif;fontSize=6;arcSize=1;align=center;spacing=0;comic=0;allowArrows=0;connectable=1;recursiveResize=0;editable=1;expand=0;resizable=1;rotatable=1;movable=1;deletable=1;spacingLeft=1;" parent="Haz_8EwUBin59iLyk_8Q-26" vertex="1">
            <mxGeometry x="287.25" y="140" width="7" height="8" as="geometry" />
          </mxCell>
        </UserObject>
        <UserObject label="0" tags="simple pipeline forwarding" component="debug-value" source="exec-AluControl" id="nrxDrlzc4rpCp8ehld49-34">
          <mxCell style="rounded=1;fontFamily=sans-serif;fontSize=6;arcSize=1;align=center;spacing=0;comic=0;allowArrows=0;connectable=1;recursiveResize=0;editable=1;expand=0;resizable=1;rotatable=1;resizeWidth=1;movable=1;deletable=1;" parent="Haz_8EwUBin59iLyk_8Q-26" vertex="1">
            <mxGeometry x="428" y="245" width="15.5" height="8" as="geometry" />
          </mxCell>
        </UserObject>
        <UserObject label="" tags="forwarding simple pipeline" id="jkDunDTEjqUDAv3C6Bv7-5">
          <mxCell style="edgeStyle=orthogonalEdgeStyle;rounded=0;orthogonalLoop=1;jettySize=auto;html=1;entryX=0;entryY=0.5;entryDx=0;entryDy=0;entryPerimeter=0;labelBackgroundColor=none;endArrow=none;fontSize=6;fontFamily=sans-serif;strokeColor=#3333FF;sketch=0;shadow=0;endFill=0;strokeWidth=1;exitX=1;exitY=0.5;exitDx=0;exitDy=0;exitPerimeter=0;" parent="Haz_8EwUBin59iLyk_8Q-26" source="nrxDrlzc4rpCp8ehld49-40" target="Haz_8EwUBin59iLyk_8Q-84" edge="1">
            <mxGeometry relative="1" as="geometry">
              <mxPoint x="490" y="162" as="sourcePoint" />
              <mxPoint x="498" y="163.25" as="targetPoint" />
              <Array as="points" />
            </mxGeometry>
          </mxCell>
        </UserObject>
        <UserObject label="" tags="simple pipeline forwarding" id="nrxDrlzc4rpCp8ehld49-40">
          <mxCell style="verticalLabelPosition=bottom;shadow=0;dashed=0;align=center;html=1;verticalAlign=top;shape=mxgraph.electrical.logic_gates.logic_gate;operation=xor;fontColor=#3333FF;strokeColor=#3333FF;strokeWidth=1;perimeterSpacing=0;" parent="Haz_8EwUBin59iLyk_8Q-26" vertex="1">
            <mxGeometry x="470" y="163" width="9" height="8" as="geometry" />
          </mxCell>
        </UserObject>
        <UserObject label="" tags="forwarding pipeline" id="nrxDrlzc4rpCp8ehld49-42">
          <mxCell style="group" parent="Haz_8EwUBin59iLyk_8Q-26" vertex="1" connectable="0">
            <mxGeometry x="127" y="85" width="42" height="320" as="geometry" />
          </mxCell>
        </UserObject>
        <UserObject label="IF/ID" tags="simple pipeline forwarding" id="Haz_8EwUBin59iLyk_8Q-202">
          <mxCell style="text;strokeColor=none;fillColor=none;align=center;verticalAlign=middle;rounded=0;fontSize=6;fontFamily=sans-serif;spacing=0;fontStyle=1;labelPosition=center;verticalLabelPosition=middle;labelBackgroundColor=none;spacingBottom=1;" parent="nrxDrlzc4rpCp8ehld49-42" vertex="1">
            <mxGeometry width="42" height="6.228710462287104" as="geometry" />
          </mxCell>
        </UserObject>
        <UserObject label="" tags="pipeline forwarding" id="Haz_8EwUBin59iLyk_8Q-203">
          <mxCell style="group;fillColor=#d5e8d4;strokeColor=#82b366;" parent="nrxDrlzc4rpCp8ehld49-42" vertex="1" connectable="0">
            <mxGeometry x="23" y="9.732360097323598" width="6" height="310.26763990267636" as="geometry" />
          </mxCell>
        </UserObject>
        <UserObject label="" tags="simple pipeline forwarding" id="Haz_8EwUBin59iLyk_8Q-204">
          <mxCell style="rounded=0;whiteSpace=wrap;html=1;fontFamily=sans-serif;fontSize=6;align=left;fillColor=#d5e8d4;strokeColor=#000000;" parent="Haz_8EwUBin59iLyk_8Q-203" vertex="1">
            <mxGeometry width="6" height="310.26763990267636" as="geometry" />
          </mxCell>
        </UserObject>
        <UserObject label="" tags="simple pipeline forwarding" id="Haz_8EwUBin59iLyk_8Q-205">
          <mxCell style="triangle;whiteSpace=wrap;html=1;rounded=0;fontFamily=sans-serif;fontSize=6;align=left;direction=south;fillColor=#d5e8d4;strokeColor=#000000;" parent="Haz_8EwUBin59iLyk_8Q-203" vertex="1">
            <mxGeometry x="0.5" width="5" height="3.503649635036495" as="geometry" />
          </mxCell>
        </UserObject>
        <UserObject label="" tags="simple pipeline forwarding" component="mux2" source="mem-BranchJalx" id="dX68U42Ih_FQ-UEPESkK-6">
          <mxCell style="shape=stencil(3VXBUoMwEP2aHHUgEVuODtpbj854TWErsTRhANv6924SaBuRtBM9OM4whH2bfdlsXhbCsrbkNRAaSb4Fwh4JpcvnF7QpfuFQWiyNrLm3Jkusydsa8s5ia3GAwsJt16gN7EXR9eFCltCITnvZE4kecI5+WJYrKZFBKNk6njM/knEhMTY6WLI+lY/euh2SIXQRzHEfwBF/4QhJYwg6kkQhmYxp0qmisAyRqaqzbMXzzWuj3mXx7eI11yc6cgzuSkh4U0KiZQaTzAp2UPn2NERv1Q4mT+gaAr38iYC5NYm9db2KYhZA4W4jDdiHy5D8OAf/dTnKrFItXJy1FlVlL7tHsYiPdGPQCbEhrWrAo8Lz9oIt6dRm5v6ro6uS8xoN/TYRdhFv1AXNu6q9oW6tY39XmJDdzCG5+wsH9hvVSOb/pRoGHanUoPZ/aoBP);rounded=1;fontSize=7;align=right;spacingRight=0;spacingBottom=0;fontStyle=1;spacing=0;arcSize=19;fillColor=#d5e8d4;strokeColor=#000000;" parent="Haz_8EwUBin59iLyk_8Q-26" vertex="1">
            <mxGeometry x="488" y="367" width="38" height="27" as="geometry" />
          </mxCell>
        </UserObject>
        <UserObject label="" tags="forwarding simple pipeline" id="dX68U42Ih_FQ-UEPESkK-10">
          <mxCell style="ellipse;whiteSpace=wrap;html=1;aspect=fixed;rounded=0;fillColor=#0;strokeWidth=2;labelBackgroundColor=default;" parent="Haz_8EwUBin59iLyk_8Q-26" vertex="1">
            <mxGeometry x="84" y="362" width="2" height="2" as="geometry" />
          </mxCell>
        </UserObject>
        <UserObject label="" tags="forwarding simple pipeline" id="dX68U42Ih_FQ-UEPESkK-12">
          <mxCell style="edgeStyle=orthogonalEdgeStyle;rounded=0;jumpStyle=none;orthogonalLoop=1;jettySize=auto;html=1;exitX=0.5;exitY=0;exitDx=0;exitDy=0;entryX=1;entryY=0.5;entryDx=0;entryDy=0;entryPerimeter=0;strokeWidth=2;shadow=0;fontFamily=sans-serif;fontSize=6;labelBackgroundColor=none;endFill=0;endArrow=none;sketch=0;" parent="Haz_8EwUBin59iLyk_8Q-26" source="dX68U42Ih_FQ-UEPESkK-11" target="Haz_8EwUBin59iLyk_8Q-219" edge="1">
            <mxGeometry relative="1" as="geometry">
              <Array as="points">
                <mxPoint x="125" y="351" />
              </Array>
            </mxGeometry>
          </mxCell>
        </UserObject>
        <UserObject label="" tags="forwarding simple pipeline" id="dX68U42Ih_FQ-UEPESkK-11">
          <mxCell style="ellipse;whiteSpace=wrap;html=1;aspect=fixed;rounded=0;fillColor=#0;strokeWidth=2;" parent="Haz_8EwUBin59iLyk_8Q-26" vertex="1">
            <mxGeometry x="124" y="383" width="2" height="2" as="geometry" />
          </mxCell>
        </UserObject>
        <UserObject label="" tags="forwarding simple pipeline" id="dX68U42Ih_FQ-UEPESkK-14">
          <mxCell style="edgeStyle=orthogonalEdgeStyle;rounded=0;jumpStyle=none;orthogonalLoop=1;jettySize=auto;html=1;entryX=0.5;entryY=0;entryDx=0;entryDy=0;strokeWidth=2;shadow=0;fontFamily=sans-serif;fontSize=6;labelBackgroundColor=none;endFill=0;endArrow=none;sketch=0;exitX=0.5;exitY=1;exitDx=0;exitDy=0;" parent="Haz_8EwUBin59iLyk_8Q-26" source="dX68U42Ih_FQ-UEPESkK-13" target="dX68U42Ih_FQ-UEPESkK-10" edge="1">
            <mxGeometry relative="1" as="geometry">
              <mxPoint x="86.00671140939596" y="289.1156623351651" as="sourcePoint" />
              <mxPoint x="84.5" y="371" as="targetPoint" />
              <Array as="points" />
            </mxGeometry>
          </mxCell>
        </UserObject>
        <UserObject label="" tags="forwarding simple pipeline" id="dX68U42Ih_FQ-UEPESkK-13">
          <mxCell style="ellipse;whiteSpace=wrap;html=1;aspect=fixed;rounded=0;fillColor=#0;strokeWidth=2;" parent="Haz_8EwUBin59iLyk_8Q-26" vertex="1">
            <mxGeometry x="84" y="279" width="2" height="2" as="geometry" />
          </mxCell>
        </UserObject>
        <UserObject label="" tags="forwarding simple pipeline" id="dX68U42Ih_FQ-UEPESkK-15">
          <mxCell style="edgeStyle=orthogonalEdgeStyle;rounded=0;sketch=0;jumpStyle=arc;jumpSize=4;orthogonalLoop=1;jettySize=auto;html=1;exitX=1;exitY=0.5;exitDx=0;exitDy=0;entryX=0;entryY=0.5;entryDx=0;entryDy=0;shadow=0;labelBackgroundColor=none;fontFamily=sans-serif;fontSize=6;endArrow=none;endFill=0;strokeWidth=2;" parent="Haz_8EwUBin59iLyk_8Q-26" source="Haz_8EwUBin59iLyk_8Q-177" target="dX68U42Ih_FQ-UEPESkK-13" edge="1">
            <mxGeometry relative="1" as="geometry" />
          </mxCell>
        </UserObject>
        <UserObject label="" tags="forwarding simple pipeline" id="hCaf9_x39W0CY-DPdxUN-0">
          <mxCell style="ellipse;whiteSpace=wrap;html=1;aspect=fixed;rounded=0;fillColor=#0;strokeWidth=2;" parent="Haz_8EwUBin59iLyk_8Q-26" vertex="1">
            <mxGeometry x="164" y="275" width="2" height="2" as="geometry" />
          </mxCell>
        </UserObject>
        <UserObject label="" tags="forwarding simple pipeline" id="hCaf9_x39W0CY-DPdxUN-2">
          <mxCell style="edgeStyle=orthogonalEdgeStyle;rounded=0;jumpStyle=none;orthogonalLoop=1;jettySize=auto;html=1;exitX=0.5;exitY=0;exitDx=0;exitDy=0;entryX=0.5;entryY=1;entryDx=0;entryDy=0;strokeWidth=2;labelBackgroundColor=none;endArrow=none;fontSize=6;fontFamily=sans-serif;strokeColor=#000000;sketch=0;shadow=0;endFill=0;" parent="Haz_8EwUBin59iLyk_8Q-26" source="hCaf9_x39W0CY-DPdxUN-1" target="hCaf9_x39W0CY-DPdxUN-0" edge="1">
            <mxGeometry relative="1" as="geometry" />
          </mxCell>
        </UserObject>
        <UserObject label="" tags="forwarding simple pipeline" id="hCaf9_x39W0CY-DPdxUN-1">
          <mxCell style="ellipse;whiteSpace=wrap;html=1;aspect=fixed;rounded=0;fillColor=#0;strokeWidth=2;" parent="Haz_8EwUBin59iLyk_8Q-26" vertex="1">
            <mxGeometry x="164" y="290" width="2" height="2" as="geometry" />
          </mxCell>
        </UserObject>
        <UserObject label="rs2" tags="simple pipeline forwarding" id="Haz_8EwUBin59iLyk_8Q-104">
          <mxCell style="text;strokeColor=none;fillColor=default;align=center;verticalAlign=middle;rounded=0;fontSize=6;fontFamily=sans-serif;spacing=0;fontStyle=1;labelPosition=center;verticalLabelPosition=middle;labelBackgroundColor=none;spacingBottom=1;" parent="Haz_8EwUBin59iLyk_8Q-26" vertex="1">
            <mxGeometry x="174" y="287" width="12" height="8" as="geometry" />
          </mxCell>
        </UserObject>
        <UserObject label="" tags="forwarding simple pipeline" id="hCaf9_x39W0CY-DPdxUN-3">
          <mxCell style="ellipse;whiteSpace=wrap;html=1;aspect=fixed;rounded=0;fillColor=#0;strokeWidth=2;" parent="Haz_8EwUBin59iLyk_8Q-26" vertex="1">
            <mxGeometry x="164" y="397" width="2" height="2" as="geometry" />
          </mxCell>
        </UserObject>
        <UserObject label="" tags="forwarding simple pipeline" id="hCaf9_x39W0CY-DPdxUN-6">
          <mxCell style="edgeStyle=orthogonalEdgeStyle;rounded=0;jumpStyle=none;orthogonalLoop=1;jettySize=auto;html=1;exitX=0.5;exitY=1;exitDx=0;exitDy=0;strokeWidth=2;entryX=0.5;entryY=1;entryDx=0;entryDy=0;labelBackgroundColor=none;endArrow=none;fontSize=6;fontFamily=sans-serif;strokeColor=#000000;sketch=0;shadow=0;endFill=0;" parent="Haz_8EwUBin59iLyk_8Q-26" source="hCaf9_x39W0CY-DPdxUN-5" target="hCaf9_x39W0CY-DPdxUN-3" edge="1">
            <mxGeometry relative="1" as="geometry">
              <mxPoint x="167" y="453.4876033057851" as="targetPoint" />
              <Array as="points">
                <mxPoint x="165" y="400" />
                <mxPoint x="165" y="400" />
              </Array>
            </mxGeometry>
          </mxCell>
        </UserObject>
        <UserObject label="" tags="forwarding simple pipeline" id="hCaf9_x39W0CY-DPdxUN-5">
          <mxCell style="ellipse;whiteSpace=wrap;html=1;aspect=fixed;rounded=0;fillColor=#0;strokeWidth=2;" parent="Haz_8EwUBin59iLyk_8Q-26" vertex="1">
            <mxGeometry x="164" y="355" width="2" height="2" as="geometry" />
          </mxCell>
        </UserObject>
        <UserObject label="" tags="forwarding simple pipeline" id="hCaf9_x39W0CY-DPdxUN-8">
          <mxCell style="ellipse;whiteSpace=wrap;html=1;aspect=fixed;rounded=0;fillColor=#0;strokeWidth=2;" parent="Haz_8EwUBin59iLyk_8Q-26" vertex="1">
            <mxGeometry x="373" y="355" width="2" height="2" as="geometry" />
          </mxCell>
        </UserObject>
        <UserObject label="00000000" tags="simple pipeline forwarding" component="reg-value" source="decode-imm" id="uWEq7-W_z53UrtFael4O-38">
          <mxCell style="rounded=1;fontFamily=sans-serif;fontSize=6;arcSize=1;align=center;spacing=0;" parent="Haz_8EwUBin59iLyk_8Q-26" vertex="1">
            <mxGeometry x="256" y="352" width="34" height="8" as="geometry" />
          </mxCell>
        </UserObject>
        <UserObject label="" tags="forwarding" id="hCaf9_x39W0CY-DPdxUN-10">
          <mxCell style="ellipse;whiteSpace=wrap;html=1;aspect=fixed;rounded=0;fillColor=#0;strokeWidth=2;" parent="Haz_8EwUBin59iLyk_8Q-26" vertex="1">
            <mxGeometry x="321" y="320" width="2" height="2" as="geometry" />
          </mxCell>
        </UserObject>
        <UserObject label="" tags="forwarding" id="hCaf9_x39W0CY-DPdxUN-12">
          <mxCell style="ellipse;whiteSpace=wrap;html=1;aspect=fixed;rounded=0;fillColor=#0;strokeWidth=2;" parent="Haz_8EwUBin59iLyk_8Q-26" vertex="1">
            <mxGeometry x="328" y="328" width="2" height="2" as="geometry" />
          </mxCell>
        </UserObject>
        <UserObject label="" tags="forwarding simple pipeline" id="hCaf9_x39W0CY-DPdxUN-15">
          <mxCell style="edgeStyle=orthogonalEdgeStyle;rounded=0;jumpStyle=none;orthogonalLoop=1;jettySize=auto;html=1;exitX=1;exitY=0.5;exitDx=0;exitDy=0;entryX=0;entryY=0.35;entryDx=0;entryDy=0;entryPerimeter=0;strokeWidth=2;labelBackgroundColor=none;endArrow=none;fontSize=6;fontFamily=sans-serif;strokeColor=#000000;sketch=0;shadow=0;endFill=0;" parent="Haz_8EwUBin59iLyk_8Q-26" source="hCaf9_x39W0CY-DPdxUN-13" target="Haz_8EwUBin59iLyk_8Q-113" edge="1">
            <mxGeometry relative="1" as="geometry" />
          </mxCell>
        </UserObject>
        <UserObject label="" tags="forwarding simple pipeline" id="hCaf9_x39W0CY-DPdxUN-13">
          <mxCell style="ellipse;whiteSpace=wrap;html=1;aspect=fixed;rounded=0;fillColor=#0;strokeWidth=2;" parent="Haz_8EwUBin59iLyk_8Q-26" vertex="1">
            <mxGeometry x="365" y="320" width="2" height="2" as="geometry" />
          </mxCell>
        </UserObject>
        <UserObject label="00000000" tags="forwarding pipeline simple" component="reg-value" source="alu-src1" id="HRoSpS79B9qHWH9jaoA8-23">
          <mxCell style="rounded=1;fontFamily=sans-serif;fontSize=6;arcSize=1;align=center;direction=south;spacing=0;horizontal=0;" parent="Haz_8EwUBin59iLyk_8Q-26" vertex="1">
            <mxGeometry x="396" y="252" width="8" height="33.5" as="geometry" />
          </mxCell>
        </UserObject>
        <UserObject label="0" tags="simple pipeline forwarding" component="bool-value" source="decode-BranchVal" id="nrxDrlzc4rpCp8ehld49-19">
          <mxCell style="rounded=1;fontFamily=sans-serif;fontSize=6;arcSize=1;align=center;spacing=0;comic=0;allowArrows=0;connectable=1;recursiveResize=0;editable=1;expand=0;resizable=1;rotatable=1;movable=1;deletable=1;spacingLeft=1;" parent="Haz_8EwUBin59iLyk_8Q-26" vertex="1">
            <mxGeometry x="287.25" y="156" width="7" height="7.861183012175247" as="geometry" />
          </mxCell>
        </UserObject>
        <UserObject label="" tags="forwarding pipeline simple" id="Haz_8EwUBin59iLyk_8Q-221">
          <mxCell style="group;html=0;" parent="Haz_8EwUBin59iLyk_8Q-26" vertex="1" connectable="0">
            <mxGeometry x="347" y="351.5" width="20" height="28.000000000000004" as="geometry" />
          </mxCell>
        </UserObject>
        <UserObject label="" tags="forwarding simple pipeline" id="hCaf9_x39W0CY-DPdxUN-19">
          <mxCell style="group" parent="Haz_8EwUBin59iLyk_8Q-221" connectable="0" vertex="1">
            <mxGeometry x="76" y="1" width="20" height="30" as="geometry" />
          </mxCell>
        </UserObject>
        <UserObject label="" tags="simple pipeline forwarding" id="Haz_8EwUBin59iLyk_8Q-222">
          <mxCell style="shape=stencil(rZTdcoIwEIWfJrcOJOropUPbq972ASKssjUmDKH+vL1LAlrkpxadYWDOOdkvIdkJE5FNZQaMB1rugYk3xvnq84veZKVeLwMvj16KSkqbQVx4b4MnSLxti9zs4IhJUZWjTiHHokzFOwtWNKZ8RBQbrYmARttG8isnmERNtcHJw6q5z5WacK8Z/xiNWPwfEd4hZiNWURddIeH0FZTFvJsiInL6dlxEaxnvtrn50Unn3JksT7MV1LFCDd8GNSn3cWtZwwHU0C/V1XtzgN7jeQRQTn8DiCZBPI+Yj0A0CcunCbPBHusmhE3EdATibi8fIsTKWPhz1AaV8nfFQM+T32o95/b0K2FNDp0BFbUy5/oL0BkX);rounded=1;fontSize=6;align=center;spacingRight=0;spacingBottom=0;fontStyle=1;spacing=0;fontFamily=sans-serif;verticalAlign=middle;labelPosition=center;verticalLabelPosition=middle;labelBackgroundColor=none;html=1;fillColor=#d5e8d4;strokeColor=#000000;" parent="hCaf9_x39W0CY-DPdxUN-19" vertex="1">
            <mxGeometry width="20" height="30.000000000000007" as="geometry" />
          </mxCell>
        </UserObject>
        <UserObject label="" tags="simple pipeline forwarding" id="Haz_8EwUBin59iLyk_8Q-223">
          <mxCell style="shape=stencil(xVPtDoIgFH0a/iPMB2hW78ESk0JggGlvHx9qqdM1q7Wx3d1z7j0c2L0AZ6YkigIEBakowHuAkOK1ccFhZQQSCGPeTHJiFD3ZCBaspXmEjdXyShuW206AiZJqZj2LDwDuXI0/OCukpmcta5GPiJ5WxCvMiJ7mTNCLZMJlIYS7olrwAdBxpfvVpXva022SvtNeyZv/tjb2pN2P3MfpuoT3vyjxucIWE19/xhaJYb7+a2MiMbj6uY2CcR6nc7EUZw6frUdAZzsV0LjmAXgA);rounded=1;fontSize=6;align=center;spacingRight=0;spacingBottom=0;fontStyle=1;spacing=0;fontFamily=sans-serif;verticalAlign=middle;labelPosition=center;verticalLabelPosition=middle;labelBackgroundColor=none;html=1;" parent="hCaf9_x39W0CY-DPdxUN-19" vertex="1">
            <mxGeometry x="10" y="8.26923076923077" width="4" height="13.46153846153846" as="geometry" />
          </mxCell>
        </UserObject>
        <UserObject label="" tags="forwarding pipeline simple" id="hCaf9_x39W0CY-DPdxUN-23">
          <mxCell style="edgeStyle=orthogonalEdgeStyle;rounded=0;jumpStyle=none;orthogonalLoop=1;jettySize=auto;html=1;entryX=0;entryY=0.65;entryDx=0;entryDy=0;entryPerimeter=0;strokeWidth=2;labelBackgroundColor=none;endArrow=none;fontSize=6;fontFamily=sans-serif;strokeColor=#000000;sketch=0;shadow=0;endFill=0;exitX=0.5;exitY=0;exitDx=0;exitDy=0;" parent="Haz_8EwUBin59iLyk_8Q-26" source="q-6THzIC0rTZull3DPy9-47" edge="1">
            <mxGeometry relative="1" as="geometry">
              <Array as="points">
                <mxPoint x="358" y="272" />
              </Array>
              <mxPoint x="358" y="382" as="sourcePoint" />
              <mxPoint x="369.6388888888889" y="272.25" as="targetPoint" />
            </mxGeometry>
          </mxCell>
        </UserObject>
        <UserObject label="" tags="forwarding pipeline simple" id="8Br1XOdIxK8N6TFEatcO-2">
          <mxCell style="edgeStyle=orthogonalEdgeStyle;rounded=0;orthogonalLoop=1;jettySize=auto;html=1;exitX=1;exitY=0.5;exitDx=0;exitDy=0;labelBackgroundColor=none;endArrow=none;fontSize=6;fontFamily=sans-serif;endFill=0;shadow=0;strokeWidth=2;sketch=0;entryX=0;entryY=0.65;entryDx=0;entryDy=0;entryPerimeter=0;" parent="Haz_8EwUBin59iLyk_8Q-26" source="hCaf9_x39W0CY-DPdxUN-22" target="dX68U42Ih_FQ-UEPESkK-6" edge="1">
            <mxGeometry relative="1" as="geometry">
              <mxPoint x="512" y="382" as="targetPoint" />
              <Array as="points">
                <mxPoint x="438" y="385" />
              </Array>
            </mxGeometry>
          </mxCell>
        </UserObject>
        <UserObject label="" tags="forwarding simple pipeline" id="hCaf9_x39W0CY-DPdxUN-22">
          <mxCell style="square;whiteSpace=wrap;html=1;aspect=fixed;rounded=0;fillColor=#0;strokeWidth=2;strokeColor=none;" parent="Haz_8EwUBin59iLyk_8Q-26" vertex="1">
            <mxGeometry x="357" y="383" width="2" height="2" as="geometry" />
          </mxCell>
        </UserObject>
        <UserObject label="AluSrc" tags="simple pipeline forwarding" id="Haz_8EwUBin59iLyk_8Q-195">
          <mxCell style="text;strokeColor=none;fillColor=default;align=left;verticalAlign=middle;rounded=0;fontFamily=sans-serif;fontSize=6;fontStyle=1;spacing=0;labelPosition=center;verticalLabelPosition=middle;labelBackgroundColor=default;fontColor=#0000FA;" parent="Haz_8EwUBin59iLyk_8Q-26" vertex="1">
            <mxGeometry x="235" y="182" width="22" height="4" as="geometry" />
          </mxCell>
        </UserObject>
        <UserObject label="BranchJal" tags="simple pipeline forwarding" id="nrxDrlzc4rpCp8ehld49-24">
          <mxCell style="text;strokeColor=none;fillColor=default;align=left;verticalAlign=middle;rounded=0;fontFamily=sans-serif;fontSize=6;fontStyle=1;spacing=0;labelPosition=center;verticalLabelPosition=middle;labelBackgroundColor=default;fontColor=#0000FA;" parent="Haz_8EwUBin59iLyk_8Q-26" vertex="1">
            <mxGeometry x="235" y="141" width="31" height="5" as="geometry" />
          </mxCell>
        </UserObject>
        <UserObject label="" tags="forwarding pipeline" id="MQ-_pNAwyqKnrvp0fqe7-0">
          <mxCell style="group" parent="Haz_8EwUBin59iLyk_8Q-26" connectable="0" vertex="1">
            <mxGeometry x="280" y="83" width="42" height="321" as="geometry" />
          </mxCell>
        </UserObject>
        <UserObject label="" tags="pipeline forwarding" id="Haz_8EwUBin59iLyk_8Q-158">
          <mxCell style="group;fillColor=#d5e8d4;strokeColor=#000000;" parent="MQ-_pNAwyqKnrvp0fqe7-0" vertex="1" connectable="0">
            <mxGeometry x="18" y="10.779901289462089" width="6" height="310.2200987105379" as="geometry" />
          </mxCell>
        </UserObject>
        <UserObject label="" tags="simple forwarding" id="Haz_8EwUBin59iLyk_8Q-160">
          <mxCell style="triangle;whiteSpace=wrap;html=1;rounded=0;fontFamily=sans-serif;fontSize=6;fontColor=#0000CC;align=left;direction=south;" parent="Haz_8EwUBin59iLyk_8Q-158" vertex="1">
            <mxGeometry x="0.5" width="5" height="3.494344040544233" as="geometry" />
          </mxCell>
        </UserObject>
        <UserObject label="" tags="pipeline forwarding" id="Haz_8EwUBin59iLyk_8Q-161">
          <mxCell style="group" parent="Haz_8EwUBin59iLyk_8Q-158" vertex="1" connectable="0">
            <mxGeometry width="6" height="309.4435778126393" as="geometry" />
          </mxCell>
        </UserObject>
        <UserObject label="" tags="pipeline forwarding" id="Haz_8EwUBin59iLyk_8Q-163">
          <mxCell style="triangle;whiteSpace=wrap;html=1;rounded=0;fontFamily=sans-serif;fontSize=6;align=left;direction=south;fillColor=#d5e8d4;strokeColor=#000000;" parent="Haz_8EwUBin59iLyk_8Q-161" vertex="1">
            <mxGeometry x="0.5" width="5" height="3.494344040544233" as="geometry" />
          </mxCell>
        </UserObject>
        <UserObject label="ID/EX" tags="pipeline forwarding" id="Haz_8EwUBin59iLyk_8Q-133">
          <mxCell style="text;strokeColor=none;fillColor=none;align=center;verticalAlign=middle;rounded=0;fontSize=6;fontFamily=sans-serif;spacing=0;fontStyle=1;labelPosition=center;verticalLabelPosition=middle;labelBackgroundColor=none;spacingBottom=1;" parent="MQ-_pNAwyqKnrvp0fqe7-0" vertex="1">
            <mxGeometry width="42" height="8.70467379316206" as="geometry" />
          </mxCell>
        </UserObject>
        <UserObject label="00000000" tags="pipeline forwarding" component="reg-value" source="exec-rs1" id="Haz_8EwUBin59iLyk_8Q-117">
          <mxCell style="rounded=1;fontFamily=sans-serif;fontSize=6;arcSize=1;align=center;direction=south;spacing=0;horizontal=0;" parent="MQ-_pNAwyqKnrvp0fqe7-0" vertex="1">
            <mxGeometry x="30" y="158.0357142857143" width="7" height="32.48214285714286" as="geometry" />
          </mxCell>
        </UserObject>
        <UserObject label="00000000" tags="pipeline forwarding" component="reg-value" source="exec-rs2" id="HRoSpS79B9qHWH9jaoA8-24">
          <mxCell style="rounded=1;fontFamily=sans-serif;fontSize=6;arcSize=1;align=center;direction=south;spacing=0;horizontal=0;" parent="MQ-_pNAwyqKnrvp0fqe7-0" vertex="1">
            <mxGeometry x="29.5" y="213.5357142857143" width="7" height="32.48214285714286" as="geometry" />
          </mxCell>
        </UserObject>
        <UserObject label="00000000" tags="simple pipeline forwarding" component="reg-value" source="mem-write-val" id="CJ-m8BARnU2k4Bpp9hul-5">
          <mxCell style="rounded=1;fontFamily=sans-serif;fontSize=6;arcSize=1;align=center;direction=south;spacing=0;horizontal=0;fillColor=#FFFFFF;" parent="Haz_8EwUBin59iLyk_8Q-26" vertex="1">
            <mxGeometry x="516" y="312" width="8" height="34" as="geometry" />
          </mxCell>
        </UserObject>
        <UserObject label="" tags="simple pipeline forwarding" component="mux2" source="mem-BranchJalr" id="nrxDrlzc4rpCp8ehld49-22">
          <mxCell style="shape=stencil(3VXBUoMwEP2aHHUgEVuODtpbj854TWErsTRhANv6924SaBuRtBM9OM4whH2bfdlsXhbCsrbkNRAaSb4Fwh4JpcvnF7QpfuFQWiyNrLm3Jkusydsa8s5ia3GAwsJt16gN7EXR9eFCltCITnvZE4kecI5+WJYrKZFBKNk6njM/knEhMTY6WLI+lY/euh2SIXQRzHEfwBF/4QhJYwg6kkQhmYxp0qmisAyRqaqzbMXzzWuj3mXx7eI11yc6cgzuSkh4U0KiZQaTzAp2UPn2NERv1Q4mT+gaAr38iYC5NYm9db2KYhZA4W4jDdiHy5D8OAf/dTnKrFItXJy1FlVlL7tHsYiPdGPQCbEhrWrAo8Lz9oIt6dRm5v6ro6uS8xoN/TYRdhFv1AXNu6q9oW6tY39XmJDdzCG5+wsH9hvVSOb/pRoGHanUoPZ/aoBP);rounded=1;fontSize=7;align=right;spacingRight=0;spacingBottom=0;fontStyle=1;spacing=0;arcSize=19;flipV=1;fillColor=#d5e8d4;strokeColor=#000000;" parent="Haz_8EwUBin59iLyk_8Q-26" vertex="1">
            <mxGeometry x="471.5" y="350.00000000000006" width="19" height="27" as="geometry" />
          </mxCell>
        </UserObject>
        <UserObject label="" tags="forwarding simple pipeline" id="8Br1XOdIxK8N6TFEatcO-1">
          <mxCell style="edgeStyle=orthogonalEdgeStyle;rounded=0;orthogonalLoop=1;jettySize=auto;html=1;entryX=0;entryY=0.35;entryDx=0;entryDy=0;entryPerimeter=0;labelBackgroundColor=none;endArrow=none;fontSize=6;fontFamily=sans-serif;endFill=0;shadow=0;strokeWidth=2;sketch=0;" parent="Haz_8EwUBin59iLyk_8Q-26" source="kLYEyaSkJVZjgnE96DWi-3" target="dX68U42Ih_FQ-UEPESkK-6" edge="1">
            <mxGeometry relative="1" as="geometry">
              <Array as="points">
                <mxPoint x="497" y="377" />
                <mxPoint x="502" y="377" />
              </Array>
            </mxGeometry>
          </mxCell>
        </UserObject>
        <UserObject label="" tags="simple pipeline forwarding" id="kLYEyaSkJVZjgnE96DWi-3">
          <mxCell style="ellipse;whiteSpace=wrap;aspect=fixed;rounded=0;fontSize=12;align=center;fillColor=#0;fontFamily=Helvetica;verticalAlign=middle;labelPosition=center;verticalLabelPosition=middle;labelBackgroundColor=none;html=1;strokeWidth=2;" parent="Haz_8EwUBin59iLyk_8Q-26" vertex="1">
            <mxGeometry x="496" y="293.5" width="2" height="2" as="geometry" />
          </mxCell>
        </UserObject>
        <UserObject label="" tags="forwarding pipeline simple" id="kLYEyaSkJVZjgnE96DWi-4">
          <mxCell style="edgeStyle=orthogonalEdgeStyle;rounded=0;sketch=0;jumpStyle=none;orthogonalLoop=1;jettySize=auto;exitX=1;exitY=0.5;exitDx=0;exitDy=0;entryX=-0.047;entryY=0.672;entryDx=0;entryDy=0;shadow=0;endArrow=none;endFill=0;strokeColor=#000000;strokeWidth=2;fontSize=6;fontFamily=sans-serif;verticalAlign=middle;align=center;labelPosition=center;verticalLabelPosition=middle;labelBackgroundColor=none;html=1;entryPerimeter=0;" parent="Haz_8EwUBin59iLyk_8Q-26" source="Haz_8EwUBin59iLyk_8Q-56" target="kLYEyaSkJVZjgnE96DWi-3" edge="1">
            <mxGeometry relative="1" as="geometry">
              <Array as="points">
                <mxPoint x="473" y="295" />
              </Array>
              <mxPoint x="464.00000000000216" y="294.99999999999994" as="sourcePoint" />
              <mxPoint x="536.54" y="294.55" as="targetPoint" />
            </mxGeometry>
          </mxCell>
        </UserObject>
        <UserObject label="Control&#xa;Unit" tags="simple pipeline forwarding" id="Haz_8EwUBin59iLyk_8Q-85">
          <mxCell style="rounded=1;arcSize=8;fontSize=6;fontStyle=1;spacing=0;fontFamily=sans-serif;verticalAlign=middle;align=center;labelPosition=center;verticalLabelPosition=middle;labelBackgroundColor=none;fillColor=#d5e8d4;strokeColor=#000000;" parent="Haz_8EwUBin59iLyk_8Q-26" vertex="1">
            <mxGeometry x="184" y="99" width="40" height="98" as="geometry" />
          </mxCell>
        </UserObject>
        <UserObject label="0" tags="pipeline forwarding" component="bool-value" source="exec-BranchBxx" id="uWEq7-W_z53UrtFael4O-64">
          <mxCell style="rounded=1;fontFamily=sans-serif;fontSize=6;arcSize=1;align=center;spacing=0;comic=0;allowArrows=0;connectable=1;recursiveResize=0;editable=1;expand=0;resizable=1;rotatable=1;movable=1;deletable=1;spacingLeft=1;" parent="Haz_8EwUBin59iLyk_8Q-26" vertex="1">
            <mxGeometry x="312" y="132" width="7" height="8" as="geometry" />
          </mxCell>
        </UserObject>
        <UserObject label="" tags="pipeline simple forwarding" id="8Br1XOdIxK8N6TFEatcO-5">
          <mxCell style="verticalLabelPosition=bottom;shadow=0;dashed=0;align=center;html=1;verticalAlign=top;shape=mxgraph.electrical.logic_gates.logic_gate;operation=or;fontColor=#3333FF;strokeColor=#3333FF;strokeWidth=1;rotation=90;direction=north;" parent="Haz_8EwUBin59iLyk_8Q-26" vertex="1">
            <mxGeometry x="491.83000000000004" y="141.55" width="15" height="12.91" as="geometry" />
          </mxCell>
        </UserObject>
        <UserObject label="" tags="forwarding simple pipeline" id="jkDunDTEjqUDAv3C6Bv7-9">
          <mxCell style="edgeStyle=orthogonalEdgeStyle;rounded=0;orthogonalLoop=1;jettySize=auto;html=1;entryX=0;entryY=0.25;entryDx=0;entryDy=0;entryPerimeter=0;labelBackgroundColor=none;endArrow=none;fontSize=6;fontFamily=sans-serif;strokeColor=#3333FF;sketch=0;shadow=0;endFill=0;strokeWidth=1;exitX=1;exitY=0.5;exitDx=0;exitDy=0;" parent="Haz_8EwUBin59iLyk_8Q-26" source="8Br1XOdIxK8N6TFEatcO-7" target="jkDunDTEjqUDAv3C6Bv7-8" edge="1">
            <mxGeometry relative="1" as="geometry">
              <Array as="points">
                <mxPoint x="514" y="148" />
                <mxPoint x="514" y="158" />
              </Array>
            </mxGeometry>
          </mxCell>
        </UserObject>
        <UserObject label="" tags="forwarding simple pipeline" id="q-6THzIC0rTZull3DPy9-9">
          <mxCell style="edgeStyle=orthogonalEdgeStyle;rounded=0;jumpStyle=none;orthogonalLoop=1;jettySize=auto;html=1;exitX=0;exitY=0.5;exitDx=0;exitDy=0;entryX=1;entryY=0.5;entryDx=0;entryDy=0;entryPerimeter=0;fontColor=default;labelBackgroundColor=none;endArrow=none;fontSize=6;fontFamily=sans-serif;strokeColor=#3333FF;sketch=0;shadow=0;endFill=0;strokeWidth=1;" parent="Haz_8EwUBin59iLyk_8Q-26" source="8Br1XOdIxK8N6TFEatcO-7" target="8Br1XOdIxK8N6TFEatcO-5" edge="1">
            <mxGeometry relative="1" as="geometry" />
          </mxCell>
        </UserObject>
        <UserObject label="" tags="forwarding simple pipeline" id="q-6THzIC0rTZull3DPy9-10">
          <mxCell style="edgeStyle=orthogonalEdgeStyle;rounded=0;jumpStyle=none;orthogonalLoop=1;jettySize=auto;html=1;exitX=0.5;exitY=1;exitDx=0;exitDy=0;fontColor=default;entryX=0.5;entryY=0.065;entryDx=0;entryDy=0;entryPerimeter=0;labelBackgroundColor=none;endArrow=none;fontSize=6;fontFamily=sans-serif;strokeColor=#3333FF;sketch=0;shadow=0;endFill=0;strokeWidth=1;" parent="Haz_8EwUBin59iLyk_8Q-26" source="8Br1XOdIxK8N6TFEatcO-7" target="dX68U42Ih_FQ-UEPESkK-6" edge="1">
            <mxGeometry relative="1" as="geometry">
              <mxPoint x="520.7307692307692" y="231.26923076923077" as="targetPoint" />
              <Array as="points">
                <mxPoint x="509" y="149" />
                <mxPoint x="509" y="369" />
              </Array>
            </mxGeometry>
          </mxCell>
        </UserObject>
        <UserObject label="" tags="simple pipeline forwarding" id="8Br1XOdIxK8N6TFEatcO-7">
          <mxCell style="ellipse;whiteSpace=wrap;aspect=fixed;rounded=0;fontSize=12;align=center;fillColor=#0000FF;fontFamily=Helvetica;verticalAlign=middle;labelPosition=center;verticalLabelPosition=middle;labelBackgroundColor=none;html=1;strokeWidth=1;strokeColor=#0000FF;" parent="Haz_8EwUBin59iLyk_8Q-26" vertex="1">
            <mxGeometry x="507" y="147" width="2" height="2" as="geometry" />
          </mxCell>
        </UserObject>
        <UserObject label="" tags="forwarding pipeline" id="jkDunDTEjqUDAv3C6Bv7-1">
          <mxCell style="edgeStyle=orthogonalEdgeStyle;rounded=0;orthogonalLoop=1;jettySize=auto;html=1;entryX=0;entryY=0.75;entryDx=0;entryDy=0;entryPerimeter=0;labelBackgroundColor=none;endArrow=none;fontSize=6;fontFamily=sans-serif;strokeColor=#3333FF;sketch=0;shadow=0;endFill=0;strokeWidth=1;exitX=0.5;exitY=0;exitDx=0;exitDy=0;" parent="Haz_8EwUBin59iLyk_8Q-26" source="jkDunDTEjqUDAv3C6Bv7-0" target="8Br1XOdIxK8N6TFEatcO-5" edge="1">
            <mxGeometry relative="1" as="geometry">
              <mxPoint x="482" y="151" as="sourcePoint" />
              <Array as="points">
                <mxPoint x="481" y="152" />
                <mxPoint x="487" y="152" />
              </Array>
            </mxGeometry>
          </mxCell>
        </UserObject>
        <UserObject label="" tags="simple pipeline forwarding" id="Haz_8EwUBin59iLyk_8Q-84">
          <mxCell style="shape=or;whiteSpace=wrap;rounded=1;fontFamily=sans-serif;fontSize=6;align=center;verticalAlign=middle;labelPosition=center;verticalLabelPosition=middle;labelBackgroundColor=none;html=1;strokeColor=#3333FF;" parent="Haz_8EwUBin59iLyk_8Q-26" vertex="1">
            <mxGeometry x="491" y="160.75" width="5.5" height="10" as="geometry" />
          </mxCell>
        </UserObject>
        <UserObject label="" tags="forwarding simple pipeline" id="jkDunDTEjqUDAv3C6Bv7-4">
          <mxCell style="edgeStyle=orthogonalEdgeStyle;rounded=0;orthogonalLoop=1;jettySize=auto;html=1;labelBackgroundColor=none;endArrow=none;fontSize=6;fontFamily=sans-serif;strokeColor=#3333FF;sketch=0;shadow=0;endFill=0;strokeWidth=1;entryX=0;entryY=0.25;entryDx=0;entryDy=0;entryPerimeter=0;exitX=0.5;exitY=1;exitDx=0;exitDy=0;" parent="Haz_8EwUBin59iLyk_8Q-26" source="q-6THzIC0rTZull3DPy9-11" target="Haz_8EwUBin59iLyk_8Q-84" edge="1">
            <mxGeometry relative="1" as="geometry">
              <mxPoint x="498" y="163.25" as="targetPoint" />
              <Array as="points">
                <mxPoint x="487" y="137" />
                <mxPoint x="487" y="163" />
              </Array>
              <mxPoint x="482" y="137" as="sourcePoint" />
            </mxGeometry>
          </mxCell>
        </UserObject>
        <UserObject label="" tags="forwarding simple pipeline" id="jkDunDTEjqUDAv3C6Bv7-7">
          <mxCell style="edgeStyle=orthogonalEdgeStyle;rounded=0;orthogonalLoop=1;jettySize=auto;html=1;exitX=0;exitY=0.75;exitDx=0;exitDy=0;labelBackgroundColor=none;endArrow=none;fontSize=6;fontFamily=sans-serif;strokeColor=#3333FF;sketch=0;shadow=0;endFill=0;strokeWidth=1;entryX=1;entryY=0.5;entryDx=0;entryDy=0;entryPerimeter=0;exitPerimeter=0;" parent="Haz_8EwUBin59iLyk_8Q-26" source="jkDunDTEjqUDAv3C6Bv7-8" target="Haz_8EwUBin59iLyk_8Q-84" edge="1">
            <mxGeometry relative="1" as="geometry">
              <mxPoint x="503" y="163.70469798657717" as="targetPoint" />
              <mxPoint x="508" y="165.75" as="sourcePoint" />
            </mxGeometry>
          </mxCell>
        </UserObject>
        <UserObject label="" tags="forwarding simple pipeline" id="q-6THzIC0rTZull3DPy9-7">
          <mxCell style="edgeStyle=orthogonalEdgeStyle;rounded=0;jumpStyle=none;orthogonalLoop=1;jettySize=auto;html=1;entryX=0.5;entryY=0.935;entryDx=0;entryDy=0;entryPerimeter=0;fontColor=default;labelBackgroundColor=none;endArrow=none;fontSize=6;fontFamily=sans-serif;strokeColor=#3333FF;sketch=0;shadow=0;endFill=0;strokeWidth=1;exitX=0.5;exitY=1;exitDx=0;exitDy=0;" parent="Haz_8EwUBin59iLyk_8Q-26" source="jkDunDTEjqUDAv3C6Bv7-0" target="nrxDrlzc4rpCp8ehld49-22" edge="1">
            <mxGeometry relative="1" as="geometry">
              <Array as="points">
                <mxPoint x="481" y="153" />
              </Array>
            </mxGeometry>
          </mxCell>
        </UserObject>
        <UserObject label="" tags="forwarding simple pipeline" id="q-6THzIC0rTZull3DPy9-19">
          <mxCell style="edgeStyle=orthogonalEdgeStyle;rounded=0;jumpStyle=none;orthogonalLoop=1;jettySize=auto;html=1;exitX=1;exitY=0.5;exitDx=0;exitDy=0;exitPerimeter=0;fontColor=default;labelBackgroundColor=none;endArrow=none;fontSize=6;fontFamily=sans-serif;strokeColor=#3333FF;sketch=0;shadow=0;endFill=0;strokeWidth=1;entryX=0.5;entryY=0.935;entryDx=0;entryDy=0;entryPerimeter=0;" parent="Haz_8EwUBin59iLyk_8Q-26" source="jkDunDTEjqUDAv3C6Bv7-8" target="dQApTKY7MUPNvbngPjsP-5" edge="1">
            <mxGeometry relative="1" as="geometry">
              <Array as="points">
                <mxPoint x="537" y="162" />
                <mxPoint x="537" y="77" />
                <mxPoint x="62" y="77" />
              </Array>
            </mxGeometry>
          </mxCell>
        </UserObject>
        <UserObject label="" tags="pipeline simple forwarding" id="jkDunDTEjqUDAv3C6Bv7-8">
          <mxCell style="verticalLabelPosition=bottom;shadow=0;dashed=0;align=center;html=1;verticalAlign=top;shape=mxgraph.electrical.logic_gates.logic_gate;operation=or;fontColor=#3333FF;strokeColor=#3333FF;strokeWidth=1;rotation=90;direction=north;" parent="Haz_8EwUBin59iLyk_8Q-26" vertex="1">
            <mxGeometry x="514.88" y="154.38" width="15.75" height="15" as="geometry" />
          </mxCell>
        </UserObject>
        <UserObject label=" PC+4 " tags="simple forwarding pipeline" id="q-6THzIC0rTZull3DPy9-0">
          <mxCell style="text;strokeColor=none;fillColor=none;align=center;verticalAlign=middle;rounded=0;fontFamily=sans-serif;fontSize=6;fontStyle=1;spacing=0;labelPosition=center;verticalLabelPosition=middle;labelBackgroundColor=default;horizontal=1;fontColor=#000000;" parent="Haz_8EwUBin59iLyk_8Q-26" vertex="1">
            <mxGeometry x="216" y="380" width="21" height="8" as="geometry" />
          </mxCell>
        </UserObject>
        <UserObject label=" PC " tags="simple forwarding pipeline" id="q-6THzIC0rTZull3DPy9-2">
          <mxCell style="text;strokeColor=none;fillColor=none;align=center;verticalAlign=middle;rounded=0;fontFamily=sans-serif;fontSize=6;fontStyle=1;spacing=0;labelPosition=center;verticalLabelPosition=middle;labelBackgroundColor=default;horizontal=1;fontColor=#000000;" parent="Haz_8EwUBin59iLyk_8Q-26" vertex="1">
            <mxGeometry x="214" y="372" width="24.5" height="8" as="geometry" />
          </mxCell>
        </UserObject>
        <UserObject label="" tags="forwarding" id="q-6THzIC0rTZull3DPy9-4">
          <mxCell style="ellipse;whiteSpace=wrap;aspect=fixed;rounded=0;fontSize=12;align=center;fillColor=#0;fontFamily=Helvetica;verticalAlign=middle;labelPosition=center;verticalLabelPosition=middle;labelBackgroundColor=none;html=1;strokeWidth=2;" parent="Haz_8EwUBin59iLyk_8Q-26" vertex="1">
            <mxGeometry x="321" y="429" width="2" height="2" as="geometry" />
          </mxCell>
        </UserObject>
        <UserObject label="" tags="forwarding simple pipeline" id="q-6THzIC0rTZull3DPy9-5">
          <mxCell style="edgeStyle=orthogonalEdgeStyle;rounded=0;jumpStyle=none;jumpSize=4;orthogonalLoop=1;jettySize=auto;html=1;fontColor=#000000;endArrow=none;endFill=0;strokeColor=#000000;shadow=0;fontFamily=sans-serif;fontSize=6;strokeWidth=2;labelBackgroundColor=none;sketch=0;exitX=1;exitY=0.5;exitDx=0;exitDy=0;exitPerimeter=0;entryX=0;entryY=0.65;entryDx=0;entryDy=0;entryPerimeter=0;" parent="Haz_8EwUBin59iLyk_8Q-26" source="nrxDrlzc4rpCp8ehld49-22" target="dQApTKY7MUPNvbngPjsP-5" edge="1">
            <mxGeometry relative="1" as="geometry">
              <Array as="points">
                <mxPoint x="491" y="364" />
                <mxPoint x="491" y="440" />
                <mxPoint x="32" y="440" />
                <mxPoint x="32" y="276" />
              </Array>
              <mxPoint x="499.861111111111" y="361.5" as="sourcePoint" />
              <mxPoint x="321" y="532" as="targetPoint" />
            </mxGeometry>
          </mxCell>
        </UserObject>
        <UserObject label="00" tags="simple pipeline forwarding" component="reg-id-value" source="decode-rd" id="Haz_8EwUBin59iLyk_8Q-93">
          <mxCell style="rounded=1;fontFamily=sans-serif;fontSize=6;arcSize=1;spacing=0;" parent="Haz_8EwUBin59iLyk_8Q-26" vertex="1">
            <mxGeometry x="243" y="394" width="14" height="8" as="geometry" />
          </mxCell>
        </UserObject>
        <UserObject label="rd" tags="simple pipeline forwarding" id="Haz_8EwUBin59iLyk_8Q-95">
          <mxCell style="text;strokeColor=none;fillColor=default;align=center;verticalAlign=middle;rounded=0;fontSize=6;fontFamily=sans-serif;spacing=0;fontStyle=1;labelPosition=center;verticalLabelPosition=middle;labelBackgroundColor=default;spacingBottom=1;" parent="Haz_8EwUBin59iLyk_8Q-26" vertex="1">
            <mxGeometry x="229" y="395" width="8" height="5" as="geometry" />
          </mxCell>
        </UserObject>
        <UserObject label="00" tags="pipeline forwarding" component="reg-id-value" source="exec-rd" id="Haz_8EwUBin59iLyk_8Q-94">
          <mxCell style="rounded=1;fontFamily=sans-serif;fontSize=6;arcSize=1;spacing=0;labelBackgroundColor=none;" parent="Haz_8EwUBin59iLyk_8Q-26" vertex="1">
            <mxGeometry x="398" y="393" width="14" height="8" as="geometry" />
          </mxCell>
        </UserObject>
        <UserObject label="" tags="forwarding pipeline" id="i2To6XwWsyNyerFe5G8K-2">
          <mxCell style="group" parent="Haz_8EwUBin59iLyk_8Q-26" vertex="1" connectable="0">
            <mxGeometry x="598" y="86" width="42" height="319" as="geometry" />
          </mxCell>
        </UserObject>
        <UserObject label="MEM/WB" tags="pipeline forwarding" id="Haz_8EwUBin59iLyk_8Q-132">
          <mxCell style="text;strokeColor=none;fillColor=none;align=center;verticalAlign=middle;rounded=0;fontSize=6;fontFamily=sans-serif;spacing=0;fontStyle=1;labelPosition=center;verticalLabelPosition=middle;labelBackgroundColor=none;spacingBottom=1;" parent="i2To6XwWsyNyerFe5G8K-2" vertex="1">
            <mxGeometry x="-10" width="42" height="6.247246022031823" as="geometry" />
          </mxCell>
        </UserObject>
        <UserObject label="" tags="pipeline forwarding" id="Haz_8EwUBin59iLyk_8Q-170">
          <mxCell style="group;fillColor=#d5e8d4;strokeColor=#82b366;" parent="i2To6XwWsyNyerFe5G8K-2" vertex="1" connectable="0">
            <mxGeometry x="9" y="7.80905752753978" width="6" height="311.1909424724602" as="geometry" />
          </mxCell>
        </UserObject>
        <UserObject label="" tags="simple forwarding" id="Haz_8EwUBin59iLyk_8Q-171">
          <mxCell style="rounded=0;whiteSpace=wrap;html=1;fontFamily=sans-serif;fontSize=6;fontColor=#0000CC;align=left;" parent="Haz_8EwUBin59iLyk_8Q-170" vertex="1">
            <mxGeometry width="6" height="311.1909424724602" as="geometry" />
          </mxCell>
        </UserObject>
        <UserObject label="" tags="simple forwarding" id="Haz_8EwUBin59iLyk_8Q-172">
          <mxCell style="triangle;whiteSpace=wrap;html=1;rounded=0;fontFamily=sans-serif;fontSize=6;fontColor=#0000CC;align=left;direction=south;" parent="Haz_8EwUBin59iLyk_8Q-170" vertex="1">
            <mxGeometry x="0.5" width="5" height="3.514075887392901" as="geometry" />
          </mxCell>
        </UserObject>
        <UserObject label="" tags="pipeline simple forwarding" id="Haz_8EwUBin59iLyk_8Q-173">
          <mxCell style="group;fillColor=#d5e8d4;strokeColor=#82b366;" parent="Haz_8EwUBin59iLyk_8Q-170" vertex="1" connectable="0">
            <mxGeometry width="6" height="311.1909424724602" as="geometry" />
          </mxCell>
        </UserObject>
        <UserObject label="" tags="pipeline forwarding" id="Haz_8EwUBin59iLyk_8Q-174">
          <mxCell style="rounded=0;whiteSpace=wrap;html=1;fontFamily=sans-serif;fontSize=6;align=left;fillColor=#d5e8d4;strokeColor=#000000;" parent="Haz_8EwUBin59iLyk_8Q-173" vertex="1">
            <mxGeometry width="6" height="311.1909424724602" as="geometry" />
          </mxCell>
        </UserObject>
        <UserObject label="" tags="pipeline forwarding" id="Haz_8EwUBin59iLyk_8Q-175">
          <mxCell style="triangle;whiteSpace=wrap;html=1;rounded=0;fontFamily=sans-serif;fontSize=6;align=left;direction=south;fillColor=#d5e8d4;strokeColor=#000000;" parent="Haz_8EwUBin59iLyk_8Q-173" vertex="1">
            <mxGeometry x="0.5" width="5" height="3.514075887392901" as="geometry" />
          </mxCell>
        </UserObject>
        <UserObject label="00000000" tags="simple pipeline forwarding" component="reg-value" source="mem-read-val" id="Haz_8EwUBin59iLyk_8Q-111">
          <mxCell style="rounded=1;fontFamily=sans-serif;fontSize=6;arcSize=1;align=center;direction=south;spacing=0;horizontal=0;" parent="i2To6XwWsyNyerFe5G8K-2" vertex="1">
            <mxGeometry x="-4" y="194.56666666666666" width="8" height="32.86666666666667" as="geometry" />
          </mxCell>
        </UserObject>
        <UserObject label="" tags="simple pipeline forwarding" id="q-6THzIC0rTZull3DPy9-11">
          <mxCell style="ellipse;whiteSpace=wrap;aspect=fixed;rounded=0;fontSize=12;align=left;fillColor=#0000FF;fontFamily=Helvetica;verticalAlign=middle;labelPosition=center;verticalLabelPosition=middle;labelBackgroundColor=default;html=1;strokeWidth=1;strokeColor=none;" parent="Haz_8EwUBin59iLyk_8Q-26" vertex="1">
            <mxGeometry x="486" y="135" width="2" height="2" as="geometry" />
          </mxCell>
        </UserObject>
        <UserObject label=" WriteData " tags="pipeline simple forwarding" id="Haz_8EwUBin59iLyk_8Q-96">
          <mxCell style="text;strokeColor=none;fillColor=default;align=center;verticalAlign=middle;rounded=0;fontSize=6;fontFamily=sans-serif;spacing=0;fontStyle=1;labelPosition=center;verticalLabelPosition=middle;labelBackgroundColor=none;spacingBottom=1;" parent="Haz_8EwUBin59iLyk_8Q-26" vertex="1">
            <mxGeometry x="415" y="340" width="33" height="7" as="geometry" />
          </mxCell>
        </UserObject>
        <UserObject label="xor" tags="simple pipeline forwarding" id="q-6THzIC0rTZull3DPy9-12">
          <mxCell style="text;strokeColor=none;fillColor=default;align=left;verticalAlign=middle;rounded=0;fontFamily=sans-serif;fontSize=6;fontStyle=1;spacing=0;labelPosition=center;verticalLabelPosition=middle;labelBackgroundColor=none;fontColor=#0000FA;" parent="Haz_8EwUBin59iLyk_8Q-26" vertex="1">
            <mxGeometry x="469" y="157" width="9" height="4" as="geometry" />
          </mxCell>
        </UserObject>
        <UserObject label="Branch&#xa;Jalx" tags="simple pipeline forwarding" id="q-6THzIC0rTZull3DPy9-17">
          <mxCell style="text;strokeColor=none;fillColor=default;align=center;verticalAlign=middle;rounded=0;fontFamily=sans-serif;fontSize=6;fontStyle=1;spacing=0;labelPosition=center;verticalLabelPosition=middle;labelBackgroundColor=default;fontColor=#0000FA;" parent="Haz_8EwUBin59iLyk_8Q-26" vertex="1">
            <mxGeometry x="498" y="176.5" width="21" height="11.5" as="geometry" />
          </mxCell>
        </UserObject>
        <UserObject label="" tags="forwarding pipeline simple" id="q-6THzIC0rTZull3DPy9-22">
          <mxCell style="group" parent="Haz_8EwUBin59iLyk_8Q-26" vertex="1" connectable="0">
            <mxGeometry x="444" y="84" width="42" height="320" as="geometry" />
          </mxCell>
        </UserObject>
        <UserObject label="EX/MEM" tags="pipeline forwarding" id="Haz_8EwUBin59iLyk_8Q-131">
          <mxCell style="text;strokeColor=none;fillColor=none;align=center;verticalAlign=middle;rounded=0;fontSize=6;fontFamily=sans-serif;spacing=0;fontStyle=1;labelPosition=center;verticalLabelPosition=middle;labelBackgroundColor=none;spacingBottom=1;" parent="q-6THzIC0rTZull3DPy9-22" vertex="1">
            <mxGeometry width="42" height="6.251526251526251" as="geometry" />
          </mxCell>
        </UserObject>
        <UserObject label="" tags="pipeline forwarding" id="Haz_8EwUBin59iLyk_8Q-164">
          <mxCell style="group" parent="q-6THzIC0rTZull3DPy9-22" vertex="1" connectable="0">
            <mxGeometry x="12" y="8.595848595848596" width="6" height="311.4041514041514" as="geometry" />
          </mxCell>
        </UserObject>
        <UserObject label="" tags="simple forwarding" id="Haz_8EwUBin59iLyk_8Q-165">
          <mxCell style="rounded=0;whiteSpace=wrap;html=1;fontFamily=sans-serif;fontSize=6;fontColor=#0000CC;align=left;" parent="Haz_8EwUBin59iLyk_8Q-164" vertex="1">
            <mxGeometry width="6" height="311.4041514041514" as="geometry" />
          </mxCell>
        </UserObject>
        <UserObject label="" tags="simple forwarding" id="Haz_8EwUBin59iLyk_8Q-166">
          <mxCell style="triangle;whiteSpace=wrap;html=1;rounded=0;fontFamily=sans-serif;fontSize=6;fontColor=#0000CC;align=left;direction=south;" parent="Haz_8EwUBin59iLyk_8Q-164" vertex="1">
            <mxGeometry x="0.5" width="5" height="3.5164835164835164" as="geometry" />
          </mxCell>
        </UserObject>
        <UserObject label="" tags="pipeline simple forwarding" id="Haz_8EwUBin59iLyk_8Q-167">
          <mxCell style="group" parent="Haz_8EwUBin59iLyk_8Q-164" vertex="1" connectable="0">
            <mxGeometry width="6" height="311.4041514041514" as="geometry" />
          </mxCell>
        </UserObject>
        <UserObject label="" tags="pipeline forwarding" id="Haz_8EwUBin59iLyk_8Q-168">
          <mxCell style="rounded=0;whiteSpace=wrap;html=1;fontFamily=sans-serif;fontSize=6;align=left;fillColor=#d5e8d4;strokeColor=#000000;" parent="Haz_8EwUBin59iLyk_8Q-167" vertex="1">
            <mxGeometry width="6" height="311.4041514041514" as="geometry" />
          </mxCell>
        </UserObject>
        <UserObject label="" tags="pipeline forwarding" id="Haz_8EwUBin59iLyk_8Q-169">
          <mxCell style="triangle;whiteSpace=wrap;html=1;rounded=0;fontFamily=sans-serif;fontSize=6;align=left;direction=south;fillColor=#d5e8d4;strokeColor=#000000;" parent="Haz_8EwUBin59iLyk_8Q-167" vertex="1">
            <mxGeometry x="0.5" width="5" height="3.5164835164835164" as="geometry" />
          </mxCell>
        </UserObject>
        <UserObject label="00000000" tags="pipeline forwarding simple" component="reg-value" source="alu-res" id="Haz_8EwUBin59iLyk_8Q-105">
          <mxCell style="rounded=1;fontFamily=sans-serif;fontSize=6;arcSize=1;align=center;direction=south;horizontal=0;spacing=0;" parent="q-6THzIC0rTZull3DPy9-22" vertex="1">
            <mxGeometry y="206.31378299120232" width="7" height="32.47859237536657" as="geometry" />
          </mxCell>
        </UserObject>
        <UserObject label="" tags="simple pipeline forwarding" id="jkDunDTEjqUDAv3C6Bv7-0">
          <mxCell style="ellipse;whiteSpace=wrap;aspect=fixed;rounded=0;fontSize=12;align=center;fillColor=#0000FF;fontFamily=Helvetica;verticalAlign=middle;labelPosition=center;verticalLabelPosition=middle;labelBackgroundColor=none;html=1;strokeWidth=1;strokeColor=#0000FF;" parent="q-6THzIC0rTZull3DPy9-22" vertex="1">
            <mxGeometry x="36.06" y="66.99548387096775" width="1.8768328445747802" height="1.8768328445747802" as="geometry" />
          </mxCell>
        </UserObject>
        <UserObject label="BranchOutcome" tags="simple pipeline forwarding" id="q-6THzIC0rTZull3DPy9-23">
          <mxCell style="text;strokeColor=none;fillColor=default;align=left;verticalAlign=middle;rounded=0;fontFamily=sans-serif;fontSize=6;fontStyle=1;spacing=0;labelPosition=center;verticalLabelPosition=middle;labelBackgroundColor=default;fontColor=#0000FA;" parent="Haz_8EwUBin59iLyk_8Q-26" vertex="1">
            <mxGeometry x="479" y="71.25" width="49" height="11.5" as="geometry" />
          </mxCell>
        </UserObject>
        <UserObject label="0" tags="simple pipeline forwarding" component="bool-value" source="mem-BranchOutcome" id="uWEq7-W_z53UrtFael4O-66">
          <mxCell style="rounded=1;fontFamily=sans-serif;fontSize=6;arcSize=1;align=center;spacing=0;comic=0;allowArrows=0;connectable=1;recursiveResize=0;editable=1;expand=0;resizable=1;rotatable=1;movable=1;deletable=1;spacingLeft=1;" parent="Haz_8EwUBin59iLyk_8Q-26" vertex="1">
            <mxGeometry x="59" y="254" width="7" height="8" as="geometry" />
          </mxCell>
        </UserObject>
        <UserObject label="" tags="forwarding simple pipeline" id="q-6THzIC0rTZull3DPy9-24">
          <mxCell style="group" parent="Haz_8EwUBin59iLyk_8Q-26" vertex="1" connectable="0">
            <mxGeometry x="92" y="250" width="50" height="78" as="geometry" />
          </mxCell>
        </UserObject>
        <UserObject label="" tags="simple pipeline forwarding" link="#program_memory" id="Haz_8EwUBin59iLyk_8Q-208">
          <mxCell style="rounded=1;arcSize=2;fontSize=6;fontStyle=1;fontFamily=sans-serif;verticalAlign=middle;align=center;labelPosition=center;verticalLabelPosition=middle;labelBackgroundColor=none;html=1;fillColor=#EAFFE9;strokeColor=#000000;" parent="q-6THzIC0rTZull3DPy9-24" vertex="1">
            <mxGeometry y="10" width="50" height="68" as="geometry" />
          </mxCell>
        </UserObject>
        <UserObject label="Program&#xa;Memory" tags="simple pipeline forwarding" link="#program_memory" id="Haz_8EwUBin59iLyk_8Q-209">
          <mxCell style="text;strokeColor=none;fillColor=none;align=center;verticalAlign=middle;rounded=0;fontSize=6;fontFamily=sans-serif;spacing=0;fontStyle=1;labelPosition=center;verticalLabelPosition=middle;labelBackgroundColor=none;spacingBottom=1;" parent="q-6THzIC0rTZull3DPy9-24" vertex="1">
            <mxGeometry y="55" width="50" height="18" as="geometry" />
          </mxCell>
        </UserObject>
        <UserObject label="" component="program-cache" tags="simple pipeline forwarding" link="#cache_program" id="uWEq7-W_z53UrtFael4O-36">
          <mxCell style="shape=stencil(rVTRbsMgDPwaHidRWPteZZv20o9gxDSolFTA1GRfP4LJOliXqVqlSInPOd8ZWxDe+E6cgDBqxREIfyKMSSG7iLAIdoisKYZnDDc5FP4EMiCm9AAtwj64/gBn3YZM17YDp8OU5c+EbuM/08ObNyEPe9e/27ZIzOmUcZMEowOWyspjEVW2KtPCSa8/cm8MMcJeKisR+cUNb1TvYMGm0sZgz1cqX2rYkGzE8/lys7nupuCE0SRSeifW6m+WEkdtxhjnj8TzwvoHHyehlgsEGAKOEXnNZR/yFHg5htV80kbvbd4hsAHcbTqvcUX4thBaFzpz+E3HgAq3qey098sy/PEOMrQQqPb2Lo1UCv/oIW3/jyVPKN4OCfgE);collapsible=0;dropTarget=0;autosize=0;container=0;metaEdit=0;fillColor=#d5e8d4;strokeColor=#000000;" parent="q-6THzIC0rTZull3DPy9-24" vertex="1">
            <mxGeometry width="50" height="60" as="geometry" />
          </mxCell>
        </UserObject>
        <UserObject label=" PC+4 " tags="simple forwarding pipeline" id="q-6THzIC0rTZull3DPy9-25">
          <mxCell style="text;strokeColor=none;fillColor=none;align=left;verticalAlign=middle;rounded=0;fontFamily=sans-serif;fontSize=6;fontStyle=1;spacing=0;labelPosition=center;verticalLabelPosition=middle;labelBackgroundColor=default;horizontal=1;fontColor=#000000;" parent="Haz_8EwUBin59iLyk_8Q-26" vertex="1">
            <mxGeometry x="54.5" y="380" width="19.5" height="8" as="geometry" />
          </mxCell>
        </UserObject>
        <UserObject label="rd" tags="pipeline forwarding" id="q-6THzIC0rTZull3DPy9-27">
          <mxCell style="text;strokeColor=none;fillColor=default;align=center;verticalAlign=middle;rounded=0;fontSize=6;fontFamily=sans-serif;spacing=0;fontStyle=1;labelPosition=center;verticalLabelPosition=middle;labelBackgroundColor=default;spacingBottom=1;" parent="Haz_8EwUBin59iLyk_8Q-26" vertex="1">
            <mxGeometry x="383" y="395" width="8" height="5" as="geometry" />
          </mxCell>
        </UserObject>
        <UserObject label="rd" tags="pipeline forwarding" id="q-6THzIC0rTZull3DPy9-28">
          <mxCell style="text;strokeColor=none;fillColor=default;align=center;verticalAlign=middle;rounded=0;fontSize=6;fontFamily=sans-serif;spacing=0;fontStyle=1;labelPosition=center;verticalLabelPosition=middle;labelBackgroundColor=default;spacingBottom=1;" parent="Haz_8EwUBin59iLyk_8Q-26" vertex="1">
            <mxGeometry x="546" y="395" width="8" height="5" as="geometry" />
          </mxCell>
        </UserObject>
        <UserObject label=" BranchTarget " tags="simple forwarding pipeline" id="q-6THzIC0rTZull3DPy9-30">
          <mxCell style="text;strokeColor=none;fillColor=none;align=left;verticalAlign=middle;rounded=0;fontFamily=sans-serif;fontSize=6;fontStyle=1;spacing=0;labelPosition=center;verticalLabelPosition=middle;labelBackgroundColor=default;horizontal=1;fontColor=#000000;" parent="Haz_8EwUBin59iLyk_8Q-26" vertex="1">
            <mxGeometry x="47.5" y="436" width="38.5" height="8" as="geometry" />
          </mxCell>
        </UserObject>
        <UserObject label="Instruction" tags="simple forwarding pipeline" id="q-6THzIC0rTZull3DPy9-31">
          <mxCell style="text;strokeColor=none;fillColor=none;align=left;verticalAlign=middle;rounded=0;fontFamily=sans-serif;fontSize=6;fontStyle=1;spacing=0;labelPosition=center;verticalLabelPosition=middle;labelBackgroundColor=default;horizontal=1;fontColor=#000000;" parent="Haz_8EwUBin59iLyk_8Q-26" vertex="1">
            <mxGeometry x="161" y="219" width="34" height="7" as="geometry" />
          </mxCell>
        </UserObject>
        <UserObject label=" RegWriteData " tags="simple forwarding pipeline" id="q-6THzIC0rTZull3DPy9-34">
          <mxCell style="text;strokeColor=none;fillColor=default;align=left;verticalAlign=middle;rounded=0;fontFamily=sans-serif;fontSize=6;fontStyle=1;spacing=0;labelPosition=center;verticalLabelPosition=middle;labelBackgroundColor=default;horizontal=1;fontColor=#000000;" parent="Haz_8EwUBin59iLyk_8Q-26" vertex="1">
            <mxGeometry x="201" y="426" width="39" height="8" as="geometry" />
          </mxCell>
        </UserObject>
        <UserObject label=" PC+4 " tags="simple forwarding pipeline" id="q-6THzIC0rTZull3DPy9-36">
          <mxCell style="text;strokeColor=none;fillColor=none;align=center;verticalAlign=middle;rounded=0;fontFamily=sans-serif;fontSize=6;fontStyle=1;spacing=0;labelPosition=center;verticalLabelPosition=middle;labelBackgroundColor=default;horizontal=1;fontColor=#000000;" parent="Haz_8EwUBin59iLyk_8Q-26" vertex="1">
            <mxGeometry x="392" y="380" width="21" height="8" as="geometry" />
          </mxCell>
        </UserObject>
        <UserObject label=" PC " tags="simple forwarding pipeline" id="q-6THzIC0rTZull3DPy9-37">
          <mxCell style="text;strokeColor=none;fillColor=none;align=center;verticalAlign=middle;rounded=0;fontFamily=sans-serif;fontSize=6;fontStyle=1;spacing=0;labelPosition=center;verticalLabelPosition=middle;labelBackgroundColor=default;horizontal=1;fontColor=#000000;" parent="Haz_8EwUBin59iLyk_8Q-26" vertex="1">
            <mxGeometry x="390" y="372" width="24.5" height="8" as="geometry" />
          </mxCell>
        </UserObject>
        <UserObject label="AluMul" tags="simple pipeline forwarding" id="q-6THzIC0rTZull3DPy9-40">
          <mxCell style="text;strokeColor=none;fillColor=default;align=left;verticalAlign=middle;rounded=0;fontFamily=sans-serif;fontSize=6;fontStyle=1;spacing=0;labelPosition=center;verticalLabelPosition=middle;labelBackgroundColor=default;fontColor=#0000FA;" parent="Haz_8EwUBin59iLyk_8Q-26" vertex="1">
            <mxGeometry x="235" y="174" width="22" height="4" as="geometry" />
          </mxCell>
        </UserObject>
        <UserObject label="0" tags="simple pipeline forwarding" component="bool-value" source="decode-AluMul" id="q-6THzIC0rTZull3DPy9-41">
          <mxCell style="rounded=1;fontFamily=sans-serif;fontSize=6;arcSize=1;align=center;spacing=0;comic=0;allowArrows=0;connectable=1;recursiveResize=0;editable=1;expand=0;resizable=1;rotatable=1;movable=1;deletable=1;spacingLeft=1;" parent="Haz_8EwUBin59iLyk_8Q-26" vertex="1">
            <mxGeometry x="287.25" y="173" width="7" height="8" as="geometry" />
          </mxCell>
        </UserObject>
        <UserObject label="0" tags="simple pipeline forwarding" component="bool-value" source="exec-AluMul" id="q-6THzIC0rTZull3DPy9-42">
          <mxCell style="rounded=1;fontFamily=sans-serif;fontSize=6;arcSize=1;align=center;spacing=0;comic=0;allowArrows=0;connectable=1;recursiveResize=0;editable=1;expand=0;resizable=1;rotatable=1;movable=1;deletable=1;" parent="Haz_8EwUBin59iLyk_8Q-26" vertex="1">
            <mxGeometry x="421" y="245" width="7" height="8" as="geometry" />
          </mxCell>
        </UserObject>
        <UserObject label="0" tags="simple pipeline forwarding" component="bool-value" source="mem-BranchOutcome" id="q-6THzIC0rTZull3DPy9-44">
          <mxCell style="rounded=1;fontFamily=sans-serif;fontSize=6;arcSize=1;align=center;spacing=0;comic=0;allowArrows=0;connectable=1;recursiveResize=0;editable=1;expand=0;resizable=1;rotatable=1;movable=1;deletable=1;" parent="Haz_8EwUBin59iLyk_8Q-26" vertex="1">
            <mxGeometry x="533" y="149" width="7" height="8" as="geometry" />
          </mxCell>
        </UserObject>
        <UserObject label=" AluOut" tags="simple forwarding pipeline" id="q-6THzIC0rTZull3DPy9-45">
          <mxCell style="text;strokeColor=none;fillColor=none;align=left;verticalAlign=middle;rounded=0;fontFamily=sans-serif;fontSize=6;fontStyle=1;spacing=0;labelPosition=center;verticalLabelPosition=middle;labelBackgroundColor=default;horizontal=1;fontColor=#000000;" parent="Haz_8EwUBin59iLyk_8Q-26" vertex="1">
            <mxGeometry x="482.83000000000004" y="284" width="23.17" height="6" as="geometry" />
          </mxCell>
        </UserObject>
        <UserObject label="" tags="forwarding simple pipeline" id="q-6THzIC0rTZull3DPy9-47">
          <mxCell style="ellipse;whiteSpace=wrap;html=1;aspect=fixed;rounded=0;fillColor=#0;strokeWidth=2;" parent="Haz_8EwUBin59iLyk_8Q-26" vertex="1">
            <mxGeometry x="357" y="375" width="2" height="2" as="geometry" />
          </mxCell>
        </UserObject>
        <UserObject label="0" tags="pipeline forwarding simple" component="bool-value" source="mem-MemRead" id="q-6THzIC0rTZull3DPy9-50">
          <mxCell style="rounded=1;fontFamily=sans-serif;fontSize=6;arcSize=1;align=center;spacing=0;comic=0;allowArrows=0;connectable=1;recursiveResize=0;editable=1;expand=0;resizable=1;rotatable=1;movable=1;deletable=1;spacingLeft=1;" parent="Haz_8EwUBin59iLyk_8Q-26" vertex="1">
            <mxGeometry x="576" y="216" width="7" height="8" as="geometry" />
          </mxCell>
        </UserObject>
        <UserObject label="MemRead" tags="simple pipeline forwarding" id="q-6THzIC0rTZull3DPy9-51">
          <mxCell style="text;strokeColor=none;fillColor=default;align=left;verticalAlign=middle;rounded=0;fontFamily=sans-serif;fontSize=6;fontStyle=1;spacing=0;labelPosition=center;verticalLabelPosition=middle;labelBackgroundColor=default;fontColor=#0000FA;" parent="Haz_8EwUBin59iLyk_8Q-26" vertex="1">
            <mxGeometry x="235" y="124" width="31" height="8" as="geometry" />
          </mxCell>
        </UserObject>
        <UserObject label="0" tags="simple pipeline forwarding" component="bool-value" source="decode-MemRead" id="q-6THzIC0rTZull3DPy9-52">
          <mxCell style="rounded=1;fontFamily=sans-serif;fontSize=6;arcSize=1;align=center;spacing=0;comic=0;allowArrows=0;connectable=0;recursiveResize=0;editable=0;expand=0;resizable=0;rotatable=0;" parent="Haz_8EwUBin59iLyk_8Q-26" vertex="1">
            <mxGeometry x="287.25" y="124" width="7" height="8" as="geometry" />
          </mxCell>
        </UserObject>
        <UserObject label="0" tags="pipeline forwarding" component="bool-value" source="exec-MemRead" id="q-6THzIC0rTZull3DPy9-53">
          <mxCell style="rounded=1;fontFamily=sans-serif;fontSize=6;arcSize=1;align=center;spacing=0;comic=0;allowArrows=0;connectable=1;recursiveResize=0;editable=1;expand=0;resizable=1;rotatable=1;movable=1;deletable=1;spacingLeft=1;" parent="Haz_8EwUBin59iLyk_8Q-26" vertex="1">
            <mxGeometry x="322" y="124" width="7" height="8" as="geometry" />
          </mxCell>
        </UserObject>
        <UserObject label="MemWrite" tags="simple pipeline forwarding" id="q-6THzIC0rTZull3DPy9-54">
          <mxCell style="text;strokeColor=none;fillColor=default;align=left;verticalAlign=middle;rounded=0;fontFamily=sans-serif;fontSize=6;fontStyle=1;spacing=0;labelPosition=center;verticalLabelPosition=middle;labelBackgroundColor=default;fontColor=#0000FA;" parent="Haz_8EwUBin59iLyk_8Q-26" vertex="1">
            <mxGeometry x="545" y="116" width="28" height="8" as="geometry" />
          </mxCell>
        </UserObject>
        <UserObject label="MemRead" tags="simple pipeline forwarding" id="q-6THzIC0rTZull3DPy9-55">
          <mxCell style="text;strokeColor=none;fillColor=default;align=left;verticalAlign=middle;rounded=0;fontFamily=sans-serif;fontSize=6;fontStyle=1;spacing=0;labelPosition=center;verticalLabelPosition=middle;labelBackgroundColor=default;fontColor=#0000FA;horizontal=1;" parent="Haz_8EwUBin59iLyk_8Q-26" vertex="1">
            <mxGeometry x="545" y="124" width="28" height="8" as="geometry" />
          </mxCell>
        </UserObject>
        <UserObject label="0" tags="simple pipeline forwarding" component="bool-value" source="mem-BranchJalr" id="1xC1WIjRaXcGuhJV2cBO-9">
          <mxCell style="rounded=1;fontFamily=sans-serif;fontSize=6;arcSize=1;align=center;spacing=0;comic=0;allowArrows=0;connectable=1;recursiveResize=0;editable=1;expand=0;resizable=1;rotatable=1;movable=1;deletable=1;spacingLeft=1;" parent="Haz_8EwUBin59iLyk_8Q-26" vertex="1">
            <mxGeometry x="478" y="329" width="7" height="8" as="geometry" />
          </mxCell>
        </UserObject>
        <UserObject label="0" tags="simple pipeline forwarding" component="bool-value" source="mem-BranchJalx" id="1xC1WIjRaXcGuhJV2cBO-10">
          <mxCell style="rounded=1;fontFamily=sans-serif;fontSize=6;arcSize=1;align=center;spacing=0;comic=0;allowArrows=0;connectable=1;recursiveResize=0;editable=1;expand=0;resizable=1;rotatable=1;movable=1;deletable=1;spacingLeft=1;" parent="Haz_8EwUBin59iLyk_8Q-26" vertex="1">
            <mxGeometry x="504" y="355" width="7" height="8" as="geometry" />
          </mxCell>
        </UserObject>
        <UserObject label="Branch&#xa;Jalr" tags="simple pipeline forwarding" id="1xC1WIjRaXcGuhJV2cBO-11">
          <mxCell style="text;strokeColor=none;fillColor=default;align=center;verticalAlign=middle;rounded=0;fontFamily=sans-serif;fontSize=6;fontStyle=1;spacing=0;labelPosition=center;verticalLabelPosition=middle;labelBackgroundColor=default;fontColor=#0000FA;" parent="Haz_8EwUBin59iLyk_8Q-26" vertex="1">
            <mxGeometry x="473" y="176.5" width="21" height="11.5" as="geometry" />
          </mxCell>
        </UserObject>
        <UserObject label="0x00000000" tags="simple pipeline forwarding" component="pc-value" source="fetch-pc" link="#focus_pc" id="Haz_8EwUBin59iLyk_8Q-39">
          <mxCell style="rounded=1;gradientColor=none;perimeterSpacing=0;arcSize=1;fontSize=8;fontStyle=0;verticalAlign=middle;spacing=0;fontFamily=sans-serif;align=center;labelPosition=center;verticalLabelPosition=middle;labelBackgroundColor=none;spacingTop=6;movable=1;resizable=1;rotatable=1;deletable=1;editable=1;connectable=1;" parent="Haz_8EwUBin59iLyk_8Q-26" vertex="1">
            <mxGeometry x="70" y="225" width="72" height="25" as="geometry" />
          </mxCell>
        </UserObject>
        <UserObject label="PC" tags="simple pipeline forwarding" id="Haz_8EwUBin59iLyk_8Q-206">
          <mxCell style="text;strokeColor=none;fillColor=none;align=center;verticalAlign=middle;rounded=0;fontSize=6;fontFamily=sans-serif;spacing=0;fontStyle=1;labelPosition=center;verticalLabelPosition=middle;labelBackgroundColor=none;spacingBottom=0;" parent="Haz_8EwUBin59iLyk_8Q-26" vertex="1">
            <mxGeometry x="99" y="227" width="13.999999999999998" height="8" as="geometry" />
          </mxCell>
        </UserObject>
        <UserObject label="00000000" tags="pipeline forwarding" component="reg-value" source="exec-imm" id="qpQ6hB7pEMShyfFWmkmH-1">
          <mxCell style="rounded=1;fontFamily=sans-serif;fontSize=6;arcSize=1;spacing=0;" parent="Haz_8EwUBin59iLyk_8Q-26" vertex="1">
            <mxGeometry x="388" y="351.5" width="34" height="8" as="geometry" />
          </mxCell>
        </UserObject>
        <mxCell id="eH55jN6bCJ1mTE-G3Nd7-0" value="" style="edgeStyle=orthogonalEdgeStyle;rounded=0;sketch=0;jumpStyle=none;orthogonalLoop=1;jettySize=auto;shadow=0;endArrow=none;endFill=0;strokeColor=#000000;strokeWidth=2;fontSize=6;fontFamily=sans-serif;verticalAlign=middle;align=center;labelPosition=center;verticalLabelPosition=middle;labelBackgroundColor=none;html=1;entryX=0;entryY=0.5;entryDx=0;entryDy=0;exitX=1;exitY=0.5;exitDx=0;exitDy=0;" parent="Haz_8EwUBin59iLyk_8Q-26" source="hCaf9_x39W0CY-DPdxUN-8" target="qpQ6hB7pEMShyfFWmkmH-1" edge="1">
          <mxGeometry relative="1" as="geometry">
            <mxPoint x="413" y="357" as="targetPoint" />
            <mxPoint x="375" y="356" as="sourcePoint" />
            <Array as="points" />
          </mxGeometry>
        </mxCell>
        <UserObject label="" tags="forwarding" id="q-6THzIC0rTZull3DPy9-3">
          <mxCell style="ellipse;whiteSpace=wrap;aspect=fixed;rounded=0;fontSize=12;align=center;fillColor=#0;fontFamily=Helvetica;verticalAlign=middle;labelPosition=center;verticalLabelPosition=middle;labelBackgroundColor=default;html=1;strokeWidth=2;" parent="Haz_8EwUBin59iLyk_8Q-26" vertex="1">
            <mxGeometry x="524" y="379.5" width="2" height="2" as="geometry" />
          </mxCell>
        </UserObject>
        <UserObject label="" tags="forwarding" id="eH55jN6bCJ1mTE-G3Nd7-11">
          <mxCell style="edgeStyle=orthogonalEdgeStyle;rounded=0;jumpStyle=arc;orthogonalLoop=1;jettySize=auto;html=1;exitX=1;exitY=0.5;exitDx=0;exitDy=0;exitPerimeter=0;entryX=0;entryY=0.35;entryDx=0;entryDy=0;entryPerimeter=0;shadow=0;fontFamily=sans-serif;fontSize=6;strokeWidth=2;labelBackgroundColor=none;endFill=0;endArrow=none;sketch=0;" parent="Haz_8EwUBin59iLyk_8Q-26" source="dX68U42Ih_FQ-UEPESkK-6" target="q-6THzIC0rTZull3DPy9-3" edge="1">
            <mxGeometry relative="1" as="geometry">
              <mxPoint x="512.2500000000001" y="380.5" as="sourcePoint" />
              <mxPoint x="635.6388888888888" y="380.75" as="targetPoint" />
            </mxGeometry>
          </mxCell>
        </UserObject>
      </root>
    </mxGraphModel>
  </diagram>
</mxfile>
